font.ufo
<glyph name="one" format="1">
	<unicode hex="0031"/>
	<advance width="600"/>
	<outline>
		<contour>
			<point x="76" y="0" type="line"/>
			<point x="540" y="0" type="line"/>
			<point x="540" y="138" type="line"/>
			<point x="404" y="138" type="line"/>
			<point x="404" y="634" type="line"/>
			<point x="278" y="634" type="line"/>
			<point x="228" y="604"/>
			<point x="178" y="586"/>
			<point x="102" y="572" type="curve"/>
			<point x="102" y="466" type="line"/>
			<point x="232" y="466" type="line"/>
			<point x="232" y="138" type="line"/>
			<point x="76" y="138" type="line"/>
		</contour>
	</outline>
</glyph>
<glyph name="less" format="1">
	<unicode hex="003C"/>
	<advance width="600"/>
	<outline>
		<contour>
			<point x="506" y="24" type="line"/>
			<point x="506" y="178" type="line"/>
			<point x="254" y="330" type="line"/>
			<point x="254" y="334" type="line"/>
			<point x="506" y="486" type="line"/>
			<point x="506" y="640" type="line"/>
			<point x="114" y="390" type="line"/>
			<point x="114" y="274" type="line"/>
		</contour>
	</outline>
</glyph>
<glyph name="F" format="1">
  <advance width="600"/>
  <unicode hex="0046"/>
  <outline>
    <contour>
      <point x="94" y="0" type="line"/>
      <point x="266" y="0" type="line"/>
      <point x="266" y="238" type="line"/>
      <point x="500" y="238" type="line"/>
      <point x="500" y="382" type="line"/>
      <point x="266" y="382" type="line"/>
      <point x="266" y="506" type="line"/>
      <point x="539" y="506" type="line"/>
      <point x="539" y="650" type="line"/>
      <point x="94" y="650" type="line"/>
    </contour>
    <contour>
      <point x="330" y="670" type="move" name="aboveUC"/>
    </contour>
    <contour>
      <point x="180" y="0" type="move" name="baseLC"/>
    </contour>
    <contour>
      <point x="180" y="-20" type="move" name="belowLC"/>
    </contour>
  </outline>
</glyph>
<glyph name="H" format="1">
  <advance width="600"/>
  <unicode hex="0048"/>
  <outline>
    <contour>
      <point x="58" y="0" type="line"/>
      <point x="230" y="0" type="line"/>
      <point x="230" y="258" type="line"/>
      <point x="370" y="258" type="line"/>
      <point x="370" y="0" type="line"/>
      <point x="542" y="0" type="line"/>
      <point x="542" y="650" type="line"/>
      <point x="370" y="650" type="line"/>
      <point x="370" y="408" type="line"/>
      <point x="230" y="408" type="line"/>
      <point x="230" y="650" type="line"/>
      <point x="58" y="650" type="line"/>
    </contour>
    <contour>
      <point x="300" y="670" type="move" name="aboveUC"/>
    </contour>
    <contour>
      <point x="146" y="0" type="move" name="baseLC"/>
    </contour>
    <contour>
      <point x="300" y="-20" type="move" name="belowLC"/>
    </contour>
  </outline>
</glyph>
<glyph name="J" format="1">
  <advance width="600"/>
  <unicode hex="004A"/>
  <outline>
    <contour>
      <point x="272" y="-12" type="curve" smooth="yes"/>
      <point x="459" y="-12"/>
      <point x="525" y="96"/>
      <point x="525" y="226" type="curve" smooth="yes"/>
      <point x="525" y="650" type="line"/>
      <point x="106" y="650" type="line"/>
      <point x="106" y="506" type="line"/>
      <point x="353" y="506" type="line"/>
      <point x="353" y="240" type="line" smooth="yes"/>
      <point x="353" y="158"/>
      <point x="322" y="136"/>
      <point x="266" y="136" type="curve" smooth="yes"/>
      <point x="226" y="136"/>
      <point x="185" y="160"/>
      <point x="148" y="202" type="curve"/>
      <point x="51" y="95" type="line"/>
      <point x="112" y="14"/>
      <point x="200" y="-12"/>
    </contour>
    <contour>
      <point x="330" y="670" type="move" name="aboveUC"/>
    </contour>
    <contour>
      <point x="300" y="-20" type="move" name="belowLC"/>
    </contour>
  </outline>
</glyph>
<glyph name="j" format="1">
	<unicode hex="006A"/>
	<advance width="600"/>
	<outline>
		<component base="dotlessj"/>
		<component base="dotaccentcmb" xOffset="44"/>
		<contour>
			<point name="aboveUC" x="344" y="770" type="move"/>
		</contour>
		<contour>
			<point name="belowLC" x="250" y="-200" type="move"/>
		</contour>
	</outline>
</glyph>
<glyph name="Aacute" format="1">
	<unicode hex="00C1"/>
	<advance width="600"/>
	<outline>
		<component base="A"/>
		<component base="acutecmb.cap"/>
		<contour>
			<point name="ogonekUC" x="490" y="0" type="move"/>
		</contour>
	</outline>
</glyph>
<glyph name="Adieresis" format="1">
  <advance width="600"/>
  <unicode hex="00C4"/>
  <outline>
    <component base="A"/>
    <component base="dieresiscmb.cap"/>
    <contour>
      <point x="490" y="0" type="move" name="ogonekUC"/>
    </contour>
  </outline>
</glyph>
<glyph name="AE" format="1">
	<unicode hex="00C6"/>
	<advance width="600"/>
	<outline>
		<contour>
			<point x="-4" y="0" type="line"/>
			<point x="172" y="0" type="line"/>
			<point x="264" y="348" type="line" smooth="yes"/>
			<point x="276" y="400"/>
			<point x="292" y="460"/>
			<point x="306" y="522" type="curve"/>
			<point x="309" y="522" type="line"/>
			<point x="309" y="0" type="line"/>
			<point x="596" y="0" type="line"/>
			<point x="596" y="144" type="line"/>
			<point x="460" y="144" type="line"/>
			<point x="460" y="262" type="line"/>
			<point x="567" y="262" type="line"/>
			<point x="567" y="406" type="line"/>
			<point x="460" y="406" type="line"/>
			<point x="460" y="506" type="line"/>
			<point x="588" y="506" type="line"/>
			<point x="588" y="650" type="line"/>
			<point x="196" y="650" type="line"/>
		</contour>
		<contour>
			<point x="133" y="132" type="line"/>
			<point x="372" y="132" type="line"/>
			<point x="372" y="265" type="line"/>
			<point x="133" y="265" type="line"/>
		</contour>
		<contour>
			<point name="aboveUC" x="380" y="670" type="move"/>
		</contour>
		<contour>
			<point name="baseLC" x="470" y="0" type="move"/>
		</contour>
		<contour>
			<point name="belowLC" x="330" y="-20" type="move"/>
		</contour>
	</outline>
</glyph>
<glyph name="Eth" format="1">
	<unicode hex="00D0"/>
	<advance width="600"/>
	<outline>
		<contour>
			<point x="64" y="0" type="line"/>
			<point x="262" y="0" type="line" smooth="yes"/>
			<point x="436" y="0"/>
			<point x="568" y="98"/>
			<point x="568" y="328" type="curve" smooth="yes"/>
			<point x="568" y="558"/>
			<point x="436" y="650"/>
			<point x="252" y="650" type="curve" smooth="yes"/>
			<point x="64" y="650" type="line"/>
			<point x="64" y="372" type="line"/>
			<point x="-4" y="366" type="line"/>
			<point x="-4" y="292" type="line"/>
			<point x="64" y="292" type="line"/>
		</contour>
		<contour>
			<point x="236" y="138" type="line"/>
			<point x="236" y="292" type="line"/>
			<point x="330" y="292" type="line"/>
			<point x="330" y="372" type="line"/>
			<point x="236" y="372" type="line"/>
			<point x="236" y="512" type="line"/>
			<point x="242" y="512" type="line" smooth="yes"/>
			<point x="324" y="512"/>
			<point x="392" y="480"/>
			<point x="392" y="328" type="curve" smooth="yes"/>
			<point x="392" y="176"/>
			<point x="324" y="138"/>
			<point x="242" y="138" type="curve" smooth="yes"/>
		</contour>
		<contour>
			<point name="aboveUC" x="296" y="670" type="move"/>
		</contour>
		<contour>
			<point name="belowLC" x="290" y="-20" type="move"/>
		</contour>
	</outline>
</glyph>
<glyph name="Odieresis" format="1">
	<unicode hex="00D6"/>
	<advance width="600"/>
	<outline>
		<component base="O"/>
		<component base="dieresiscmb.cap"/>
		<contour>
			<point name="ogonekUC" x="300" y="0" type="move"/>
		</contour>
	</outline>
</glyph>
<glyph name="aring" format="1">
	<unicode hex="00E5"/>
	<advance width="600"/>
	<outline>
		<component base="a"/>
		<component base="ringcmb" xOffset="20"/>
		<contour>
			<point name="ogonekLC" x="430" y="0" type="move"/>
		</contour>
	</outline>
</glyph>
<glyph name="ae" format="1">
  <advance width="600"/>
  <unicode hex="00E6"/>
  <outline>
    <contour>
      <point x="150" y="-12" type="curve" smooth="yes"/>
      <point x="202" y="-12"/>
      <point x="252" y="10"/>
      <point x="312" y="84" type="curve"/>
      <point x="266" y="160" type="line"/>
      <point x="234" y="124"/>
      <point x="218" y="120"/>
      <point x="204" y="120" type="curve" smooth="yes"/>
      <point x="184" y="120"/>
      <point x="168" y="132"/>
      <point x="168" y="156" type="curve" smooth="yes"/>
      <point x="168" y="186"/>
      <point x="190" y="216"/>
      <point x="260" y="222" type="curve"/>
      <point x="260" y="322" type="line"/>
      <point x="98" y="304"/>
      <point x="16" y="246"/>
      <point x="16" y="134" type="curve" smooth="yes"/>
      <point x="16" y="50"/>
      <point x="70" y="-12"/>
    </contour>
    <contour>
      <point x="442" y="-12" type="curve" smooth="yes"/>
      <point x="480" y="-12"/>
      <point x="536" y="4"/>
      <point x="576" y="36" type="curve"/>
      <point x="518" y="146" type="line"/>
      <point x="492" y="128"/>
      <point x="471" y="122"/>
      <point x="448" y="122" type="curve" smooth="yes"/>
      <point x="402" y="122"/>
      <point x="360" y="160"/>
      <point x="360" y="250" type="curve" smooth="yes"/>
      <point x="360" y="348"/>
      <point x="390" y="382"/>
      <point x="416" y="382" type="curve" smooth="yes"/>
      <point x="446" y="382"/>
      <point x="458" y="356"/>
      <point x="458" y="282" type="curve"/>
      <point x="486" y="302" type="line"/>
      <point x="336" y="302" type="line"/>
      <point x="336" y="198" type="line"/>
      <point x="584" y="198" type="line"/>
      <point x="587" y="210"/>
      <point x="591" y="236"/>
      <point x="591" y="266" type="curve" smooth="yes"/>
      <point x="591" y="400"/>
      <point x="536" y="512"/>
      <point x="432" y="512" type="curve" smooth="yes"/>
      <point x="378" y="512"/>
      <point x="334" y="490"/>
      <point x="292" y="422" type="curve"/>
      <point x="325" y="422" type="line"/>
      <point x="290" y="490"/>
      <point x="250" y="512"/>
      <point x="194" y="512" type="curve" smooth="yes"/>
      <point x="141" y="512"/>
      <point x="88" y="492"/>
      <point x="28" y="456" type="curve"/>
      <point x="88" y="344" type="line"/>
      <point x="124" y="365"/>
      <point x="148" y="376"/>
      <point x="182" y="376" type="curve" smooth="yes"/>
      <point x="210" y="376"/>
      <point x="234" y="362"/>
      <point x="234" y="292" type="curve" smooth="yes"/>
      <point x="234" y="250" type="line"/>
      <point x="234" y="98"/>
      <point x="310" y="-12"/>
    </contour>
    <contour>
      <point x="308" y="520" type="move" name="aboveLC"/>
    </contour>
    <contour>
      <point x="430" y="0" type="move" name="baseLC"/>
    </contour>
    <contour>
      <point x="308" y="-20" type="move" name="belowLC"/>
    </contour>
  </outline>
</glyph>
<glyph name="Hbar" format="1">
  <advance width="600"/>
  <unicode hex="0126"/>
  <outline>
    <contour>
      <point x="0" y="484" type="line"/>
      <point x="600" y="484" type="line"/>
      <point x="600" y="564" type="line"/>
      <point x="65" y="564" type="line"/>
      <point x="0" y="558" type="line"/>
    </contour>
    <component base="H"/>
  </outline>
</glyph>
<glyph name="IJ" format="1">
	<unicode hex="0132"/>
	<advance width="600"/>
	<outline>
		<contour>
			<point x="60" y="0" type="line"/>
			<point x="232" y="0" type="line"/>
			<point x="232" y="650" type="line"/>
			<point x="60" y="650" type="line"/>
		</contour>
		<contour>
			<point x="340" y="-188" type="curve" smooth="yes"/>
			<point x="495" y="-188"/>
			<point x="540" y="-86"/>
			<point x="540" y="26" type="curve" smooth="yes"/>
			<point x="540" y="650" type="line"/>
			<point x="368" y="650" type="line"/>
			<point x="368" y="20" type="line" smooth="yes"/>
			<point x="368" y="-34"/>
			<point x="352" y="-54"/>
			<point x="312" y="-54" type="curve" smooth="yes"/>
			<point x="298" y="-54"/>
			<point x="285" y="-51"/>
			<point x="268" y="-46" type="curve"/>
			<point x="238" y="-172" type="line"/>
			<point x="262" y="-180"/>
			<point x="290" y="-188"/>
		</contour>
	</outline>
</glyph>
<glyph name="Tbar" format="1">
  <advance width="600"/>
  <unicode hex="0166"/>
  <outline>
    <contour>
      <point x="84" y="274" type="line"/>
      <point x="516" y="274" type="line"/>
      <point x="516" y="354" type="line"/>
      <point x="180" y="354" type="line"/>
      <point x="84" y="348" type="line"/>
    </contour>
    <component base="T"/>
  </outline>
</glyph>
<glyph name="tbar" format="1">
  <advance width="600"/>
  <unicode hex="0167"/>
  <outline>
    <contour>
      <point x="42" y="216" type="line"/>
      <point x="512" y="216" type="line"/>
      <point x="512" y="296" type="line"/>
      <point x="176" y="296" type="line"/>
      <point x="42" y="290" type="line"/>
    </contour>
    <component base="t"/>
    <contour>
      <point x="266" y="664" type="move" name="aboveLC"/>
    </contour>
    <contour>
      <point x="364" y="-20" type="move" name="belowLC"/>
    </contour>
  </outline>
</glyph>
<glyph name="Schwa" format="1">
  <advance width="600"/>
  <unicode hex="018F"/>
  <outline>
    <contour>
      <point x="304" y="-12" type="curve" smooth="yes"/>
      <point x="456" y="-12"/>
      <point x="564" y="112"/>
      <point x="564" y="326" type="curve" smooth="yes"/>
      <point x="564" y="540"/>
      <point x="456" y="662"/>
      <point x="300" y="662" type="curve" smooth="yes"/>
      <point x="214" y="662"/>
      <point x="152" y="632"/>
      <point x="106" y="590" type="curve"/>
      <point x="184" y="472" type="line"/>
      <point x="208" y="494"/>
      <point x="241" y="514"/>
      <point x="284" y="514" type="curve" smooth="yes"/>
      <point x="356" y="514"/>
      <point x="394" y="464"/>
      <point x="394" y="326" type="curve" smooth="yes"/>
      <point x="394" y="168"/>
      <point x="354" y="136"/>
      <point x="304" y="136" type="curve" smooth="yes"/>
      <point x="250" y="136"/>
      <point x="212" y="168"/>
      <point x="212" y="326" type="curve"/>
      <point x="192" y="256" type="line"/>
      <point x="438" y="256" type="line"/>
      <point x="438" y="380" type="line"/>
      <point x="50" y="380" type="line"/>
      <point x="48" y="360"/>
      <point x="46" y="340"/>
      <point x="46" y="322" type="curve" smooth="yes"/>
      <point x="46" y="108"/>
      <point x="156" y="-12"/>
    </contour>
    <contour>
      <point x="320" y="670" type="move" name="aboveUC"/>
    </contour>
    <contour>
      <point x="310" y="0" type="move" name="ogonekUC"/>
    </contour>
    <contour>
      <point x="310" y="0" type="move" name="baseLC"/>
    </contour>
    <contour>
      <point x="310" y="-20" type="move" name="belowLC"/>
    </contour>
  </outline>
</glyph>
<glyph name="Ohorn" format="1">
  <advance width="600"/>
  <unicode hex="01A0"/>
  <outline>
    <contour>
      <point x="488" y="582" type="line"/>
      <point x="572" y="604"/>
      <point x="608" y="654"/>
      <point x="608" y="732" type="curve" smooth="yes"/>
      <point x="608" y="776"/>
      <point x="592" y="816"/>
      <point x="576" y="838" type="curve"/>
      <point x="450" y="788" type="line"/>
      <point x="457" y="773"/>
      <point x="466" y="748"/>
      <point x="466" y="720" type="curve" smooth="yes"/>
      <point x="466" y="670"/>
      <point x="448" y="648"/>
      <point x="412" y="636" type="curve"/>
    </contour>
    <component base="O"/>
    <contour>
      <point x="300" y="670" type="move" name="aboveUC"/>
    </contour>
    <contour>
      <point x="300" y="-20" type="move" name="belowLC"/>
    </contour>
  </outline>
</glyph>
<glyph name="oogonek" format="1">
	<unicode hex="01EB"/>
	<advance width="600"/>
	<outline>
		<contour>
			<point x="318" y="-228" type="curve" smooth="yes"/>
			<point x="362" y="-228"/>
			<point x="414" y="-214"/>
			<point x="442" y="-192" type="curve"/>
			<point x="408" y="-116" type="line"/>
			<point x="399" y="-122"/>
			<point x="382" y="-128"/>
			<point x="360" y="-128" type="curve" smooth="yes"/>
			<point x="340" y="-128"/>
			<point x="314" y="-115"/>
			<point x="314" y="-86" type="curve" smooth="yes"/>
			<point x="314" y="-57"/>
			<point x="334" y="-21"/>
			<point x="384" y="2" type="curve" smooth="yes"/>
			<point x="488" y="48"/>
			<point x="558" y="120"/>
			<point x="558" y="250" type="curve" smooth="yes"/>
			<point x="558" y="416"/>
			<point x="433" y="512"/>
			<point x="300" y="512" type="curve" smooth="yes"/>
			<point x="167" y="512"/>
			<point x="42" y="416"/>
			<point x="42" y="250" type="curve" smooth="yes"/>
			<point x="42" y="101"/>
			<point x="144" y="8"/>
			<point x="261" y="-9" type="curve"/>
			<point x="236" y="-31"/>
			<point x="200" y="-72"/>
			<point x="200" y="-126" type="curve" smooth="yes"/>
			<point x="200" y="-194"/>
			<point x="252" y="-228"/>
		</contour>
		<contour>
			<point x="300" y="122" type="curve" smooth="yes"/>
			<point x="242" y="122"/>
			<point x="218" y="170"/>
			<point x="218" y="250" type="curve" smooth="yes"/>
			<point x="218" y="326"/>
			<point x="242" y="374"/>
			<point x="300" y="374" type="curve" smooth="yes"/>
			<point x="358" y="374"/>
			<point x="382" y="326"/>
			<point x="382" y="250" type="curve" smooth="yes"/>
			<point x="382" y="170"/>
			<point x="358" y="122"/>
		</contour>
		<contour>
			<point name="aboveLC" x="300" y="520" type="move"/>
		</contour>
	</outline>
</glyph>
<glyph name="Aringacute" format="1">
  <advance width="600"/>
  <unicode hex="01FA"/>
  <outline>
    <contour>
      <point x="264" y="846" type="line"/>
      <point x="444" y="928" type="line"/>
      <point x="376" y="1022" type="line"/>
      <point x="212" y="870" type="line"/>
    </contour>
    <component base="Aring"/>
  </outline>
</glyph>
<glyph name="aringacute" format="1">
  <advance width="600"/>
  <unicode hex="01FB"/>
  <outline>
    <contour>
      <point x="294" y="736" type="line"/>
      <point x="454" y="808" type="line"/>
      <point x="386" y="892" type="line"/>
      <point x="222" y="754" type="line"/>
    </contour>
    <component base="aring"/>
  </outline>
</glyph>
<glyph name="schwa" format="1">
	<unicode hex="0259"/>
	<advance width="600"/>
	<outline>
		<contour>
			<point x="288" y="-12" type="curve" smooth="yes"/>
			<point x="422" y="-12"/>
			<point x="550" y="86"/>
			<point x="550" y="250" type="curve" smooth="yes"/>
			<point x="550" y="416"/>
			<point x="432" y="512"/>
			<point x="280" y="512" type="curve" smooth="yes"/>
			<point x="218" y="512"/>
			<point x="140" y="492"/>
			<point x="80" y="454" type="curve"/>
			<point x="136" y="352" type="line"/>
			<point x="180" y="372"/>
			<point x="216" y="382"/>
			<point x="256" y="382" type="curve" smooth="yes"/>
			<point x="340" y="382"/>
			<point x="384" y="344"/>
			<point x="384" y="250" type="curve" smooth="yes"/>
			<point x="384" y="160"/>
			<point x="348" y="118"/>
			<point x="282" y="118" type="curve" smooth="yes"/>
			<point x="226" y="118"/>
			<point x="200" y="154"/>
			<point x="200" y="220" type="curve"/>
			<point x="176" y="190" type="line"/>
			<point x="420" y="190" type="line"/>
			<point x="420" y="302" type="line"/>
			<point x="57" y="302" type="line"/>
			<point x="55" y="290"/>
			<point x="50" y="260"/>
			<point x="50" y="230" type="curve" smooth="yes"/>
			<point x="50" y="96"/>
			<point x="130" y="-12"/>
		</contour>
		<contour>
			<point name="ogonekLC" x="290" y="0" type="move"/>
		</contour>
		<contour>
			<point name="aboveLC" x="310" y="520" type="move"/>
		</contour>
		<contour>
			<point name="baseLC" x="290" y="0" type="move"/>
		</contour>
		<contour>
			<point name="belowLC" x="290" y="-20" type="move"/>
		</contour>
	</outline>
</glyph>
<glyph name="dotlessjstroke" format="1">
  <advance width="600"/>
  <unicode hex="025F"/>
  <outline>
    <contour>
      <point x="98" y="180" type="line"/>
      <point x="556" y="180" type="line"/>
      <point x="556" y="260" type="line"/>
      <point x="264" y="260" type="line"/>
      <point x="98" y="254" type="line"/>
    </contour>
    <component base="dotlessj"/>
    <contour>
      <point x="344" y="520" type="move" name="aboveLC"/>
    </contour>
    <contour>
      <point x="250" y="-200" type="move" name="belowLC"/>
    </contour>
  </outline>
</glyph>
<glyph name="ghook" format="1">
	<unicode hex="0260"/>
	<advance width="600"/>
	<outline>
		<contour>
			<point x="264" y="-186" type="curve" smooth="yes"/>
			<point x="434" y="-186"/>
			<point x="530" y="-116"/>
			<point x="530" y="16" type="curve" smooth="yes"/>
			<point x="530" y="464" type="line" smooth="yes"/>
			<point x="530" y="508"/>
			<point x="544" y="528"/>
			<point x="580" y="528" type="curve" smooth="yes"/>
			<point x="585" y="528"/>
			<point x="591" y="528"/>
			<point x="596" y="526" type="curve"/>
			<point x="626" y="652" type="line"/>
			<point x="608" y="658"/>
			<point x="588" y="662"/>
			<point x="552" y="662" type="curve" smooth="yes"/>
			<point x="409" y="662"/>
			<point x="362" y="570"/>
			<point x="362" y="492" type="curve"/>
			<point x="364" y="462" type="line"/>
			<point x="360" y="462" type="line"/>
			<point x="332" y="492"/>
			<point x="300" y="512"/>
			<point x="252" y="512" type="curve" smooth="yes"/>
			<point x="150" y="512"/>
			<point x="44" y="412"/>
			<point x="44" y="260" type="curve" smooth="yes"/>
			<point x="44" y="120"/>
			<point x="124" y="16"/>
			<point x="248" y="16" type="curve" smooth="yes"/>
			<point x="288" y="16"/>
			<point x="330" y="32"/>
			<point x="360" y="60" type="curve"/>
			<point x="364" y="60" type="line"/>
			<point x="358" y="10" type="line" smooth="yes"/>
			<point x="354" y="-24"/>
			<point x="330" y="-52"/>
			<point x="264" y="-52" type="curve" smooth="yes"/>
			<point x="226" y="-52"/>
			<point x="176" y="-42"/>
			<point x="130" y="-18" type="curve"/>
			<point x="74" y="-130" type="line"/>
			<point x="134" y="-168"/>
			<point x="212" y="-186"/>
		</contour>
		<contour>
			<point x="294" y="154" type="curve" smooth="yes"/>
			<point x="248" y="154"/>
			<point x="218" y="191"/>
			<point x="218" y="262" type="curve" smooth="yes"/>
			<point x="218" y="337"/>
			<point x="252" y="372"/>
			<point x="290" y="372" type="curve" smooth="yes"/>
			<point x="312" y="372"/>
			<point x="338" y="366"/>
			<point x="358" y="348" type="curve"/>
			<point x="358" y="192" type="line"/>
			<point x="338" y="162"/>
			<point x="320" y="154"/>
		</contour>
		<contour>
			<point name="aboveLC" x="310" y="520" type="move"/>
		</contour>
		<contour>
			<point name="belowLC" x="300" y="-200" type="move"/>
		</contour>
	</outline>
</glyph>
<glyph name="ismall" format="1">
  <advance width="600"/>
  <unicode hex="026A"/>
  <outline>
    <contour>
      <point x="76" y="0" type="line"/>
      <point x="524" y="0" type="line"/>
      <point x="524" y="134" type="line"/>
      <point x="386" y="134" type="line"/>
      <point x="386" y="366" type="line"/>
      <point x="524" y="366" type="line"/>
      <point x="524" y="500" type="line"/>
      <point x="76" y="500" type="line"/>
      <point x="76" y="366" type="line"/>
      <point x="214" y="366" type="line"/>
      <point x="214" y="134" type="line"/>
      <point x="76" y="134" type="line"/>
    </contour>
    <contour>
      <point x="300" y="520" type="move" name="aboveLC"/>
    </contour>
    <contour>
      <point x="300" y="-20" type="move" name="belowLC"/>
    </contour>
  </outline>
</glyph>
<glyph name="lezh" format="1">
	<unicode hex="026E"/>
	<advance width="600"/>
	<outline>
		<contour>
			<point x="26" y="0" type="line"/>
			<point x="198" y="0" type="line"/>
			<point x="198" y="696" type="line"/>
			<point x="26" y="696" type="line"/>
		</contour>
		<contour>
			<point x="374" y="-188" type="curve" smooth="yes"/>
			<point x="503" y="-188"/>
			<point x="610" y="-104"/>
			<point x="610" y="44" type="curve" smooth="yes"/>
			<point x="610" y="144"/>
			<point x="552" y="228"/>
			<point x="422" y="240" type="curve"/>
			<point x="434" y="211" type="line"/>
			<point x="586" y="408" type="line"/>
			<point x="586" y="500" type="line"/>
			<point x="194" y="500" type="line"/>
			<point x="194" y="366" type="line"/>
			<point x="382" y="366" type="line"/>
			<point x="246" y="188" type="line"/>
			<point x="300" y="108" type="line"/>
			<point x="322" y="116"/>
			<point x="330" y="118"/>
			<point x="356" y="118" type="curve" smooth="yes"/>
			<point x="404" y="118"/>
			<point x="438" y="90"/>
			<point x="438" y="40" type="curve" smooth="yes"/>
			<point x="438" y="-18"/>
			<point x="404" y="-50"/>
			<point x="352" y="-50" type="curve" smooth="yes"/>
			<point x="310" y="-50"/>
			<point x="272" y="-28"/>
			<point x="240" y="0" type="curve"/>
			<point x="164" y="-106" type="line"/>
			<point x="212" y="-152"/>
			<point x="279" y="-188"/>
		</contour>
		<contour>
			<point name="aboveUC" x="110" y="730" type="move"/>
		</contour>
		<contour>
			<point name="belowLC" x="370" y="-200" type="move"/>
		</contour>
	</outline>
</glyph>
<glyph name="mlonglegturned" format="1">
  <advance width="600"/>
  <unicode hex="0270"/>
  <outline>
    <contour>
      <point x="412" y="-176" type="line"/>
      <point x="574" y="-176" type="line"/>
      <point x="574" y="500" type="line"/>
      <point x="412" y="500" type="line"/>
      <point x="412" y="172" type="line"/>
      <point x="403" y="146"/>
      <point x="394" y="134"/>
      <point x="382" y="134" type="curve" smooth="yes"/>
      <point x="369" y="134"/>
      <point x="362" y="143"/>
      <point x="362" y="164" type="curve" smooth="yes"/>
      <point x="362" y="500" type="line"/>
      <point x="232" y="500" type="line"/>
      <point x="232" y="172" type="line"/>
      <point x="223" y="146"/>
      <point x="212" y="134"/>
      <point x="199" y="134" type="curve" smooth="yes"/>
      <point x="186" y="134"/>
      <point x="182" y="143"/>
      <point x="182" y="164" type="curve" smooth="yes"/>
      <point x="182" y="500" type="line"/>
      <point x="20" y="500" type="line"/>
      <point x="20" y="152" type="line" smooth="yes"/>
      <point x="20" y="52"/>
      <point x="62" y="-12"/>
      <point x="132" y="-12" type="curve" smooth="yes"/>
      <point x="188" y="-12"/>
      <point x="225" y="26"/>
      <point x="239" y="68" type="curve"/>
      <point x="250" y="16"/>
      <point x="282" y="-12"/>
      <point x="323" y="-12" type="curve" smooth="yes"/>
      <point x="376" y="-12"/>
      <point x="402" y="23"/>
      <point x="419" y="61" type="curve"/>
      <point x="423" y="61" type="line"/>
      <point x="412" y="-34" type="line"/>
    </contour>
    <contour>
      <point x="300" y="520" type="move" name="aboveLC"/>
    </contour>
    <contour>
      <point x="490" y="-218" type="move" name="belowLC"/>
    </contour>
  </outline>
</glyph>
<glyph name="nsmall" format="1">
	<unicode hex="0274"/>
	<advance width="600"/>
	<outline>
		<contour>
			<point x="66" y="0" type="line"/>
			<point x="226" y="0" type="line"/>
			<point x="226" y="113" type="line" smooth="yes"/>
			<point x="226" y="162"/>
			<point x="218" y="227"/>
			<point x="211" y="288" type="curve"/>
			<point x="215" y="288" type="line"/>
			<point x="228" y="257"/>
			<point x="250" y="211"/>
			<point x="266" y="184" type="curve" smooth="yes"/>
			<point x="376" y="0" type="line"/>
			<point x="534" y="0" type="line"/>
			<point x="534" y="500" type="line"/>
			<point x="374" y="500" type="line"/>
			<point x="374" y="387" type="line" smooth="yes"/>
			<point x="374" y="338"/>
			<point x="382" y="272"/>
			<point x="388" y="212" type="curve"/>
			<point x="385" y="212" type="line"/>
			<point x="372" y="241"/>
			<point x="350" y="288"/>
			<point x="334" y="316" type="curve" smooth="yes"/>
			<point x="224" y="500" type="line"/>
			<point x="66" y="500" type="line"/>
		</contour>
		<contour>
			<point name="aboveLC" x="306" y="520" type="move"/>
		</contour>
		<contour>
			<point name="belowLC" x="306" y="-20" type="move"/>
		</contour>
	</outline>
</glyph>
<glyph name="oesmall" format="1">
  <advance width="600"/>
  <unicode hex="0276"/>
  <outline>
    <contour>
      <point x="242" y="-12" type="curve" smooth="yes"/>
      <point x="280" y="-12"/>
      <point x="307" y="-9"/>
      <point x="350" y="0" type="curve"/>
      <point x="596" y="0" type="line"/>
      <point x="596" y="134" type="line"/>
      <point x="440" y="134" type="line"/>
      <point x="440" y="198" type="line"/>
      <point x="558" y="198" type="line"/>
      <point x="558" y="310" type="line"/>
      <point x="440" y="310" type="line"/>
      <point x="440" y="366" type="line"/>
      <point x="586" y="366" type="line"/>
      <point x="586" y="500" type="line"/>
      <point x="350" y="500" type="line"/>
      <point x="303" y="509"/>
      <point x="280" y="512"/>
      <point x="242" y="512" type="curve" smooth="yes"/>
      <point x="130" y="512"/>
      <point x="14" y="426"/>
      <point x="14" y="249" type="curve" smooth="yes"/>
      <point x="14" y="68"/>
      <point x="130" y="-12"/>
    </contour>
    <contour>
      <point x="258" y="122" type="curve" smooth="yes"/>
      <point x="224" y="122"/>
      <point x="190" y="146"/>
      <point x="190" y="249" type="curve" smooth="yes"/>
      <point x="190" y="342"/>
      <point x="224" y="374"/>
      <point x="258" y="374" type="curve" smooth="yes"/>
      <point x="270" y="374"/>
      <point x="280" y="372"/>
      <point x="288" y="370" type="curve"/>
      <point x="288" y="128" type="line"/>
      <point x="278" y="124"/>
      <point x="268" y="122"/>
    </contour>
    <contour>
      <point x="360" y="520" type="move" name="aboveLC"/>
    </contour>
    <contour>
      <point x="350" y="-20" type="move" name="belowLC"/>
    </contour>
  </outline>
</glyph>
<glyph name="esh" format="1">
	<unicode hex="0283"/>
	<advance width="600"/>
	<outline>
		<contour>
			<point x="184" y="-188" type="curve" smooth="yes"/>
			<point x="344" y="-188"/>
			<point x="388" y="-86"/>
			<point x="388" y="26" type="curve" smooth="yes"/>
			<point x="388" y="500" type="line" smooth="yes"/>
			<point x="388" y="554"/>
			<point x="408" y="574"/>
			<point x="458" y="574" type="curve" smooth="yes"/>
			<point x="480" y="574"/>
			<point x="500" y="568"/>
			<point x="526" y="558" type="curve"/>
			<point x="568" y="680" type="line"/>
			<point x="536" y="692"/>
			<point x="496" y="708"/>
			<point x="430" y="708" type="curve" smooth="yes"/>
			<point x="265" y="708"/>
			<point x="216" y="606"/>
			<point x="216" y="494" type="curve" smooth="yes"/>
			<point x="216" y="20" type="line"/>
			<point x="216" y="-34"/>
			<point x="200" y="-54"/>
			<point x="156" y="-54" type="curve" smooth="yes"/>
			<point x="134" y="-54"/>
			<point x="112" y="-48"/>
			<point x="86" y="-36" type="curve"/>
			<point x="38" y="-155" type="line"/>
			<point x="74" y="-172"/>
			<point x="114" y="-188"/>
		</contour>
		<contour>
			<point name="aboveUC" x="400" y="730" type="move"/>
		</contour>
		<contour>
			<point name="belowLC" x="216" y="-200" type="move"/>
		</contour>
	</outline>
</glyph>
<glyph name="tturned" format="1">
  <advance width="600"/>
  <unicode hex="0287"/>
  <outline>
    <component base="t" xScale="-1" yScale="-1" xOffset="600" yOffset="500"/>
    <contour>
      <point x="254" y="520" type="move" name="aboveLC"/>
    </contour>
    <contour>
      <point x="338" y="-160" type="move" name="belowLC"/>
    </contour>
  </outline>
</glyph>
<glyph name="upsilonlatin" format="1">
  <advance width="600"/>
  <unicode hex="028A"/>
  <outline>
    <contour>
      <point x="300" y="-12" type="curve" smooth="yes"/>
      <point x="462" y="-12"/>
      <point x="554" y="95"/>
      <point x="554" y="198" type="curve" smooth="yes"/>
      <point x="554" y="270"/>
      <point x="521" y="327"/>
      <point x="486" y="363" type="curve"/>
      <point x="486" y="366" type="line"/>
      <point x="566" y="366" type="line"/>
      <point x="566" y="500" type="line"/>
      <point x="334" y="500" type="line"/>
      <point x="334" y="389" type="line"/>
      <point x="366" y="340"/>
      <point x="382" y="303"/>
      <point x="382" y="234" type="curve" smooth="yes"/>
      <point x="382" y="172"/>
      <point x="358" y="126"/>
      <point x="300" y="126" type="curve" smooth="yes"/>
      <point x="242" y="126"/>
      <point x="218" y="172"/>
      <point x="218" y="234" type="curve" smooth="yes"/>
      <point x="218" y="303"/>
      <point x="234" y="340"/>
      <point x="266" y="389" type="curve"/>
      <point x="266" y="500" type="line"/>
      <point x="34" y="500" type="line"/>
      <point x="34" y="366" type="line"/>
      <point x="114" y="366" type="line"/>
      <point x="114" y="363" type="line"/>
      <point x="79" y="327"/>
      <point x="46" y="270"/>
      <point x="46" y="198" type="curve" smooth="yes"/>
      <point x="46" y="95"/>
      <point x="138" y="-12"/>
    </contour>
    <contour>
      <point x="300" y="520" type="move" name="aboveLC"/>
    </contour>
    <contour>
      <point x="300" y="-20" type="move" name="belowLC"/>
    </contour>
  </outline>
</glyph>
<glyph name="zcurl" format="1">
  <advance width="600"/>
  <unicode hex="0291"/>
  <outline>
    <contour>
      <point x="360" y="-112" type="line"/>
      <point x="397" y="108"/>
      <point x="443" y="182"/>
      <point x="478" y="182" type="curve" smooth="yes"/>
      <point x="495" y="182"/>
      <point x="504" y="175"/>
      <point x="504" y="159" type="curve" smooth="yes"/>
      <point x="504" y="141"/>
      <point x="488" y="124"/>
      <point x="453" y="124" type="curve" smooth="yes"/>
      <point x="396" y="124"/>
      <point x="342" y="128"/>
      <point x="284" y="134" type="curve"/>
      <point x="488" y="408" type="line"/>
      <point x="488" y="500" type="line"/>
      <point x="98" y="500" type="line"/>
      <point x="98" y="366" type="line"/>
      <point x="276" y="366" type="line"/>
      <point x="70" y="92" type="line"/>
      <point x="70" y="0" type="line"/>
      <point x="407" y="0" type="line" smooth="yes"/>
      <point x="537" y="0"/>
      <point x="592" y="70"/>
      <point x="592" y="154" type="curve" smooth="yes"/>
      <point x="592" y="232"/>
      <point x="548" y="270"/>
      <point x="478" y="270" type="curve" smooth="yes"/>
      <point x="383" y="270"/>
      <point x="320" y="120"/>
      <point x="281" y="-96" type="curve"/>
    </contour>
    <contour>
      <point x="300" y="520" type="move" name="aboveLC"/>
    </contour>
  </outline>
</glyph>
<glyph name="glottalstopreversed" format="1">
  <advance width="600"/>
  <unicode hex="0295"/>
  <outline>
    <contour>
      <point x="232" y="0" type="line"/>
      <point x="404" y="0" type="line"/>
      <point x="404" y="314" type="line"/>
      <point x="271" y="396"/>
      <point x="234" y="429"/>
      <point x="234" y="486" type="curve" smooth="yes"/>
      <point x="234" y="542"/>
      <point x="278" y="570"/>
      <point x="344" y="570" type="curve" smooth="yes"/>
      <point x="392" y="570"/>
      <point x="439" y="541"/>
      <point x="470" y="504" type="curve"/>
      <point x="554" y="612" type="line"/>
      <point x="504" y="666"/>
      <point x="427" y="708"/>
      <point x="324" y="708" type="curve" smooth="yes"/>
      <point x="184" y="708"/>
      <point x="62" y="638"/>
      <point x="62" y="494" type="curve" smooth="yes"/>
      <point x="62" y="388"/>
      <point x="128" y="330"/>
      <point x="232" y="252" type="curve"/>
    </contour>
    <contour>
      <point x="300" y="730" type="move" name="aboveUC"/>
    </contour>
    <contour>
      <point x="320" y="-20" type="move" name="belowLC"/>
    </contour>
  </outline>
</glyph>
<glyph name="tesh" format="1">
  <advance width="600"/>
  <unicode hex="02A7"/>
  <outline>
    <contour>
      <point x="234" y="-12" type="curve" smooth="yes"/>
      <point x="288" y="-12"/>
      <point x="322" y="-2"/>
      <point x="348" y="6" type="curve"/>
      <point x="322" y="130" type="line"/>
      <point x="306" y="124"/>
      <point x="292" y="122"/>
      <point x="272" y="122" type="curve" smooth="yes"/>
      <point x="250" y="122"/>
      <point x="228" y="140"/>
      <point x="228" y="195" type="curve" smooth="yes"/>
      <point x="228" y="366" type="line"/>
      <point x="442" y="366" type="line"/>
      <point x="442" y="500" type="line"/>
      <point x="228" y="500" type="line"/>
      <point x="228" y="650" type="line"/>
      <point x="86" y="650" type="line"/>
      <point x="64" y="500" type="line"/>
      <point x="-10" y="494" type="line"/>
      <point x="-10" y="366" type="line"/>
      <point x="56" y="366" type="line"/>
      <point x="56" y="192" type="line" smooth="yes"/>
      <point x="56" y="70"/>
      <point x="108" y="-12"/>
    </contour>
    <contour>
      <point x="376" y="-188" type="curve" smooth="yes"/>
      <point x="517" y="-188"/>
      <point x="564" y="-86"/>
      <point x="564" y="26" type="curve" smooth="yes"/>
      <point x="564" y="500" type="line" smooth="yes"/>
      <point x="564" y="554"/>
      <point x="578" y="574"/>
      <point x="614" y="574" type="curve" smooth="yes"/>
      <point x="623" y="574"/>
      <point x="630" y="572"/>
      <point x="640" y="568" type="curve"/>
      <point x="670" y="694" type="line"/>
      <point x="650" y="702"/>
      <point x="628" y="708"/>
      <point x="590" y="708" type="curve" smooth="yes"/>
      <point x="440" y="708"/>
      <point x="392" y="606"/>
      <point x="392" y="502" type="curve" smooth="yes"/>
      <point x="392" y="20" type="line"/>
      <point x="392" y="-34"/>
      <point x="380" y="-54"/>
      <point x="352" y="-54" type="curve" smooth="yes"/>
      <point x="340" y="-54"/>
      <point x="330" y="-52"/>
      <point x="316" y="-48" type="curve"/>
      <point x="286" y="-174" type="line"/>
      <point x="306" y="-182"/>
      <point x="332" y="-188"/>
    </contour>
    <contour>
      <point x="255" y="730" type="move" name="aboveUC"/>
    </contour>
    <contour>
      <point x="331" y="-200" type="move" name="belowLC"/>
    </contour>
  </outline>
</glyph>
<glyph name="verticallinelowmod" format="1">
  <advance width="600"/>
  <unicode hex="02CC"/>
  <outline>
    <contour>
      <point x="214" y="-270" type="line"/>
      <point x="386" y="-270" type="line"/>
      <point x="352" y="110" type="line"/>
      <point x="248" y="110" type="line"/>
    </contour>
  </outline>
</glyph>
<glyph name="tildecmb" format="1">
  <advance width="600"/>
  <unicode hex="0303"/>
  <outline>
    <contour>
      <point x="364" y="572" type="curve" smooth="yes"/>
      <point x="444" y="572"/>
      <point x="494" y="617"/>
      <point x="496" y="730" type="curve"/>
      <point x="390" y="736" type="line"/>
      <point x="386" y="700"/>
      <point x="376" y="690"/>
      <point x="360" y="690" type="curve" smooth="yes"/>
      <point x="334" y="690"/>
      <point x="296" y="746"/>
      <point x="236" y="746" type="curve" smooth="yes"/>
      <point x="156" y="746"/>
      <point x="106" y="701"/>
      <point x="104" y="588" type="curve"/>
      <point x="210" y="582" type="line"/>
      <point x="214" y="618"/>
      <point x="224" y="628"/>
      <point x="240" y="628" type="curve" smooth="yes"/>
      <point x="266" y="628"/>
      <point x="304" y="572"/>
    </contour>
    <contour>
      <point x="300" y="520" type="move" name="_aboveLC"/>
    </contour>
    <contour>
      <point x="300" y="740" type="move" name="aboveLC"/>
    </contour>
  </outline>
</glyph>
<glyph name="dieresiscmb" format="1">
  <advance width="600"/>
  <unicode hex="0308"/>
  <outline>
    <contour>
      <point x="184" y="564" type="curve" smooth="yes"/>
      <point x="237" y="564"/>
      <point x="274" y="603"/>
      <point x="274" y="654" type="curve" smooth="yes"/>
      <point x="274" y="705"/>
      <point x="237" y="744"/>
      <point x="184" y="744" type="curve" smooth="yes"/>
      <point x="131" y="744"/>
      <point x="94" y="705"/>
      <point x="94" y="654" type="curve" smooth="yes"/>
      <point x="94" y="603"/>
      <point x="131" y="564"/>
    </contour>
    <contour>
      <point x="416" y="564" type="curve" smooth="yes"/>
      <point x="469" y="564"/>
      <point x="506" y="603"/>
      <point x="506" y="654" type="curve" smooth="yes"/>
      <point x="506" y="705"/>
      <point x="469" y="744"/>
      <point x="416" y="744" type="curve" smooth="yes"/>
      <point x="363" y="744"/>
      <point x="326" y="705"/>
      <point x="326" y="654" type="curve" smooth="yes"/>
      <point x="326" y="603"/>
      <point x="363" y="564"/>
    </contour>
    <contour>
      <point x="300" y="520" type="move" name="_aboveLC"/>
    </contour>
    <contour>
      <point x="300" y="520" type="move" name="aboveLC"/>
    </contour>
  </outline>
</glyph>
<glyph name="commaabovecmb" format="1">
  <advance width="600"/>
  <unicode hex="0313"/>
  <outline>
    <contour>
      <point x="250" y="566" type="line"/>
      <point x="337" y="588"/>
      <point x="380" y="638"/>
      <point x="380" y="704" type="curve" smooth="yes"/>
      <point x="380" y="768"/>
      <point x="343" y="806"/>
      <point x="288" y="806" type="curve" smooth="yes"/>
      <point x="246" y="806"/>
      <point x="214" y="779"/>
      <point x="214" y="736" type="curve" smooth="yes"/>
      <point x="214" y="691"/>
      <point x="246" y="666"/>
      <point x="283" y="666" type="curve" smooth="yes"/>
      <point x="298" y="666"/>
      <point x="312" y="677"/>
      <point x="324" y="687" type="curve"/>
      <point x="290" y="743" type="line"/>
      <point x="291" y="724"/>
      <point x="306" y="704"/>
      <point x="305" y="683" type="curve" smooth="yes"/>
      <point x="304" y="652"/>
      <point x="277" y="634"/>
      <point x="226" y="620" type="curve"/>
    </contour>
    <contour>
      <point x="300" y="520" type="move" name="_aboveLC"/>
    </contour>
  </outline>
</glyph>
<glyph name="cedillacmb" format="1">
  <advance width="600"/>
  <unicode hex="0327"/>
  <outline>
    <contour>
      <point x="192" y="-244" type="line"/>
      <point x="324" y="-240"/>
      <point x="402" y="-208"/>
      <point x="402" y="-136" type="curve" smooth="yes"/>
      <point x="402" y="-94"/>
      <point x="376" y="-72"/>
      <point x="324" y="-60" type="curve"/>
      <point x="352" y="4" type="line"/>
      <point x="254" y="4" type="line"/>
      <point x="204" y="-96" type="line"/>
      <point x="266" y="-104"/>
      <point x="280" y="-118"/>
      <point x="280" y="-136" type="curve" smooth="yes"/>
      <point x="280" y="-164"/>
      <point x="256" y="-174"/>
      <point x="180" y="-178" type="curve"/>
    </contour>
    <contour>
      <point x="300" y="0" type="move" name="_baseLC"/>
    </contour>
  </outline>
</glyph>
<glyph name="brevebelowcmb" format="1">
  <advance width="600"/>
  <unicode hex="032E"/>
  <outline>
    <component base="brevecmb" yOffset="-806"/>
    <contour>
      <point x="300" y="-20" type="move" name="_belowLC"/>
    </contour>
  </outline>
</glyph>
<glyph name="tildebelowcmb" format="1">
	<unicode hex="0330"/>
	<advance width="600"/>
	<outline>
		<component base="tildecmb" yOffset="-800"/>
		<contour>
			<point name="_belowLC" x="300" y="-20" type="move"/>
		</contour>
	</outline>
</glyph>
<glyph name="xabovecmb" format="1">
  <advance width="600"/>
  <unicode hex="033D"/>
  <outline>
    <contour>
      <point x="234" y="566" type="line"/>
      <point x="300" y="620" type="line"/>
      <point x="366" y="566" type="line"/>
      <point x="422" y="616" type="line"/>
      <point x="358" y="672" type="line"/>
      <point x="422" y="728" type="line"/>
      <point x="366" y="778" type="line"/>
      <point x="300" y="724" type="line"/>
      <point x="234" y="778" type="line"/>
      <point x="178" y="728" type="line"/>
      <point x="242" y="672" type="line"/>
      <point x="178" y="616" type="line"/>
    </contour>
    <contour>
      <point x="300" y="520" type="move" name="_aboveLC"/>
    </contour>
  </outline>
</glyph>
<glyph name="breveinverteddoublecmb" format="1">
  <advance width="600"/>
  <unicode hex="0361"/>
  <outline>
    <contour>
      <point x="-114" y="530" type="line"/>
      <point x="16" y="602"/>
      <point x="182" y="622"/>
      <point x="300" y="622" type="curve" smooth="yes"/>
      <point x="418" y="622"/>
      <point x="584" y="602"/>
      <point x="714" y="530" type="curve"/>
      <point x="758" y="608" type="line"/>
      <point x="620" y="692"/>
      <point x="456" y="730"/>
      <point x="300" y="730" type="curve" smooth="yes"/>
      <point x="144" y="730"/>
      <point x="-20" y="692"/>
      <point x="-158" y="608" type="curve"/>
    </contour>
  </outline>
</glyph>
<glyph name="iotasubscript" format="1">
	<unicode hex="037A"/>
	<advance width="600"/>
	<outline>
		<component base="iotasubscriptcmb"/>
		<contour>
			<point name="_belowLC" x="300" y="-20" type="move"/>
		</contour>
	</outline>
</glyph>
<glyph name="Omicrontonos" format="1">
  <advance width="600"/>
  <unicode hex="038C"/>
  <outline>
    <contour>
      <point x="356" y="-12" type="curve" smooth="yes"/>
      <point x="481" y="-12"/>
      <point x="566" y="104"/>
      <point x="566" y="328" type="curve" smooth="yes"/>
      <point x="566" y="552"/>
      <point x="481" y="662"/>
      <point x="356" y="662" type="curve" smooth="yes"/>
      <point x="232" y="662"/>
      <point x="146" y="552"/>
      <point x="146" y="328" type="curve" smooth="yes"/>
      <point x="146" y="114"/>
      <point x="232" y="-12"/>
    </contour>
    <contour>
      <point x="356" y="136" type="curve" smooth="yes"/>
      <point x="326" y="136"/>
      <point x="308" y="180"/>
      <point x="308" y="328" type="curve" smooth="yes"/>
      <point x="308" y="476"/>
      <point x="326" y="514"/>
      <point x="356" y="514" type="curve" smooth="yes"/>
      <point x="387" y="514"/>
      <point x="404" y="476"/>
      <point x="404" y="328" type="curve" smooth="yes"/>
      <point x="404" y="180"/>
      <point x="387" y="136"/>
    </contour>
    <component base="tonos.cap" xOffset="-210"/>
  </outline>
</glyph>
<glyph name="Omegatonos" format="1">
  <advance width="600"/>
  <unicode hex="038F"/>
  <outline>
    <contour>
      <point x="138" y="0" type="line"/>
      <point x="338" y="0" type="line"/>
      <point x="338" y="124" type="line"/>
      <point x="312" y="212"/>
      <point x="308" y="254"/>
      <point x="308" y="342" type="curve" smooth="yes"/>
      <point x="308" y="464"/>
      <point x="326" y="514"/>
      <point x="356" y="514" type="curve" smooth="yes"/>
      <point x="387" y="514"/>
      <point x="404" y="464"/>
      <point x="404" y="342" type="curve" smooth="yes"/>
      <point x="404" y="254"/>
      <point x="400" y="212"/>
      <point x="374" y="124" type="curve"/>
      <point x="374" y="0" type="line"/>
      <point x="574" y="0" type="line"/>
      <point x="574" y="138" type="line"/>
      <point x="498" y="138" type="line"/>
      <point x="498" y="142" type="line"/>
      <point x="534" y="203"/>
      <point x="564" y="273"/>
      <point x="564" y="380" type="curve" smooth="yes"/>
      <point x="564" y="548"/>
      <point x="482" y="662"/>
      <point x="356" y="662" type="curve" smooth="yes"/>
      <point x="230" y="662"/>
      <point x="148" y="548"/>
      <point x="148" y="380" type="curve" smooth="yes"/>
      <point x="148" y="273"/>
      <point x="178" y="203"/>
      <point x="214" y="142" type="curve"/>
      <point x="214" y="138" type="line"/>
      <point x="138" y="138" type="line"/>
    </contour>
    <component base="tonos.cap" xOffset="-210"/>
  </outline>
</glyph>
<glyph name="Gamma" format="1">
	<unicode hex="0393"/>
	<advance width="600"/>
	<outline>
		<contour>
			<point x="98" y="0" type="line"/>
			<point x="270" y="0" type="line"/>
			<point x="270" y="506" type="line"/>
			<point x="538" y="506" type="line"/>
			<point x="538" y="650" type="line"/>
			<point x="98" y="650" type="line"/>
		</contour>
	</outline>
</glyph>
<glyph name="Delta" format="1">
  <advance width="600"/>
  <unicode hex="0394"/>
  <outline>
    <contour>
      <point x="26" y="0" type="line"/>
      <point x="574" y="0" type="line"/>
      <point x="574" y="104" type="line"/>
      <point x="404" y="650" type="line"/>
      <point x="196" y="650" type="line"/>
      <point x="26" y="104" type="line"/>
    </contour>
    <contour>
      <point x="210" y="144" type="line"/>
      <point x="249" y="316" type="line"/>
      <point x="263" y="378"/>
      <point x="280" y="456"/>
      <point x="294" y="522" type="curve"/>
      <point x="298" y="522" type="line"/>
      <point x="312" y="456"/>
      <point x="330" y="378"/>
      <point x="345" y="316" type="curve" smooth="yes"/>
      <point x="386" y="144" type="line"/>
    </contour>
  </outline>
</glyph>
<glyph name="Phi" format="1">
  <advance width="600"/>
  <unicode hex="03A6"/>
  <outline>
    <contour>
      <point x="274" y="60" type="curve"/>
      <point x="326" y="60" type="line" smooth="yes"/>
      <point x="482" y="60"/>
      <point x="588" y="154"/>
      <point x="588" y="328" type="curve" smooth="yes"/>
      <point x="588" y="502"/>
      <point x="482" y="592"/>
      <point x="326" y="592" type="curve" smooth="yes"/>
      <point x="274" y="592" type="line" smooth="yes"/>
      <point x="118" y="592"/>
      <point x="12" y="502"/>
      <point x="12" y="328" type="curve" smooth="yes"/>
      <point x="12" y="154"/>
      <point x="118" y="60"/>
    </contour>
    <contour>
      <point x="264" y="188" type="line" smooth="yes"/>
      <point x="204" y="188"/>
      <point x="162" y="242"/>
      <point x="162" y="328" type="curve" smooth="yes"/>
      <point x="162" y="414"/>
      <point x="204" y="464"/>
      <point x="264" y="464" type="curve" smooth="yes"/>
      <point x="336" y="464" type="line" smooth="yes"/>
      <point x="396" y="464"/>
      <point x="438" y="414"/>
      <point x="438" y="328" type="curve" smooth="yes"/>
      <point x="438" y="242"/>
      <point x="396" y="188"/>
      <point x="336" y="188" type="curve" smooth="yes"/>
    </contour>
    <contour>
      <point x="234" y="-22" type="line"/>
      <point x="366" y="-22" type="line"/>
      <point x="366" y="672" type="line"/>
      <point x="234" y="672" type="line"/>
    </contour>
  </outline>
</glyph>
<glyph name="Psi" format="1">
  <advance width="600"/>
  <unicode hex="03A8"/>
  <outline>
    <contour>
      <point x="270" y="208" type="curve"/>
      <point x="330" y="208" type="line" smooth="yes"/>
      <point x="489" y="208"/>
      <point x="588" y="284"/>
      <point x="588" y="440" type="curve" smooth="yes"/>
      <point x="588" y="650" type="line"/>
      <point x="430" y="650" type="line"/>
      <point x="430" y="450" type="line" smooth="yes"/>
      <point x="430" y="374"/>
      <point x="398" y="342"/>
      <point x="340" y="342" type="curve" smooth="yes"/>
      <point x="260" y="342" type="line" smooth="yes"/>
      <point x="202" y="342"/>
      <point x="170" y="374"/>
      <point x="170" y="450" type="curve" smooth="yes"/>
      <point x="170" y="650" type="line"/>
      <point x="12" y="650" type="line"/>
      <point x="12" y="440" type="line" smooth="yes"/>
      <point x="12" y="284"/>
      <point x="111" y="208"/>
    </contour>
    <contour>
      <point x="230" y="0" type="line"/>
      <point x="370" y="0" type="line"/>
      <point x="370" y="650" type="line"/>
      <point x="230" y="650" type="line"/>
    </contour>
  </outline>
</glyph>
<glyph name="beta" format="1">
  <advance width="600"/>
  <unicode hex="03B2"/>
  <outline>
    <contour>
      <point x="64" y="-176" type="line"/>
      <point x="238" y="-176" type="line"/>
      <point x="234" y="-102"/>
      <point x="230" y="-26"/>
      <point x="226" y="52" type="curve"/>
      <point x="273" y="3"/>
      <point x="322" y="-12"/>
      <point x="368" y="-12" type="curve" smooth="yes"/>
      <point x="460" y="-12"/>
      <point x="564" y="51"/>
      <point x="564" y="202" type="curve" smooth="yes"/>
      <point x="564" y="292"/>
      <point x="505" y="360"/>
      <point x="438" y="376" type="curve"/>
      <point x="438" y="380" type="line"/>
      <point x="488" y="412"/>
      <point x="514" y="458"/>
      <point x="514" y="523" type="curve" smooth="yes"/>
      <point x="514" y="651"/>
      <point x="403" y="708"/>
      <point x="290" y="708" type="curve" smooth="yes"/>
      <point x="134" y="708"/>
      <point x="64" y="602"/>
      <point x="64" y="466" type="curve" smooth="yes"/>
    </contour>
    <contour>
      <point x="316" y="128" type="curve" smooth="yes"/>
      <point x="288" y="128"/>
      <point x="257" y="140"/>
      <point x="224" y="183" type="curve"/>
      <point x="224" y="272"/>
      <point x="227" y="359"/>
      <point x="230" y="448" type="curve" smooth="yes"/>
      <point x="233" y="528"/>
      <point x="250" y="574"/>
      <point x="290" y="574" type="curve" smooth="yes"/>
      <point x="321" y="574"/>
      <point x="350" y="552"/>
      <point x="350" y="506" type="curve" smooth="yes"/>
      <point x="350" y="454"/>
      <point x="333" y="417"/>
      <point x="276" y="410" type="curve"/>
      <point x="296" y="286" type="line"/>
      <point x="306" y="290"/>
      <point x="318" y="292"/>
      <point x="332" y="292" type="curve" smooth="yes"/>
      <point x="374" y="292"/>
      <point x="396" y="256"/>
      <point x="396" y="214" type="curve" smooth="yes"/>
      <point x="396" y="153"/>
      <point x="359" y="128"/>
    </contour>
  </outline>
</glyph>
<glyph name="gamma" format="1">
  <advance width="600"/>
  <unicode hex="03B3"/>
  <outline>
    <contour>
      <point x="204" y="-176" type="curve"/>
      <point x="382" y="-176" type="line"/>
      <point x="382" y="-120"/>
      <point x="380" y="-48"/>
      <point x="368" y="16" type="curve"/>
      <point x="502" y="221"/>
      <point x="540" y="330"/>
      <point x="570" y="500" type="curve"/>
      <point x="400" y="500" type="line"/>
      <point x="394" y="386"/>
      <point x="369" y="291"/>
      <point x="322" y="193" type="curve"/>
      <point x="318" y="193" type="line"/>
      <point x="280" y="331"/>
      <point x="225" y="451"/>
      <point x="186" y="512" type="curve"/>
      <point x="10" y="476" type="line"/>
      <point x="122" y="315"/>
      <point x="212" y="78"/>
      <point x="212" y="-34" type="curve" smooth="yes"/>
      <point x="212" y="-108"/>
      <point x="210" y="-136"/>
    </contour>
  </outline>
</glyph>
<glyph name="delta" format="1">
  <advance width="600"/>
  <unicode hex="03B4"/>
  <outline>
    <contour>
      <point x="296" y="-12" type="curve" smooth="yes"/>
      <point x="455" y="-12"/>
      <point x="552" y="84"/>
      <point x="552" y="224" type="curve" smooth="yes"/>
      <point x="552" y="328"/>
      <point x="508" y="384"/>
      <point x="404" y="450" type="curve" smooth="yes"/>
      <point x="322" y="503"/>
      <point x="258" y="536"/>
      <point x="258" y="564" type="curve" smooth="yes"/>
      <point x="258" y="576"/>
      <point x="269" y="582"/>
      <point x="294" y="582" type="curve" smooth="yes"/>
      <point x="350" y="582"/>
      <point x="424" y="563"/>
      <point x="492" y="541" type="curve"/>
      <point x="530" y="667" type="line"/>
      <point x="462" y="689"/>
      <point x="374" y="708"/>
      <point x="294" y="708" type="curve" smooth="yes"/>
      <point x="158" y="708"/>
      <point x="94" y="650"/>
      <point x="94" y="582" type="curve" smooth="yes"/>
      <point x="94" y="479"/>
      <point x="183" y="423"/>
      <point x="253" y="378" type="curve" smooth="yes"/>
      <point x="324" y="333"/>
      <point x="386" y="295"/>
      <point x="386" y="226" type="curve" smooth="yes"/>
      <point x="386" y="150"/>
      <point x="346" y="126"/>
      <point x="300" y="126" type="curve" smooth="yes"/>
      <point x="251" y="126"/>
      <point x="210" y="157"/>
      <point x="210" y="220" type="curve" smooth="yes"/>
      <point x="210" y="292"/>
      <point x="253" y="328"/>
      <point x="317" y="342" type="curve"/>
      <point x="240" y="434" type="line"/>
      <point x="146" y="400"/>
      <point x="48" y="336"/>
      <point x="48" y="218" type="curve" smooth="yes"/>
      <point x="48" y="74"/>
      <point x="158" y="-12"/>
    </contour>
  </outline>
</glyph>
<glyph name="epsilon" format="1">
	<unicode hex="03B5"/>
	<advance width="600"/>
	<outline>
		<contour>
			<point x="334" y="-12" type="curve" smooth="yes"/>
			<point x="405" y="-12"/>
			<point x="473" y="-1"/>
			<point x="550" y="52" type="curve"/>
			<point x="484" y="160" type="line"/>
			<point x="437" y="127"/>
			<point x="383" y="118"/>
			<point x="350" y="118" type="curve" smooth="yes"/>
			<point x="262" y="118"/>
			<point x="230" y="134"/>
			<point x="230" y="162" type="curve" smooth="yes"/>
			<point x="230" y="190"/>
			<point x="256" y="198"/>
			<point x="318" y="198" type="curve" smooth="yes"/>
			<point x="346" y="198"/>
			<point x="378" y="196"/>
			<point x="407" y="194" type="curve"/>
			<point x="407" y="314" type="line"/>
			<point x="384" y="312"/>
			<point x="356" y="310"/>
			<point x="334" y="310" type="curve" smooth="yes"/>
			<point x="281" y="310"/>
			<point x="250" y="318"/>
			<point x="250" y="342" type="curve" smooth="yes"/>
			<point x="250" y="364"/>
			<point x="274" y="382"/>
			<point x="346" y="382" type="curve" smooth="yes"/>
			<point x="391" y="382"/>
			<point x="439" y="371"/>
			<point x="480" y="344" type="curve"/>
			<point x="542" y="454" type="line"/>
			<point x="483" y="492"/>
			<point x="405" y="512"/>
			<point x="336" y="512" type="curve" smooth="yes"/>
			<point x="188" y="512"/>
			<point x="82" y="469"/>
			<point x="82" y="366" type="curve" smooth="yes"/>
			<point x="82" y="328"/>
			<point x="113" y="284"/>
			<point x="177" y="264" type="curve"/>
			<point x="177" y="260" type="line"/>
			<point x="104" y="241"/>
			<point x="62" y="210"/>
			<point x="62" y="144" type="curve" smooth="yes"/>
			<point x="62" y="38"/>
			<point x="174" y="-12"/>
		</contour>
		<contour>
			<point name="aboveLC" x="330" y="520" type="move"/>
		</contour>
	</outline>
</glyph>
<glyph name="zeta" format="1">
  <advance width="600"/>
  <unicode hex="03B6"/>
  <outline>
    <contour>
      <point x="476" y="-188" type="line"/>
      <point x="520" y="-120"/>
      <point x="538" y="-48"/>
      <point x="538" y="-12" type="curve" smooth="yes"/>
      <point x="538" y="68"/>
      <point x="495" y="102"/>
      <point x="378" y="126" type="curve" smooth="yes"/>
      <point x="272" y="147"/>
      <point x="250" y="172"/>
      <point x="250" y="240" type="curve" smooth="yes"/>
      <point x="250" y="332"/>
      <point x="350" y="486"/>
      <point x="522" y="562" type="curve"/>
      <point x="528" y="562" type="line"/>
      <point x="528" y="696" type="line"/>
      <point x="106" y="696" type="line"/>
      <point x="106" y="562" type="line"/>
      <point x="177" y="569"/>
      <point x="296" y="570"/>
      <point x="340" y="572" type="curve"/>
      <point x="158" y="458"/>
      <point x="74" y="344"/>
      <point x="74" y="230" type="curve" smooth="yes"/>
      <point x="74" y="64"/>
      <point x="179" y="14"/>
      <point x="278" y="-8" type="curve" smooth="yes"/>
      <point x="363" y="-27"/>
      <point x="388" y="-34"/>
      <point x="388" y="-60" type="curve" smooth="yes"/>
      <point x="388" y="-85"/>
      <point x="368" y="-110"/>
      <point x="342" y="-146" type="curve"/>
    </contour>
  </outline>
</glyph>
<glyph name="iota" format="1">
  <advance width="600"/>
  <unicode hex="03B9"/>
  <outline>
    <contour>
      <point x="276" y="522" type="move" name="aboveLC"/>
    </contour>
    <contour>
      <point x="390" y="-12" type="curve" smooth="yes"/>
      <point x="463" y="-12"/>
      <point x="502" y="-1"/>
      <point x="538" y="14" type="curve"/>
      <point x="508" y="142" type="line"/>
      <point x="484" y="132"/>
      <point x="454" y="126"/>
      <point x="436" y="126" type="curve" smooth="yes"/>
      <point x="379" y="126"/>
      <point x="352" y="143"/>
      <point x="352" y="200" type="curve" smooth="yes"/>
      <point x="352" y="264"/>
      <point x="360" y="400"/>
      <point x="364" y="500" type="curve"/>
      <point x="190" y="500" type="line"/>
      <point x="190" y="206" type="line" smooth="yes"/>
      <point x="190" y="76"/>
      <point x="233" y="-12"/>
    </contour>
  </outline>
</glyph>
<glyph name="nu" format="1">
  <advance width="600"/>
  <unicode hex="03BD"/>
  <outline>
    <contour>
      <point x="208" y="0" type="curve"/>
      <point x="370" y="0" type="line"/>
      <point x="486" y="191"/>
      <point x="535" y="322"/>
      <point x="566" y="500" type="curve"/>
      <point x="396" y="500" type="line"/>
      <point x="388" y="392"/>
      <point x="367" y="285"/>
      <point x="321" y="175" type="curve"/>
      <point x="317" y="175" type="line"/>
      <point x="300" y="270"/>
      <point x="241" y="426"/>
      <point x="192" y="512" type="curve"/>
      <point x="16" y="476" type="line"/>
      <point x="95" y="354"/>
      <point x="182" y="186"/>
    </contour>
  </outline>
</glyph>
<glyph name="xi" format="1">
  <advance width="600"/>
  <unicode hex="03BE"/>
  <outline>
    <contour>
      <point x="476" y="-188" type="line"/>
      <point x="522" y="-118"/>
      <point x="538" y="-48"/>
      <point x="538" y="-12" type="curve" smooth="yes"/>
      <point x="538" y="68"/>
      <point x="514" y="101"/>
      <point x="388" y="126" type="curve" smooth="yes"/>
      <point x="286" y="146"/>
      <point x="250" y="154"/>
      <point x="250" y="212" type="curve" smooth="yes"/>
      <point x="250" y="260"/>
      <point x="299" y="296"/>
      <point x="372" y="296" type="curve" smooth="yes"/>
      <point x="407" y="296"/>
      <point x="439" y="296"/>
      <point x="478" y="286" type="curve"/>
      <point x="478" y="418" type="line"/>
      <point x="443" y="408"/>
      <point x="419" y="408"/>
      <point x="382" y="408" type="curve" smooth="yes"/>
      <point x="318" y="408"/>
      <point x="290" y="449"/>
      <point x="290" y="486" type="curve" smooth="yes"/>
      <point x="290" y="532"/>
      <point x="326" y="562"/>
      <point x="389" y="562" type="curve" smooth="yes"/>
      <point x="528" y="562" type="line"/>
      <point x="528" y="696" type="line"/>
      <point x="46" y="696" type="line"/>
      <point x="46" y="562" type="line"/>
      <point x="98" y="568"/>
      <point x="122" y="570"/>
      <point x="154" y="572" type="curve"/>
      <point x="130" y="552"/>
      <point x="118" y="518"/>
      <point x="118" y="492" type="curve" smooth="yes"/>
      <point x="118" y="436"/>
      <point x="152" y="388"/>
      <point x="215" y="364" type="curve"/>
      <point x="215" y="360" type="line"/>
      <point x="139" y="332"/>
      <point x="74" y="266"/>
      <point x="74" y="184" type="curve" smooth="yes"/>
      <point x="74" y="60"/>
      <point x="165" y="17"/>
      <point x="278" y="-8" type="curve" smooth="yes"/>
      <point x="363" y="-27"/>
      <point x="388" y="-34"/>
      <point x="388" y="-60" type="curve" smooth="yes"/>
      <point x="388" y="-85"/>
      <point x="368" y="-110"/>
      <point x="342" y="-146" type="curve"/>
    </contour>
  </outline>
</glyph>
<glyph name="rho" format="1">
  <advance width="600"/>
  <unicode hex="03C1"/>
  <outline>
    <contour>
      <point x="64" y="-176" type="line"/>
      <point x="238" y="-176" type="line"/>
      <point x="234" y="-108"/>
      <point x="230" y="-34"/>
      <point x="226" y="38" type="curve"/>
      <point x="258" y="-1"/>
      <point x="306" y="-12"/>
      <point x="346" y="-12" type="curve" smooth="yes"/>
      <point x="454" y="-12"/>
      <point x="558" y="86"/>
      <point x="558" y="258" type="curve" smooth="yes"/>
      <point x="558" y="420"/>
      <point x="465" y="512"/>
      <point x="314" y="512" type="curve" smooth="yes"/>
      <point x="170" y="512"/>
      <point x="64" y="428"/>
      <point x="64" y="233" type="curve" smooth="yes"/>
    </contour>
    <contour>
      <point x="304" y="128" type="curve" smooth="yes"/>
      <point x="277" y="128"/>
      <point x="251" y="133"/>
      <point x="226" y="158" type="curve"/>
      <point x="226" y="252" type="line" smooth="yes"/>
      <point x="226" y="322"/>
      <point x="258" y="372"/>
      <point x="308" y="372" type="curve" smooth="yes"/>
      <point x="357" y="372"/>
      <point x="382" y="338"/>
      <point x="382" y="256" type="curve" smooth="yes"/>
      <point x="382" y="160"/>
      <point x="346" y="128"/>
    </contour>
  </outline>
</glyph>
<glyph name="sigma.end" format="1">
  <advance width="600"/>
  <unicode hex="03C2"/>
  <outline>
    <contour>
      <point x="469" y="-188" type="line"/>
      <point x="514" y="-120"/>
      <point x="532" y="-48"/>
      <point x="532" y="-12" type="curve" smooth="yes"/>
      <point x="532" y="76"/>
      <point x="496" y="112"/>
      <point x="368" y="142" type="curve" smooth="yes"/>
      <point x="282" y="162"/>
      <point x="242" y="188"/>
      <point x="242" y="258" type="curve" smooth="yes"/>
      <point x="242" y="328"/>
      <point x="297" y="374"/>
      <point x="374" y="374" type="curve" smooth="yes"/>
      <point x="403" y="374"/>
      <point x="429" y="370"/>
      <point x="466" y="340" type="curve"/>
      <point x="544" y="446" type="line"/>
      <point x="502" y="488"/>
      <point x="436" y="512"/>
      <point x="362" y="512" type="curve" smooth="yes"/>
      <point x="209" y="512"/>
      <point x="66" y="418"/>
      <point x="66" y="258" type="curve" smooth="yes"/>
      <point x="66" y="90"/>
      <point x="188" y="32"/>
      <point x="298" y="4" type="curve" smooth="yes"/>
      <point x="360" y="-12"/>
      <point x="382" y="-26"/>
      <point x="382" y="-58" type="curve" smooth="yes"/>
      <point x="382" y="-82"/>
      <point x="360" y="-110"/>
      <point x="334" y="-146" type="curve"/>
    </contour>
  </outline>
</glyph>
<glyph name="chi" format="1">
	<unicode hex="03C7"/>
	<advance width="600"/>
	<outline>
		<contour>
			<point x="214" y="-188" type="line"/>
			<point x="306" y="30" type="line"/>
			<point x="310" y="30" type="line"/>
			<point x="418" y="-188" type="line"/>
			<point x="588" y="-152" type="line"/>
			<point x="392" y="170" type="line"/>
			<point x="562" y="500" type="line"/>
			<point x="384" y="500" type="line"/>
			<point x="310" y="316" type="line"/>
			<point x="306" y="316" type="line"/>
			<point x="204" y="512" type="line"/>
			<point x="34" y="476" type="line"/>
			<point x="223" y="166" type="line"/>
			<point x="36" y="-176" type="line"/>
		</contour>
	</outline>
</glyph>
<glyph name="omega" format="1">
  <advance width="600"/>
  <unicode hex="03C9"/>
  <outline>
    <contour>
      <point x="198" y="-12" type="curve" smooth="yes"/>
      <point x="240" y="-12"/>
      <point x="274" y="7"/>
      <point x="296" y="64" type="curve"/>
      <point x="300" y="64" type="line"/>
      <point x="322" y="7"/>
      <point x="364" y="-12"/>
      <point x="408" y="-12" type="curve" smooth="yes"/>
      <point x="522" y="-12"/>
      <point x="582" y="92"/>
      <point x="582" y="266" type="curve" smooth="yes"/>
      <point x="582" y="364"/>
      <point x="555" y="443"/>
      <point x="514" y="512" type="curve"/>
      <point x="360" y="456" type="line"/>
      <point x="406" y="378"/>
      <point x="418" y="327"/>
      <point x="418" y="254" type="curve" smooth="yes"/>
      <point x="418" y="173"/>
      <point x="404" y="126"/>
      <point x="384" y="126" type="curve" smooth="yes"/>
      <point x="361" y="126"/>
      <point x="354" y="148"/>
      <point x="354" y="208" type="curve" smooth="yes"/>
      <point x="354" y="256"/>
      <point x="360" y="280"/>
      <point x="368" y="340" type="curve"/>
      <point x="228" y="340" type="line"/>
      <point x="236" y="280"/>
      <point x="242" y="256"/>
      <point x="242" y="208" type="curve" smooth="yes"/>
      <point x="242" y="156"/>
      <point x="232" y="126"/>
      <point x="206" y="126" type="curve" smooth="yes"/>
      <point x="180" y="126"/>
      <point x="172" y="170"/>
      <point x="172" y="228" type="curve" smooth="yes"/>
      <point x="172" y="302"/>
      <point x="196" y="369"/>
      <point x="244" y="452" type="curve"/>
      <point x="90" y="512" type="line"/>
      <point x="47" y="440"/>
      <point x="18" y="336"/>
      <point x="18" y="262" type="curve" smooth="yes"/>
      <point x="18" y="86"/>
      <point x="85" y="-12"/>
    </contour>
    <contour>
      <point x="300" y="520" type="move" name="aboveLC"/>
    </contour>
    <contour>
      <point x="300" y="-20" type="move" name="belowLC"/>
    </contour>
  </outline>
</glyph>
<glyph name="stigma" format="1">
  <advance width="600"/>
  <unicode hex="03DB"/>
  <outline>
    <contour>
      <point x="468" y="-188" type="line"/>
      <point x="514" y="-120"/>
      <point x="532" y="-48"/>
      <point x="532" y="-12" type="curve" smooth="yes"/>
      <point x="532" y="76"/>
      <point x="496" y="112"/>
      <point x="368" y="142" type="curve" smooth="yes"/>
      <point x="273" y="164"/>
      <point x="244" y="197"/>
      <point x="244" y="244" type="curve" smooth="yes"/>
      <point x="244" y="330"/>
      <point x="294" y="362"/>
      <point x="366" y="362" type="curve" smooth="yes"/>
      <point x="411" y="362"/>
      <point x="481" y="362"/>
      <point x="538" y="360" type="curve"/>
      <point x="538" y="500" type="line"/>
      <point x="352" y="500" type="line" smooth="yes"/>
      <point x="194" y="500"/>
      <point x="68" y="416"/>
      <point x="68" y="244" type="curve" smooth="yes"/>
      <point x="68" y="100"/>
      <point x="186" y="33"/>
      <point x="298" y="4" type="curve" smooth="yes"/>
      <point x="372" y="-16"/>
      <point x="382" y="-33"/>
      <point x="382" y="-62" type="curve" smooth="yes"/>
      <point x="382" y="-81"/>
      <point x="364" y="-110"/>
      <point x="336" y="-146" type="curve"/>
    </contour>
  </outline>
</glyph>
<glyph name="Nje" format="1">
  <advance width="600"/>
  <unicode hex="040A"/>
  <outline>
    <contour>
      <point x="26" y="0" type="line"/>
      <point x="178" y="0" type="line"/>
      <point x="178" y="258" type="line"/>
      <point x="271" y="258" type="line"/>
      <point x="271" y="408" type="line"/>
      <point x="178" y="408" type="line"/>
      <point x="178" y="650" type="line"/>
      <point x="26" y="650" type="line"/>
    </contour>
    <contour>
      <point x="238" y="0" type="line"/>
      <point x="394" y="0" type="line" smooth="yes"/>
      <point x="497" y="0"/>
      <point x="584" y="54"/>
      <point x="584" y="218" type="curve" smooth="yes"/>
      <point x="584" y="366"/>
      <point x="504" y="424"/>
      <point x="398" y="424" type="curve" smooth="yes"/>
      <point x="390" y="424" type="line"/>
      <point x="390" y="650" type="line"/>
      <point x="238" y="650" type="line"/>
    </contour>
    <contour>
      <point x="390" y="136" type="line"/>
      <point x="390" y="288" type="line"/>
      <point x="396" y="288" type="line" smooth="yes"/>
      <point x="426" y="288"/>
      <point x="440" y="270"/>
      <point x="440" y="216" type="curve" smooth="yes"/>
      <point x="440" y="152"/>
      <point x="423" y="136"/>
      <point x="396" y="136" type="curve" smooth="yes"/>
    </contour>
  </outline>
</glyph>
<glyph name="De" format="1">
  <advance width="600"/>
  <unicode hex="0414"/>
  <outline>
    <contour>
      <point x="22" y="-188" type="line"/>
      <point x="176" y="-188" type="line"/>
      <point x="176" y="0" type="line"/>
      <point x="424" y="0" type="line"/>
      <point x="424" y="-188" type="line"/>
      <point x="578" y="-188" type="line"/>
      <point x="592" y="36" type="line"/>
      <point x="592" y="144" type="line"/>
      <point x="8" y="144" type="line"/>
      <point x="8" y="36" type="line"/>
    </contour>
    <contour>
      <point x="339" y="0" type="line"/>
      <point x="511" y="0" type="line"/>
      <point x="511" y="650" type="line"/>
      <point x="153" y="650" type="line"/>
      <point x="138" y="532"/>
      <point x="128" y="474"/>
      <point x="110" y="366" type="curve" smooth="yes"/>
      <point x="85" y="215"/>
      <point x="62" y="152"/>
      <point x="37" y="144" type="curve"/>
      <point x="59" y="36" type="line"/>
      <point x="169" y="36"/>
      <point x="230" y="148"/>
      <point x="262" y="344" type="curve" smooth="yes"/>
      <point x="274" y="418"/>
      <point x="276" y="438"/>
      <point x="285" y="506" type="curve"/>
      <point x="339" y="506" type="line"/>
    </contour>
  </outline>
</glyph>
<glyph name="Ze" format="1">
  <advance width="600"/>
  <unicode hex="0417"/>
  <outline>
    <contour>
      <point x="290" y="-12" type="curve" smooth="yes"/>
      <point x="445" y="-12"/>
      <point x="562" y="57"/>
      <point x="562" y="194" type="curve" smooth="yes"/>
      <point x="562" y="268"/>
      <point x="516" y="324"/>
      <point x="455" y="342" type="curve"/>
      <point x="455" y="346" type="line"/>
      <point x="506" y="372"/>
      <point x="532" y="424"/>
      <point x="532" y="484" type="curve" smooth="yes"/>
      <point x="532" y="594"/>
      <point x="449" y="662"/>
      <point x="284" y="662" type="curve" smooth="yes"/>
      <point x="201" y="662"/>
      <point x="122" y="634"/>
      <point x="58" y="578" type="curve"/>
      <point x="144" y="464" type="line"/>
      <point x="191" y="496"/>
      <point x="227" y="514"/>
      <point x="278" y="514" type="curve" smooth="yes"/>
      <point x="329" y="514"/>
      <point x="364" y="499"/>
      <point x="364" y="455" type="curve" smooth="yes"/>
      <point x="364" y="419"/>
      <point x="340" y="396"/>
      <point x="270" y="396" type="curve" smooth="yes"/>
      <point x="198" y="396" type="line"/>
      <point x="198" y="270" type="line"/>
      <point x="290" y="270" type="line" smooth="yes"/>
      <point x="364" y="270"/>
      <point x="394" y="252"/>
      <point x="394" y="208" type="curve" smooth="yes"/>
      <point x="394" y="162"/>
      <point x="353" y="136"/>
      <point x="288" y="136" type="curve" smooth="yes"/>
      <point x="233" y="136"/>
      <point x="178" y="156"/>
      <point x="130" y="198" type="curve"/>
      <point x="40" y="80" type="line"/>
      <point x="112" y="14"/>
      <point x="205" y="-12"/>
    </contour>
    <contour>
      <point x="320" y="670" type="move" name="aboveUC"/>
    </contour>
  </outline>
</glyph>
<glyph name="El" format="1">
  <advance width="600"/>
  <unicode hex="041B"/>
  <outline>
    <contour>
      <point x="76" y="-12" type="curve" smooth="yes"/>
      <point x="182" y="-12"/>
      <point x="231" y="52"/>
      <point x="276" y="278" type="curve" smooth="yes"/>
      <point x="293" y="361"/>
      <point x="302" y="424"/>
      <point x="314" y="506" type="curve"/>
      <point x="370" y="506" type="line"/>
      <point x="370" y="0" type="line"/>
      <point x="542" y="0" type="line"/>
      <point x="542" y="650" type="line"/>
      <point x="182" y="650" type="line"/>
      <point x="159" y="525"/>
      <point x="146" y="422"/>
      <point x="118" y="296" type="curve" smooth="yes"/>
      <point x="88" y="160"/>
      <point x="76" y="148"/>
      <point x="50" y="148" type="curve" smooth="yes"/>
      <point x="38" y="148"/>
      <point x="30" y="150"/>
      <point x="22" y="152" type="curve"/>
      <point x="-8" y="-2" type="line"/>
      <point x="14" y="-10"/>
      <point x="36" y="-12"/>
    </contour>
  </outline>
</glyph>
<glyph name="Ocyr" format="1">
	<unicode hex="041E"/>
	<advance width="600"/>
	<outline>
		<component base="O"/>
		<contour>
			<point name="aboveUC" x="300" y="670" type="move"/>
		</contour>
	</outline>
</glyph>
<glyph name="Hard" format="1">
  <advance width="600"/>
  <unicode hex="042A"/>
  <outline>
    <contour>
      <point x="152" y="0" type="line"/>
      <point x="344" y="0" type="line" smooth="yes"/>
      <point x="465" y="0"/>
      <point x="568" y="54"/>
      <point x="568" y="218" type="curve" smooth="yes"/>
      <point x="568" y="363"/>
      <point x="459" y="424"/>
      <point x="340" y="424" type="curve" smooth="yes"/>
      <point x="324" y="424" type="line"/>
      <point x="324" y="650" type="line"/>
      <point x="28" y="650" type="line"/>
      <point x="28" y="506" type="line"/>
      <point x="152" y="506" type="line"/>
    </contour>
    <contour>
      <point x="324" y="136" type="line"/>
      <point x="324" y="288" type="line"/>
      <point x="332" y="288" type="line" smooth="yes"/>
      <point x="382" y="288"/>
      <point x="406" y="262"/>
      <point x="406" y="216" type="curve" smooth="yes"/>
      <point x="406" y="158"/>
      <point x="380" y="136"/>
      <point x="336" y="136" type="curve" smooth="yes"/>
    </contour>
  </outline>
</glyph>
<glyph name="Yu" format="1">
  <advance width="600"/>
  <unicode hex="042E"/>
  <outline>
    <contour>
      <point x="26" y="0" type="line"/>
      <point x="178" y="0" type="line"/>
      <point x="178" y="258" type="line"/>
      <point x="306" y="258" type="line"/>
      <point x="306" y="408" type="line"/>
      <point x="178" y="408" type="line"/>
      <point x="178" y="650" type="line"/>
      <point x="26" y="650" type="line"/>
    </contour>
    <contour>
      <point x="388" y="-12" type="curve" smooth="yes"/>
      <point x="517" y="-12"/>
      <point x="586" y="94"/>
      <point x="586" y="328" type="curve" smooth="yes"/>
      <point x="586" y="562"/>
      <point x="517" y="662"/>
      <point x="388" y="662" type="curve" smooth="yes"/>
      <point x="284" y="662"/>
      <point x="216" y="562"/>
      <point x="216" y="328" type="curve" smooth="yes"/>
      <point x="216" y="94"/>
      <point x="284" y="-12"/>
    </contour>
    <contour>
      <point x="388" y="136" type="curve" smooth="yes"/>
      <point x="366" y="136"/>
      <point x="354" y="170"/>
      <point x="354" y="328" type="curve" smooth="yes"/>
      <point x="354" y="486"/>
      <point x="366" y="514"/>
      <point x="388" y="514" type="curve" smooth="yes"/>
      <point x="411" y="514"/>
      <point x="422" y="486"/>
      <point x="422" y="328" type="curve" smooth="yes"/>
      <point x="422" y="170"/>
      <point x="411" y="136"/>
    </contour>
    <contour>
      <point x="320" y="670" type="move" name="aboveUC"/>
    </contour>
  </outline>
</glyph>
<glyph name="ve" format="1">
  <advance width="600"/>
  <unicode hex="0432"/>
  <outline>
    <contour>
      <point x="76" y="0" type="line"/>
      <point x="328" y="0" type="line" smooth="yes"/>
      <point x="446" y="0"/>
      <point x="550" y="40"/>
      <point x="550" y="144" type="curve" smooth="yes"/>
      <point x="550" y="210"/>
      <point x="512" y="244"/>
      <point x="448" y="260" type="curve"/>
      <point x="448" y="264" type="line"/>
      <point x="510" y="281"/>
      <point x="532" y="328"/>
      <point x="532" y="366" type="curve" smooth="yes"/>
      <point x="532" y="469"/>
      <point x="432" y="500"/>
      <point x="314" y="500" type="curve" smooth="yes"/>
      <point x="76" y="500" type="line"/>
    </contour>
    <contour>
      <point x="244" y="310" type="line"/>
      <point x="244" y="388" type="line"/>
      <point x="306" y="388" type="line" smooth="yes"/>
      <point x="351" y="388"/>
      <point x="368" y="372"/>
      <point x="368" y="348" type="curve" smooth="yes"/>
      <point x="368" y="324"/>
      <point x="350" y="310"/>
      <point x="307" y="310" type="curve" smooth="yes"/>
    </contour>
    <contour>
      <point x="244" y="112" type="line"/>
      <point x="244" y="198" type="line"/>
      <point x="320" y="198" type="line" smooth="yes"/>
      <point x="367" y="198"/>
      <point x="384" y="178"/>
      <point x="384" y="156" type="curve" smooth="yes"/>
      <point x="384" y="132"/>
      <point x="369" y="112"/>
      <point x="320" y="112" type="curve" smooth="yes"/>
    </contour>
    <contour>
      <point x="320" y="520" type="move" name="aboveLC"/>
    </contour>
  </outline>
</glyph>
<glyph name="ie" format="1">
	<unicode hex="0435"/>
	<advance width="600"/>
	<outline>
		<component base="e"/>
		<contour>
			<point name="aboveLC" x="310" y="520" type="move"/>
		</contour>
	</outline>
</glyph>
<glyph name="ze" format="1">
  <advance width="600"/>
  <unicode hex="0437"/>
  <outline>
    <contour>
      <point x="278" y="-12" type="curve" smooth="yes"/>
      <point x="432" y="-12"/>
      <point x="550" y="40"/>
      <point x="550" y="144" type="curve" smooth="yes"/>
      <point x="550" y="210"/>
      <point x="519" y="243"/>
      <point x="444" y="260" type="curve"/>
      <point x="444" y="264" type="line"/>
      <point x="515" y="282"/>
      <point x="532" y="328"/>
      <point x="532" y="366" type="curve" smooth="yes"/>
      <point x="532" y="469"/>
      <point x="429" y="512"/>
      <point x="276" y="512" type="curve" smooth="yes"/>
      <point x="197" y="512"/>
      <point x="121" y="494"/>
      <point x="50" y="448" type="curve"/>
      <point x="112" y="338" type="line"/>
      <point x="167" y="373"/>
      <point x="212" y="382"/>
      <point x="264" y="382" type="curve" smooth="yes"/>
      <point x="346" y="382"/>
      <point x="368" y="368"/>
      <point x="368" y="346" type="curve" smooth="yes"/>
      <point x="368" y="322"/>
      <point x="346" y="310"/>
      <point x="306" y="310" type="curve" smooth="yes"/>
      <point x="181" y="310" type="line"/>
      <point x="181" y="198" type="line"/>
      <point x="314" y="198" type="line" smooth="yes"/>
      <point x="362" y="198"/>
      <point x="382" y="188"/>
      <point x="382" y="162" type="curve" smooth="yes"/>
      <point x="382" y="134"/>
      <point x="351" y="118"/>
      <point x="261" y="118" type="curve" smooth="yes"/>
      <point x="220" y="118"/>
      <point x="163" y="133"/>
      <point x="108" y="168" type="curve"/>
      <point x="42" y="60" type="line"/>
      <point x="125" y="3"/>
      <point x="197" y="-12"/>
    </contour>
    <contour>
      <point x="320" y="520" type="move" name="aboveLC"/>
    </contour>
  </outline>
</glyph>
<glyph name="em" format="1">
	<unicode hex="043C"/>
	<advance width="600"/>
	<outline>
		<contour>
			<point x="26" y="0" type="line"/>
			<point x="176" y="0" type="line"/>
			<point x="176" y="92" type="line" smooth="yes"/>
			<point x="176" y="149"/>
			<point x="164" y="266"/>
			<point x="158" y="324" type="curve"/>
			<point x="162" y="324" type="line"/>
			<point x="176" y="280"/>
			<point x="198" y="220"/>
			<point x="212" y="176" type="curve"/>
			<point x="256" y="42" type="line"/>
			<point x="344" y="42" type="line"/>
			<point x="386" y="176" type="line" smooth="yes"/>
			<point x="400" y="220"/>
			<point x="422" y="278"/>
			<point x="436" y="324" type="curve"/>
			<point x="440" y="324" type="line"/>
			<point x="434" y="266"/>
			<point x="422" y="149"/>
			<point x="422" y="92" type="curve" smooth="yes"/>
			<point x="422" y="0" type="line"/>
			<point x="574" y="0" type="line"/>
			<point x="574" y="500" type="line"/>
			<point x="379" y="500" type="line"/>
			<point x="338" y="352" type="line"/>
			<point x="327" y="312"/>
			<point x="314" y="278"/>
			<point x="304" y="244" type="curve"/>
			<point x="300" y="244" type="line"/>
			<point x="290" y="278"/>
			<point x="280" y="312"/>
			<point x="268" y="352" type="curve"/>
			<point x="222" y="500" type="line"/>
			<point x="26" y="500" type="line"/>
		</contour>
		<contour>
			<point name="aboveLC" x="300" y="520" type="move"/>
		</contour>
	</outline>
</glyph>
<glyph name="pe" format="1">
	<unicode hex="043F"/>
	<advance width="600"/>
	<outline>
		<contour>
			<point x="64" y="0" type="line"/>
			<point x="236" y="0" type="line"/>
			<point x="236" y="366" type="line"/>
			<point x="364" y="366" type="line"/>
			<point x="364" y="0" type="line"/>
			<point x="536" y="0" type="line"/>
			<point x="536" y="500" type="line"/>
			<point x="64" y="500" type="line"/>
		</contour>
		<contour>
			<point name="aboveLC" x="300" y="520" type="move"/>
		</contour>
	</outline>
</glyph>
<glyph name="er" format="1">
	<unicode hex="0440"/>
	<advance width="600"/>
	<outline>
		<component base="p"/>
		<contour>
			<point name="aboveLC" x="324" y="520" type="move"/>
		</contour>
	</outline>
</glyph>
<glyph name="che" format="1">
  <advance width="600"/>
  <unicode hex="0447"/>
  <outline>
    <contour>
      <point x="360" y="0" type="line"/>
      <point x="532" y="0" type="line"/>
      <point x="532" y="500" type="line"/>
      <point x="360" y="500" type="line"/>
      <point x="360" y="291" type="line"/>
      <point x="343" y="287"/>
      <point x="327" y="286"/>
      <point x="306" y="286" type="curve" smooth="yes"/>
      <point x="248" y="286"/>
      <point x="226" y="310"/>
      <point x="226" y="363" type="curve" smooth="yes"/>
      <point x="226" y="500" type="line"/>
      <point x="54" y="500" type="line"/>
      <point x="54" y="363" type="line" smooth="yes"/>
      <point x="54" y="208"/>
      <point x="147" y="152"/>
      <point x="268" y="152" type="curve" smooth="yes"/>
      <point x="312" y="152"/>
      <point x="334" y="153"/>
      <point x="360" y="159" type="curve"/>
    </contour>
    <contour>
      <point x="310" y="520" type="move" name="aboveLC"/>
    </contour>
  </outline>
</glyph>
<glyph name="yeru" format="1">
	<unicode hex="044B"/>
	<advance width="600"/>
	<outline>
		<contour>
			<point x="26" y="0" type="line"/>
			<point x="202" y="0" type="line" smooth="yes"/>
			<point x="301" y="0"/>
			<point x="382" y="42"/>
			<point x="382" y="178" type="curve" smooth="yes"/>
			<point x="382" y="308"/>
			<point x="301" y="350"/>
			<point x="202" y="350" type="curve" smooth="yes"/>
			<point x="178" y="350" type="line"/>
			<point x="178" y="500" type="line"/>
			<point x="26" y="500" type="line"/>
		</contour>
		<contour>
			<point x="178" y="130" type="line"/>
			<point x="178" y="224" type="line"/>
			<point x="196" y="224" type="line" smooth="yes"/>
			<point x="224" y="224"/>
			<point x="238" y="208"/>
			<point x="238" y="178" type="curve" smooth="yes"/>
			<point x="238" y="146"/>
			<point x="224" y="130"/>
			<point x="196" y="130" type="curve" smooth="yes"/>
		</contour>
		<contour>
			<point x="422" y="0" type="line"/>
			<point x="574" y="0" type="line"/>
			<point x="574" y="500" type="line"/>
			<point x="422" y="500" type="line"/>
		</contour>
		<contour>
			<point name="aboveLC" x="300" y="520" type="move"/>
		</contour>
	</outline>
</glyph>
<glyph name="lje" format="1">
  <advance width="600"/>
  <unicode hex="0459"/>
  <outline>
    <contour>
      <point x="49" y="-12" type="curve" smooth="yes"/>
      <point x="130" y="-12"/>
      <point x="174" y="42"/>
      <point x="190" y="130" type="curve" smooth="yes"/>
      <point x="204" y="208"/>
      <point x="208" y="286"/>
      <point x="214" y="366" type="curve"/>
      <point x="248" y="366" type="line"/>
      <point x="248" y="0" type="line"/>
      <point x="388" y="0" type="line"/>
      <point x="388" y="500" type="line"/>
      <point x="90" y="500" type="line"/>
      <point x="84" y="394"/>
      <point x="78" y="304"/>
      <point x="64" y="214" type="curve" smooth="yes"/>
      <point x="56" y="160"/>
      <point x="44" y="150"/>
      <point x="32" y="150" type="curve" smooth="yes"/>
      <point x="24" y="150"/>
      <point x="18" y="152"/>
      <point x="12" y="154" type="curve"/>
      <point x="-16" y="0" type="line"/>
      <point x="4" y="-8"/>
      <point x="24" y="-12"/>
    </contour>
    <contour>
      <point x="248" y="0" type="line"/>
      <point x="398" y="0" type="line" smooth="yes"/>
      <point x="501" y="0"/>
      <point x="584" y="42"/>
      <point x="584" y="178" type="curve" smooth="yes"/>
      <point x="584" y="308"/>
      <point x="501" y="350"/>
      <point x="398" y="350" type="curve" smooth="yes"/>
      <point x="388" y="350" type="line"/>
      <point x="388" y="500" type="line"/>
      <point x="248" y="500" type="line"/>
    </contour>
    <contour>
      <point x="388" y="130" type="line"/>
      <point x="388" y="224" type="line"/>
      <point x="392" y="224" type="line" smooth="yes"/>
      <point x="431" y="224"/>
      <point x="450" y="208"/>
      <point x="450" y="178" type="curve" smooth="yes"/>
      <point x="450" y="146"/>
      <point x="431" y="130"/>
      <point x="392" y="130" type="curve" smooth="yes"/>
    </contour>
  </outline>
</glyph>
<glyph name="Yat" format="1">
  <advance width="600"/>
  <unicode hex="0462"/>
  <outline>
    <contour>
      <point x="122" y="0" type="line"/>
      <point x="324" y="0" type="line" smooth="yes"/>
      <point x="464" y="0"/>
      <point x="580" y="50"/>
      <point x="580" y="214" type="curve" smooth="yes"/>
      <point x="580" y="348"/>
      <point x="460" y="394"/>
      <point x="320" y="394" type="curve" smooth="yes"/>
      <point x="294" y="394" type="line"/>
      <point x="294" y="694" type="line"/>
      <point x="122" y="694" type="line"/>
    </contour>
    <contour>
      <point x="294" y="132" type="line"/>
      <point x="294" y="274" type="line"/>
      <point x="312" y="274" type="line" smooth="yes"/>
      <point x="382" y="274"/>
      <point x="412" y="256"/>
      <point x="412" y="208" type="curve" smooth="yes"/>
      <point x="412" y="150"/>
      <point x="378" y="132"/>
      <point x="316" y="132" type="curve" smooth="yes"/>
    </contour>
    <contour>
      <point x="10" y="474" type="line"/>
      <point x="502" y="474" type="line"/>
      <point x="502" y="610" type="line"/>
      <point x="10" y="610" type="line"/>
    </contour>
  </outline>
</glyph>
<glyph name="ghestroke" format="1">
  <advance width="600"/>
  <unicode hex="0493"/>
  <outline>
    <contour>
      <point x="124" y="0" type="line"/>
      <point x="296" y="0" type="line"/>
      <point x="296" y="366" type="line"/>
      <point x="528" y="366" type="line"/>
      <point x="528" y="500" type="line"/>
      <point x="124" y="500" type="line"/>
    </contour>
    <contour>
      <point x="38" y="186" type="line"/>
      <point x="440" y="186" type="line"/>
      <point x="440" y="266" type="line"/>
      <point x="134" y="266" type="line"/>
      <point x="38" y="260" type="line"/>
    </contour>
  </outline>
</glyph>
<glyph name="Zhedescender" format="1">
  <advance width="600"/>
  <unicode hex="0496"/>
  <outline>
    <contour>
      <point x="484" y="-188" type="line"/>
      <point x="598" y="-188" type="line"/>
      <point x="612" y="36" type="line"/>
      <point x="612" y="144" type="line"/>
      <point x="474" y="144" type="line"/>
      <point x="474" y="0" type="line"/>
      <point x="484" y="0" type="line"/>
    </contour>
    <component base="Zhe"/>
  </outline>
</glyph>
<glyph name="zedescender" format="1">
  <advance width="600"/>
  <unicode hex="0499"/>
  <outline>
    <contour>
      <point x="212" y="-172" type="line"/>
      <point x="358" y="-172" type="line"/>
      <point x="378" y="10" type="line"/>
      <point x="206" y="10" type="line"/>
    </contour>
    <component base="ze"/>
  </outline>
</glyph>
<glyph name="kadescender" format="1">
  <advance width="600"/>
  <unicode hex="049B"/>
  <outline>
    <contour>
      <point x="460" y="-172" type="line"/>
      <point x="586" y="-172" type="line"/>
      <point x="602" y="20" type="line"/>
      <point x="602" y="134" type="line"/>
      <point x="430" y="134" type="line"/>
      <point x="430" y="0" type="line"/>
      <point x="460" y="0" type="line"/>
    </contour>
    <component base="ka"/>
  </outline>
</glyph>
<glyph name="Endescender" format="1">
  <advance width="600"/>
  <unicode hex="04A2"/>
  <outline>
    <contour>
      <point x="58" y="0" type="line"/>
      <point x="230" y="0" type="line"/>
      <point x="230" y="258" type="line"/>
      <point x="364" y="258" type="line"/>
      <point x="364" y="0" type="line"/>
      <point x="536" y="0" type="line"/>
      <point x="536" y="650" type="line"/>
      <point x="364" y="650" type="line"/>
      <point x="364" y="408" type="line"/>
      <point x="230" y="408" type="line"/>
      <point x="230" y="650" type="line"/>
      <point x="58" y="650" type="line"/>
    </contour>
    <contour>
      <point x="468" y="-188" type="line"/>
      <point x="598" y="-188" type="line"/>
      <point x="612" y="36" type="line"/>
      <point x="612" y="144" type="line"/>
      <point x="444" y="144" type="line"/>
      <point x="444" y="0" type="line"/>
      <point x="468" y="0" type="line"/>
    </contour>
  </outline>
</glyph>
<glyph name="Esdescender" format="1">
  <advance width="600"/>
  <unicode hex="04AA"/>
  <outline>
    <contour>
      <point x="279" y="-188" type="line"/>
      <point x="433" y="-188" type="line"/>
      <point x="447" y="24" type="line"/>
      <point x="279" y="0" type="line"/>
    </contour>
    <component base="Es"/>
  </outline>
</glyph>
<glyph name="esdescender" format="1">
  <advance width="600"/>
  <unicode hex="04AB"/>
  <outline>
    <contour>
      <point x="266" y="-172" type="line"/>
      <point x="412" y="-172" type="line"/>
      <point x="432" y="10" type="line"/>
      <point x="260" y="10" type="line"/>
    </contour>
    <component base="es"/>
  </outline>
</glyph>
<glyph name="hadescender" format="1">
	<unicode hex="04B3"/>
	<advance width="600"/>
	<outline>
		<contour>
			<point x="422" y="-172" type="line"/>
			<point x="568" y="-172" type="line"/>
			<point x="584" y="20" type="line"/>
			<point x="584" y="134" type="line"/>
			<point x="412" y="134" type="line"/>
			<point x="412" y="0" type="line"/>
			<point x="422" y="0" type="line"/>
		</contour>
		<component base="ha"/>
	</outline>
</glyph>
<glyph name="varia" format="1">
	<unicode hex="1FEF"/>
	<advance width="600"/>
	<outline>
		<component base="variacmb"/>
		<contour>
			<point name="_aboveLC" x="300" y="520" type="move"/>
		</contour>
	</outline>
</glyph>
<glyph name="figuredash" format="1">
  <advance width="600"/>
  <unicode hex="2012"/>
  <outline>
    <contour>
      <point x="80" y="192" type="line"/>
      <point x="520" y="192" type="line"/>
      <point x="520" y="318" type="line"/>
      <point x="80" y="318" type="line"/>
    </contour>
  </outline>
</glyph>
<glyph name="questiondbl" format="1">
  <advance width="600"/>
  <unicode hex="2047"/>
  <outline>
    <contour>
      <point x="68" y="264" type="curve"/>
      <point x="208" y="264" type="line"/>
      <point x="196" y="366"/>
      <point x="304" y="403"/>
      <point x="304" y="546" type="curve" smooth="yes"/>
      <point x="304" y="630"/>
      <point x="234" y="682"/>
      <point x="150" y="682" type="curve" smooth="yes"/>
      <point x="100" y="682"/>
      <point x="46" y="664"/>
      <point x="6" y="626" type="curve"/>
      <point x="80" y="528" type="line"/>
      <point x="94" y="540"/>
      <point x="100" y="544"/>
      <point x="114" y="544" type="curve" smooth="yes"/>
      <point x="127" y="544"/>
      <point x="140" y="534"/>
      <point x="140" y="510" type="curve" smooth="yes"/>
      <point x="140" y="440"/>
      <point x="46" y="382"/>
    </contour>
    <contour>
      <point x="146" y="-12" type="curve" smooth="yes"/>
      <point x="210" y="-12"/>
      <point x="256" y="35"/>
      <point x="256" y="100" type="curve" smooth="yes"/>
      <point x="256" y="163"/>
      <point x="210" y="208"/>
      <point x="146" y="208" type="curve" smooth="yes"/>
      <point x="82" y="208"/>
      <point x="36" y="163"/>
      <point x="36" y="100" type="curve" smooth="yes"/>
      <point x="36" y="35"/>
      <point x="82" y="-12"/>
    </contour>
    <contour>
      <point x="348" y="264" type="curve"/>
      <point x="488" y="264" type="line"/>
      <point x="476" y="366"/>
      <point x="584" y="403"/>
      <point x="584" y="546" type="curve" smooth="yes"/>
      <point x="584" y="630"/>
      <point x="514" y="682"/>
      <point x="430" y="682" type="curve" smooth="yes"/>
      <point x="380" y="682"/>
      <point x="326" y="664"/>
      <point x="286" y="626" type="curve"/>
      <point x="360" y="528" type="line"/>
      <point x="372" y="540"/>
      <point x="380" y="544"/>
      <point x="394" y="544" type="curve" smooth="yes"/>
      <point x="407" y="544"/>
      <point x="420" y="534"/>
      <point x="420" y="510" type="curve" smooth="yes"/>
      <point x="420" y="440"/>
      <point x="326" y="382"/>
    </contour>
    <contour>
      <point x="426" y="-12" type="curve" smooth="yes"/>
      <point x="490" y="-12"/>
      <point x="536" y="35"/>
      <point x="536" y="100" type="curve" smooth="yes"/>
      <point x="536" y="163"/>
      <point x="490" y="208"/>
      <point x="426" y="208" type="curve" smooth="yes"/>
      <point x="362" y="208"/>
      <point x="316" y="163"/>
      <point x="316" y="100" type="curve" smooth="yes"/>
      <point x="316" y="35"/>
      <point x="362" y="-12"/>
    </contour>
  </outline>
</glyph>
<glyph name="franc" format="1">
  <advance width="600"/>
  <unicode hex="20A3"/>
  <outline>
    <contour>
      <point x="120" y="0" type="line"/>
      <point x="292" y="0" type="line"/>
      <point x="292" y="254" type="line"/>
      <point x="500" y="254" type="line"/>
      <point x="500" y="398" type="line"/>
      <point x="292" y="398" type="line"/>
      <point x="292" y="490" type="line"/>
      <point x="539" y="490" type="line"/>
      <point x="539" y="634" type="line"/>
      <point x="120" y="634" type="line"/>
    </contour>
    <contour>
      <point x="46" y="86" type="line"/>
      <point x="428" y="86" type="line"/>
      <point x="428" y="190" type="line"/>
      <point x="122" y="190" type="line"/>
      <point x="46" y="184" type="line"/>
    </contour>
  </outline>
</glyph>
<glyph name="naira" format="1">
  <advance width="600"/>
  <unicode hex="20A6"/>
  <outline>
    <contour>
      <point x="88" y="0" type="line"/>
      <point x="210" y="0" type="line"/>
      <point x="210" y="254" type="line"/>
      <point x="178" y="511" type="line"/>
      <point x="182" y="511" type="line"/>
      <point x="236" y="346" type="line"/>
      <point x="356" y="0" type="line"/>
      <point x="512" y="0" type="line"/>
      <point x="512" y="634" type="line"/>
      <point x="390" y="634" type="line"/>
      <point x="390" y="380" type="line"/>
      <point x="422" y="123" type="line"/>
      <point x="418" y="123" type="line"/>
      <point x="364" y="288" type="line"/>
      <point x="244" y="634" type="line"/>
      <point x="88" y="634" type="line"/>
    </contour>
    <contour>
      <point x="20" y="340" type="line"/>
      <point x="580" y="340" type="line"/>
      <point x="580" y="404" type="line"/>
      <point x="88" y="404" type="line"/>
      <point x="20" y="398" type="line"/>
    </contour>
    <contour>
      <point x="20" y="232" type="line"/>
      <point x="580" y="232" type="line"/>
      <point x="580" y="296" type="line"/>
      <point x="88" y="296" type="line"/>
      <point x="20" y="290" type="line"/>
    </contour>
  </outline>
</glyph>
<glyph name="peseta" format="1">
  <advance width="600"/>
  <unicode hex="20A7"/>
  <outline>
    <contour>
      <point x="88" y="0" type="line"/>
      <point x="250" y="0" type="line"/>
      <point x="250" y="203" type="line"/>
      <point x="284" y="203" type="line" smooth="yes"/>
      <point x="415" y="203"/>
      <point x="531" y="268"/>
      <point x="531" y="414" type="curve" smooth="yes"/>
      <point x="531" y="578"/>
      <point x="419" y="634"/>
      <point x="284" y="634" type="curve" smooth="yes"/>
      <point x="88" y="634" type="line"/>
    </contour>
    <contour>
      <point x="250" y="309" type="line"/>
      <point x="250" y="528" type="line"/>
      <point x="275" y="528" type="line" smooth="yes"/>
      <point x="338" y="528"/>
      <point x="372" y="492"/>
      <point x="372" y="414" type="curve" smooth="yes"/>
      <point x="372" y="350"/>
      <point x="338" y="309"/>
      <point x="275" y="309" type="curve" smooth="yes"/>
    </contour>
    <contour>
      <point x="12" y="366" type="line"/>
      <point x="588" y="366" type="line"/>
      <point x="588" y="470" type="line"/>
      <point x="104" y="470" type="line"/>
      <point x="12" y="464" type="line"/>
    </contour>
  </outline>
</glyph>
<glyph name="won" format="1">
  <advance width="600"/>
  <unicode hex="20A9"/>
  <outline>
    <contour>
      <point x="106" y="0" type="line"/>
      <point x="272" y="0" type="line"/>
      <point x="290" y="288" type="line"/>
      <point x="298" y="475" type="line"/>
      <point x="302" y="475" type="line"/>
      <point x="312" y="288" type="line"/>
      <point x="332" y="0" type="line"/>
      <point x="502" y="0" type="line"/>
      <point x="566" y="634" type="line"/>
      <point x="428" y="634" type="line"/>
      <point x="416" y="270" type="line"/>
      <point x="412" y="118" type="line"/>
      <point x="408" y="118" type="line"/>
      <point x="396" y="270" type="line"/>
      <point x="368" y="594" type="line"/>
      <point x="242" y="594" type="line"/>
      <point x="216" y="270" type="line"/>
      <point x="206" y="118" type="line"/>
      <point x="202" y="118" type="line"/>
      <point x="198" y="270" type="line"/>
      <point x="186" y="634" type="line"/>
      <point x="36" y="634" type="line"/>
    </contour>
    <contour>
      <point x="0" y="288" type="line"/>
      <point x="600" y="288" type="line"/>
      <point x="600" y="352" type="line"/>
      <point x="68" y="352" type="line"/>
      <point x="0" y="346" type="line"/>
    </contour>
  </outline>
</glyph>
<glyph name="peso" format="1">
  <advance width="600"/>
  <unicode hex="20B1"/>
  <outline>
    <contour>
      <point x="88" y="0" type="line"/>
      <point x="250" y="0" type="line"/>
      <point x="250" y="203" type="line"/>
      <point x="284" y="203" type="line" smooth="yes"/>
      <point x="415" y="203"/>
      <point x="531" y="268"/>
      <point x="531" y="414" type="curve" smooth="yes"/>
      <point x="531" y="578"/>
      <point x="419" y="634"/>
      <point x="284" y="634" type="curve" smooth="yes"/>
      <point x="88" y="634" type="line"/>
    </contour>
    <contour>
      <point x="250" y="309" type="line"/>
      <point x="250" y="528" type="line"/>
      <point x="275" y="528" type="line" smooth="yes"/>
      <point x="338" y="528"/>
      <point x="372" y="492"/>
      <point x="372" y="414" type="curve" smooth="yes"/>
      <point x="372" y="350"/>
      <point x="338" y="309"/>
      <point x="275" y="309" type="curve" smooth="yes"/>
    </contour>
    <contour>
      <point x="12" y="438" type="line"/>
      <point x="588" y="438" type="line"/>
      <point x="588" y="502" type="line"/>
      <point x="100" y="502" type="line"/>
      <point x="12" y="496" type="line"/>
    </contour>
    <contour>
      <point x="12" y="334" type="line"/>
      <point x="588" y="334" type="line"/>
      <point x="588" y="398" type="line"/>
      <point x="100" y="398" type="line"/>
      <point x="12" y="392" type="line"/>
    </contour>
  </outline>
</glyph>
<glyph name="hryvnia" format="1">
  <advance width="600"/>
  <unicode hex="20B4"/>
  <outline>
    <contour>
      <point x="328" y="-12" type="curve" smooth="yes"/>
      <point x="385" y="-12"/>
      <point x="473" y="12"/>
      <point x="530" y="66" type="curve"/>
      <point x="460" y="176" type="line"/>
      <point x="410" y="136"/>
      <point x="367" y="120"/>
      <point x="328" y="120" type="curve" smooth="yes"/>
      <point x="285" y="120"/>
      <point x="268" y="143"/>
      <point x="268" y="176" type="curve" smooth="yes"/>
      <point x="268" y="262"/>
      <point x="486" y="284"/>
      <point x="486" y="462" type="curve" smooth="yes"/>
      <point x="486" y="576"/>
      <point x="407" y="646"/>
      <point x="278" y="646" type="curve" smooth="yes"/>
      <point x="194" y="646"/>
      <point x="136" y="610"/>
      <point x="89" y="558" type="curve"/>
      <point x="170" y="466" type="line"/>
      <point x="203" y="498"/>
      <point x="235" y="514"/>
      <point x="268" y="514" type="curve" smooth="yes"/>
      <point x="304" y="514"/>
      <point x="322" y="496"/>
      <point x="322" y="464" type="curve" smooth="yes"/>
      <point x="322" y="380"/>
      <point x="104" y="366"/>
      <point x="104" y="184" type="curve" smooth="yes"/>
      <point x="104" y="66"/>
      <point x="177" y="-12"/>
    </contour>
    <contour>
      <point x="50" y="336" type="line"/>
      <point x="542" y="336" type="line"/>
      <point x="542" y="420" type="line"/>
      <point x="126" y="420" type="line"/>
      <point x="50" y="414" type="line"/>
    </contour>
    <contour>
      <point x="50" y="208" type="line"/>
      <point x="542" y="208" type="line"/>
      <point x="542" y="292" type="line"/>
      <point x="126" y="292" type="line"/>
      <point x="50" y="286" type="line"/>
    </contour>
  </outline>
</glyph>
<glyph name="ruble" format="1">
  <advance width="600"/>
  <unicode hex="20BD"/>
  <outline>
    <contour>
      <point x="118" y="0" type="line"/>
      <point x="280" y="0" type="line"/>
      <point x="280" y="262" type="line"/>
      <point x="328" y="262" type="line" smooth="yes"/>
      <point x="456" y="262"/>
      <point x="572" y="314"/>
      <point x="572" y="446" type="curve" smooth="yes"/>
      <point x="572" y="577"/>
      <point x="462" y="634"/>
      <point x="328" y="634" type="curve" smooth="yes"/>
      <point x="118" y="634" type="line"/>
    </contour>
    <contour>
      <point x="280" y="346" type="line"/>
      <point x="280" y="528" type="line"/>
      <point x="324" y="528" type="line" smooth="yes"/>
      <point x="380" y="528"/>
      <point x="414" y="500"/>
      <point x="414" y="436" type="curve" smooth="yes"/>
      <point x="414" y="384"/>
      <point x="380" y="346"/>
      <point x="324" y="346" type="curve" smooth="yes"/>
    </contour>
    <contour>
      <point x="12" y="262" type="line"/>
      <point x="192" y="262" type="line"/>
      <point x="192" y="346" type="line"/>
      <point x="136" y="346" type="line"/>
      <point x="12" y="340" type="line"/>
    </contour>
    <contour>
      <point x="12" y="134" type="line"/>
      <point x="504" y="134" type="line"/>
      <point x="504" y="218" type="line"/>
      <point x="136" y="218" type="line"/>
      <point x="12" y="212" type="line"/>
    </contour>
  </outline>
</glyph>
<glyph name="arrowupdn" format="1">
  <advance width="600"/>
  <unicode hex="2195"/>
  <outline>
    <contour>
      <point x="302" y="-56" type="line"/>
      <point x="530" y="124" type="line"/>
      <point x="462" y="214" type="line"/>
      <point x="368" y="136" type="line"/>
      <point x="368" y="368" type="line"/>
      <point x="462" y="290" type="line"/>
      <point x="530" y="380" type="line"/>
      <point x="302" y="560" type="line"/>
      <point x="298" y="560" type="line"/>
      <point x="70" y="380" type="line"/>
      <point x="138" y="290" type="line"/>
      <point x="232" y="368" type="line"/>
      <point x="232" y="136" type="line"/>
      <point x="138" y="214" type="line"/>
      <point x="70" y="124" type="line"/>
      <point x="298" y="-56" type="line"/>
    </contour>
  </outline>
</glyph>
<glyph name="arrowdblleft" format="1">
  <advance width="600"/>
  <unicode hex="21D0"/>
  <outline>
    <contour>
      <point x="292" y="-18" type="line"/>
      <point x="372" y="74" type="line"/>
      <point x="164" y="250" type="line"/>
      <point x="164" y="254" type="line"/>
      <point x="372" y="430" type="line"/>
      <point x="292" y="522" type="line"/>
      <point x="12" y="254" type="line"/>
      <point x="12" y="250" type="line"/>
    </contour>
    <contour>
      <point x="162" y="278" type="line"/>
      <point x="568" y="278" type="line"/>
      <point x="568" y="376" type="line"/>
      <point x="162" y="376" type="line"/>
    </contour>
    <contour>
      <point x="162" y="128" type="line"/>
      <point x="568" y="128" type="line"/>
      <point x="568" y="226" type="line"/>
      <point x="162" y="226" type="line"/>
    </contour>
  </outline>
</glyph>
<glyph name="minus" format="1">
  <advance width="600"/>
  <unicode hex="2212"/>
  <outline>
    <contour>
      <point x="64" y="270" type="line"/>
      <point x="536" y="270" type="line"/>
      <point x="536" y="390" type="line"/>
      <point x="64" y="390" type="line"/>
    </contour>
  </outline>
</glyph>
<glyph name="integraltp" format="1">
  <advance width="600"/>
  <unicode hex="2320"/>
  <outline>
    <contour>
      <point x="382" y="-400" type="line"/>
      <point x="382" y="542" type="line"/>
      <point x="382" y="632"/>
      <point x="394" y="664"/>
      <point x="444" y="664" type="curve" smooth="yes"/>
      <point x="458" y="664"/>
      <point x="470" y="663"/>
      <point x="480" y="660" type="curve"/>
      <point x="496" y="784" type="line"/>
      <point x="484" y="787"/>
      <point x="460" y="792"/>
      <point x="435" y="792" type="curve" smooth="yes"/>
      <point x="262" y="792"/>
      <point x="228" y="683"/>
      <point x="228" y="538" type="curve"/>
      <point x="228" y="-400" type="line"/>
    </contour>
  </outline>
</glyph>
<glyph name="integralbt" format="1">
  <advance width="600"/>
  <unicode hex="2321"/>
  <outline>
    <contour>
      <point x="175" y="-158" type="curve" smooth="yes"/>
      <point x="348" y="-158"/>
      <point x="382" y="-49"/>
      <point x="382" y="96" type="curve"/>
      <point x="382" y="1000" type="line"/>
      <point x="228" y="1000" type="line"/>
      <point x="228" y="92" type="line"/>
      <point x="228" y="0"/>
      <point x="216" y="-30"/>
      <point x="166" y="-30" type="curve" smooth="yes"/>
      <point x="152" y="-30"/>
      <point x="140" y="-29"/>
      <point x="130" y="-26" type="curve"/>
      <point x="114" y="-150" type="line"/>
      <point x="126" y="-153"/>
      <point x="150" y="-158"/>
    </contour>
  </outline>
</glyph>
<glyph name="heavyquaddashhorzbxd" format="1">
	<unicode hex="2509"/>
	<advance width="600"/>
	<outline>
		<contour>
			<point x="18" y="140" type="line"/>
			<point x="131" y="140" type="line"/>
			<point x="131" y="460" type="line"/>
			<point x="18" y="460" type="line"/>
		</contour>
		<contour>
			<point x="168" y="140" type="line"/>
			<point x="281" y="140" type="line"/>
			<point x="281" y="460" type="line"/>
			<point x="168" y="460" type="line"/>
		</contour>
		<contour>
			<point x="318" y="140" type="line"/>
			<point x="431" y="140" type="line"/>
			<point x="431" y="460" type="line"/>
			<point x="318" y="460" type="line"/>
		</contour>
		<contour>
			<point x="468" y="140" type="line"/>
			<point x="581" y="140" type="line"/>
			<point x="581" y="460" type="line"/>
			<point x="468" y="460" type="line"/>
		</contour>
	</outline>
</glyph>
<glyph name="dnheavyrightlightbxd" format="1">
	<unicode hex="250E"/>
	<advance width="600"/>
	<outline>
		<contour>
			<point x="140" y="-400" type="line"/>
			<point x="460" y="-400" type="line"/>
			<point x="460" y="220" type="line"/>
			<point x="680" y="220" type="line"/>
			<point x="680" y="380" type="line"/>
			<point x="140" y="380" type="line"/>
		</contour>
	</outline>
</glyph>
<glyph name="lightvertleftbxd" format="1">
	<unicode hex="2524"/>
	<advance width="600"/>
	<outline>
		<contour>
			<point x="-80" y="220" type="line"/>
			<point x="220" y="220" type="line"/>
			<point x="220" y="-400" type="line"/>
			<point x="380" y="-400" type="line"/>
			<point x="380" y="1000" type="line"/>
			<point x="220" y="1000" type="line"/>
			<point x="220" y="380" type="line"/>
			<point x="-80" y="380" type="line"/>
		</contour>
	</outline>
</glyph>
<glyph name="lightdiagupleftdnrightbxd" format="1">
	<unicode hex="2572"/>
	<advance width="600"/>
	<outline>
		<contour>
			<point x="89" y="900" type="line"/>
			<point x="0" y="900" type="line"/>
			<point x="0" y="721" type="line"/>
			<point x="511" y="-300" type="line"/>
			<point x="600" y="-300" type="line"/>
			<point x="600" y="-121" type="line"/>
		</contour>
	</outline>
</glyph>
<glyph name="lightleftheavyrightbxd" format="1">
  <advance width="600"/>
  <unicode hex="257C"/>
  <outline>
    <contour>
      <point x="-80" y="220" type="line"/>
      <point x="220" y="220" type="line"/>
      <point x="220" y="140" type="line"/>
      <point x="680" y="140" type="line"/>
      <point x="680" y="460" type="line"/>
      <point x="220" y="460" type="line"/>
      <point x="220" y="380" type="line"/>
      <point x="-80" y="380" type="line"/>
    </contour>
  </outline>
</glyph>
<glyph name="dnhalfblock" format="1">
	<unicode hex="2584"/>
	<advance width="600"/>
	<outline>
		<contour>
			<point x="0" y="-400" type="line"/>
			<point x="600" y="-400" type="line"/>
			<point x="600" y="300" type="line"/>
			<point x="0" y="300" type="line"/>
		</contour>
	</outline>
</glyph>
<glyph name="dnseveneighthsblock" format="1">
	<unicode hex="2587"/>
	<advance width="600"/>
	<outline>
		<contour>
			<point x="0" y="-400" type="line"/>
			<point x="600" y="-400" type="line"/>
			<point x="600" y="825" type="line"/>
			<point x="0" y="825" type="line"/>
		</contour>
	</outline>
</glyph>
<glyph name="lightshade" format="1">
	<unicode hex="2591"/>
	<advance width="600"/>
	<outline>
		<contour>
			<point x="464" y="900" type="curve" smooth="yes"/>
			<point x="464" y="880"/>
			<point x="480" y="864"/>
			<point x="500" y="864" type="curve" smooth="yes"/>
			<point x="520" y="864"/>
			<point x="536" y="880"/>
			<point x="536" y="900" type="curve" smooth="yes"/>
			<point x="536" y="920"/>
			<point x="520" y="936"/>
			<point x="500" y="936" type="curve" smooth="yes"/>
			<point x="480" y="936"/>
			<point x="464" y="920"/>
		</contour>
		<contour>
			<point x="264" y="900" type="curve" smooth="yes"/>
			<point x="264" y="880"/>
			<point x="280" y="864"/>
			<point x="300" y="864" type="curve" smooth="yes"/>
			<point x="320" y="864"/>
			<point x="336" y="880"/>
			<point x="336" y="900" type="curve" smooth="yes"/>
			<point x="336" y="920"/>
			<point x="320" y="936"/>
			<point x="300" y="936" type="curve" smooth="yes"/>
			<point x="280" y="936"/>
			<point x="264" y="920"/>
		</contour>
		<contour>
			<point x="64" y="900" type="curve" smooth="yes"/>
			<point x="64" y="880"/>
			<point x="80" y="864"/>
			<point x="100" y="864" type="curve" smooth="yes"/>
			<point x="120" y="864"/>
			<point x="136" y="880"/>
			<point x="136" y="900" type="curve" smooth="yes"/>
			<point x="136" y="920"/>
			<point x="120" y="936"/>
			<point x="100" y="936" type="curve" smooth="yes"/>
			<point x="80" y="936"/>
			<point x="64" y="920"/>
		</contour>
		<contour>
			<point x="376" y="800" type="curve" smooth="yes"/>
			<point x="376" y="787"/>
			<point x="387" y="776"/>
			<point x="400" y="776" type="curve" smooth="yes"/>
			<point x="413" y="776"/>
			<point x="424" y="787"/>
			<point x="424" y="800" type="curve" smooth="yes"/>
			<point x="424" y="813"/>
			<point x="413" y="824"/>
			<point x="400" y="824" type="curve" smooth="yes"/>
			<point x="387" y="824"/>
			<point x="376" y="813"/>
		</contour>
		<contour>
			<point x="176" y="800" type="curve" smooth="yes"/>
			<point x="176" y="787"/>
			<point x="187" y="776"/>
			<point x="200" y="776" type="curve" smooth="yes"/>
			<point x="213" y="776"/>
			<point x="224" y="787"/>
			<point x="224" y="800" type="curve" smooth="yes"/>
			<point x="224" y="813"/>
			<point x="213" y="824"/>
			<point x="200" y="824" type="curve" smooth="yes"/>
			<point x="187" y="824"/>
			<point x="176" y="813"/>
		</contour>
		<contour>
			<point x="-24" y="800" type="curve" smooth="yes"/>
			<point x="-24" y="787"/>
			<point x="-13" y="776"/>
			<point x="0" y="776" type="curve" smooth="yes"/>
			<point x="13" y="776"/>
			<point x="24" y="787"/>
			<point x="24" y="800" type="curve" smooth="yes"/>
			<point x="24" y="813"/>
			<point x="13" y="824"/>
			<point x="0" y="824" type="curve" smooth="yes"/>
			<point x="-13" y="824"/>
			<point x="-24" y="813"/>
		</contour>
		<contour>
			<point x="464" y="700" type="curve" smooth="yes"/>
			<point x="464" y="680"/>
			<point x="480" y="664"/>
			<point x="500" y="664" type="curve" smooth="yes"/>
			<point x="520" y="664"/>
			<point x="536" y="680"/>
			<point x="536" y="700" type="curve" smooth="yes"/>
			<point x="536" y="720"/>
			<point x="520" y="736"/>
			<point x="500" y="736" type="curve" smooth="yes"/>
			<point x="480" y="736"/>
			<point x="464" y="720"/>
		</contour>
		<contour>
			<point x="264" y="700" type="curve" smooth="yes"/>
			<point x="264" y="680"/>
			<point x="280" y="664"/>
			<point x="300" y="664" type="curve" smooth="yes"/>
			<point x="320" y="664"/>
			<point x="336" y="680"/>
			<point x="336" y="700" type="curve" smooth="yes"/>
			<point x="336" y="720"/>
			<point x="320" y="736"/>
			<point x="300" y="736" type="curve" smooth="yes"/>
			<point x="280" y="736"/>
			<point x="264" y="720"/>
		</contour>
		<contour>
			<point x="64" y="700" type="curve" smooth="yes"/>
			<point x="64" y="680"/>
			<point x="80" y="664"/>
			<point x="100" y="664" type="curve" smooth="yes"/>
			<point x="120" y="664"/>
			<point x="136" y="680"/>
			<point x="136" y="700" type="curve" smooth="yes"/>
			<point x="136" y="720"/>
			<point x="120" y="736"/>
			<point x="100" y="736" type="curve" smooth="yes"/>
			<point x="80" y="736"/>
			<point x="64" y="720"/>
		</contour>
		<contour>
			<point x="376" y="600" type="curve" smooth="yes"/>
			<point x="376" y="587"/>
			<point x="387" y="576"/>
			<point x="400" y="576" type="curve" smooth="yes"/>
			<point x="413" y="576"/>
			<point x="424" y="587"/>
			<point x="424" y="600" type="curve" smooth="yes"/>
			<point x="424" y="613"/>
			<point x="413" y="624"/>
			<point x="400" y="624" type="curve" smooth="yes"/>
			<point x="387" y="624"/>
			<point x="376" y="613"/>
		</contour>
		<contour>
			<point x="176" y="600" type="curve" smooth="yes"/>
			<point x="176" y="587"/>
			<point x="187" y="576"/>
			<point x="200" y="576" type="curve" smooth="yes"/>
			<point x="213" y="576"/>
			<point x="224" y="587"/>
			<point x="224" y="600" type="curve" smooth="yes"/>
			<point x="224" y="613"/>
			<point x="213" y="624"/>
			<point x="200" y="624" type="curve" smooth="yes"/>
			<point x="187" y="624"/>
			<point x="176" y="613"/>
		</contour>
		<contour>
			<point x="-24" y="600" type="curve" smooth="yes"/>
			<point x="-24" y="587"/>
			<point x="-13" y="576"/>
			<point x="0" y="576" type="curve" smooth="yes"/>
			<point x="13" y="576"/>
			<point x="24" y="587"/>
			<point x="24" y="600" type="curve" smooth="yes"/>
			<point x="24" y="613"/>
			<point x="13" y="624"/>
			<point x="0" y="624" type="curve" smooth="yes"/>
			<point x="-13" y="624"/>
			<point x="-24" y="613"/>
		</contour>
		<contour>
			<point x="464" y="500" type="curve" smooth="yes"/>
			<point x="464" y="480"/>
			<point x="480" y="464"/>
			<point x="500" y="464" type="curve" smooth="yes"/>
			<point x="520" y="464"/>
			<point x="536" y="480"/>
			<point x="536" y="500" type="curve" smooth="yes"/>
			<point x="536" y="520"/>
			<point x="520" y="536"/>
			<point x="500" y="536" type="curve" smooth="yes"/>
			<point x="480" y="536"/>
			<point x="464" y="520"/>
		</contour>
		<contour>
			<point x="264" y="500" type="curve" smooth="yes"/>
			<point x="264" y="480"/>
			<point x="280" y="464"/>
			<point x="300" y="464" type="curve" smooth="yes"/>
			<point x="320" y="464"/>
			<point x="336" y="480"/>
			<point x="336" y="500" type="curve" smooth="yes"/>
			<point x="336" y="520"/>
			<point x="320" y="536"/>
			<point x="300" y="536" type="curve" smooth="yes"/>
			<point x="280" y="536"/>
			<point x="264" y="520"/>
		</contour>
		<contour>
			<point x="64" y="500" type="curve" smooth="yes"/>
			<point x="64" y="480"/>
			<point x="80" y="464"/>
			<point x="100" y="464" type="curve" smooth="yes"/>
			<point x="120" y="464"/>
			<point x="136" y="480"/>
			<point x="136" y="500" type="curve" smooth="yes"/>
			<point x="136" y="520"/>
			<point x="120" y="536"/>
			<point x="100" y="536" type="curve" smooth="yes"/>
			<point x="80" y="536"/>
			<point x="64" y="520"/>
		</contour>
		<contour>
			<point x="376" y="400" type="curve" smooth="yes"/>
			<point x="376" y="387"/>
			<point x="387" y="376"/>
			<point x="400" y="376" type="curve" smooth="yes"/>
			<point x="413" y="376"/>
			<point x="424" y="387"/>
			<point x="424" y="400" type="curve" smooth="yes"/>
			<point x="424" y="413"/>
			<point x="413" y="424"/>
			<point x="400" y="424" type="curve" smooth="yes"/>
			<point x="387" y="424"/>
			<point x="376" y="413"/>
		</contour>
		<contour>
			<point x="176" y="400" type="curve" smooth="yes"/>
			<point x="176" y="387"/>
			<point x="187" y="376"/>
			<point x="200" y="376" type="curve" smooth="yes"/>
			<point x="213" y="376"/>
			<point x="224" y="387"/>
			<point x="224" y="400" type="curve" smooth="yes"/>
			<point x="224" y="413"/>
			<point x="213" y="424"/>
			<point x="200" y="424" type="curve" smooth="yes"/>
			<point x="187" y="424"/>
			<point x="176" y="413"/>
		</contour>
		<contour>
			<point x="-24" y="400" type="curve" smooth="yes"/>
			<point x="-24" y="387"/>
			<point x="-13" y="376"/>
			<point x="0" y="376" type="curve" smooth="yes"/>
			<point x="13" y="376"/>
			<point x="24" y="387"/>
			<point x="24" y="400" type="curve" smooth="yes"/>
			<point x="24" y="413"/>
			<point x="13" y="424"/>
			<point x="0" y="424" type="curve" smooth="yes"/>
			<point x="-13" y="424"/>
			<point x="-24" y="413"/>
		</contour>
		<contour>
			<point x="464" y="300" type="curve" smooth="yes"/>
			<point x="464" y="280"/>
			<point x="480" y="264"/>
			<point x="500" y="264" type="curve" smooth="yes"/>
			<point x="520" y="264"/>
			<point x="536" y="280"/>
			<point x="536" y="300" type="curve" smooth="yes"/>
			<point x="536" y="320"/>
			<point x="520" y="336"/>
			<point x="500" y="336" type="curve" smooth="yes"/>
			<point x="480" y="336"/>
			<point x="464" y="320"/>
		</contour>
		<contour>
			<point x="264" y="300" type="curve" smooth="yes"/>
			<point x="264" y="280"/>
			<point x="280" y="264"/>
			<point x="300" y="264" type="curve" smooth="yes"/>
			<point x="320" y="264"/>
			<point x="336" y="280"/>
			<point x="336" y="300" type="curve" smooth="yes"/>
			<point x="336" y="320"/>
			<point x="320" y="336"/>
			<point x="300" y="336" type="curve" smooth="yes"/>
			<point x="280" y="336"/>
			<point x="264" y="320"/>
		</contour>
		<contour>
			<point x="64" y="300" type="curve" smooth="yes"/>
			<point x="64" y="280"/>
			<point x="80" y="264"/>
			<point x="100" y="264" type="curve" smooth="yes"/>
			<point x="120" y="264"/>
			<point x="136" y="280"/>
			<point x="136" y="300" type="curve" smooth="yes"/>
			<point x="136" y="320"/>
			<point x="120" y="336"/>
			<point x="100" y="336" type="curve" smooth="yes"/>
			<point x="80" y="336"/>
			<point x="64" y="320"/>
		</contour>
		<contour>
			<point x="376" y="200" type="curve" smooth="yes"/>
			<point x="376" y="187"/>
			<point x="387" y="176"/>
			<point x="400" y="176" type="curve" smooth="yes"/>
			<point x="413" y="176"/>
			<point x="424" y="187"/>
			<point x="424" y="200" type="curve" smooth="yes"/>
			<point x="424" y="213"/>
			<point x="413" y="224"/>
			<point x="400" y="224" type="curve" smooth="yes"/>
			<point x="387" y="224"/>
			<point x="376" y="213"/>
		</contour>
		<contour>
			<point x="176" y="200" type="curve" smooth="yes"/>
			<point x="176" y="187"/>
			<point x="187" y="176"/>
			<point x="200" y="176" type="curve" smooth="yes"/>
			<point x="213" y="176"/>
			<point x="224" y="187"/>
			<point x="224" y="200" type="curve" smooth="yes"/>
			<point x="224" y="213"/>
			<point x="213" y="224"/>
			<point x="200" y="224" type="curve" smooth="yes"/>
			<point x="187" y="224"/>
			<point x="176" y="213"/>
		</contour>
		<contour>
			<point x="-24" y="200" type="curve" smooth="yes"/>
			<point x="-24" y="187"/>
			<point x="-13" y="176"/>
			<point x="0" y="176" type="curve" smooth="yes"/>
			<point x="13" y="176"/>
			<point x="24" y="187"/>
			<point x="24" y="200" type="curve" smooth="yes"/>
			<point x="24" y="213"/>
			<point x="13" y="224"/>
			<point x="0" y="224" type="curve" smooth="yes"/>
			<point x="-13" y="224"/>
			<point x="-24" y="213"/>
		</contour>
		<contour>
			<point x="464" y="100" type="curve" smooth="yes"/>
			<point x="464" y="80"/>
			<point x="480" y="64"/>
			<point x="500" y="64" type="curve" smooth="yes"/>
			<point x="520" y="64"/>
			<point x="536" y="80"/>
			<point x="536" y="100" type="curve" smooth="yes"/>
			<point x="536" y="120"/>
			<point x="520" y="136"/>
			<point x="500" y="136" type="curve" smooth="yes"/>
			<point x="480" y="136"/>
			<point x="464" y="120"/>
		</contour>
		<contour>
			<point x="264" y="100" type="curve" smooth="yes"/>
			<point x="264" y="80"/>
			<point x="280" y="64"/>
			<point x="300" y="64" type="curve" smooth="yes"/>
			<point x="320" y="64"/>
			<point x="336" y="80"/>
			<point x="336" y="100" type="curve" smooth="yes"/>
			<point x="336" y="120"/>
			<point x="320" y="136"/>
			<point x="300" y="136" type="curve" smooth="yes"/>
			<point x="280" y="136"/>
			<point x="264" y="120"/>
		</contour>
		<contour>
			<point x="64" y="100" type="curve" smooth="yes"/>
			<point x="64" y="80"/>
			<point x="80" y="64"/>
			<point x="100" y="64" type="curve" smooth="yes"/>
			<point x="120" y="64"/>
			<point x="136" y="80"/>
			<point x="136" y="100" type="curve" smooth="yes"/>
			<point x="136" y="120"/>
			<point x="120" y="136"/>
			<point x="100" y="136" type="curve" smooth="yes"/>
			<point x="80" y="136"/>
			<point x="64" y="120"/>
		</contour>
		<contour>
			<point x="376" y="0" type="curve" smooth="yes"/>
			<point x="376" y="-13"/>
			<point x="387" y="-24"/>
			<point x="400" y="-24" type="curve" smooth="yes"/>
			<point x="413" y="-24"/>
			<point x="424" y="-13"/>
			<point x="424" y="0" type="curve" smooth="yes"/>
			<point x="424" y="13"/>
			<point x="413" y="24"/>
			<point x="400" y="24" type="curve" smooth="yes"/>
			<point x="387" y="24"/>
			<point x="376" y="13"/>
		</contour>
		<contour>
			<point x="176" y="0" type="curve" smooth="yes"/>
			<point x="176" y="-13"/>
			<point x="187" y="-24"/>
			<point x="200" y="-24" type="curve" smooth="yes"/>
			<point x="213" y="-24"/>
			<point x="224" y="-13"/>
			<point x="224" y="0" type="curve" smooth="yes"/>
			<point x="224" y="13"/>
			<point x="213" y="24"/>
			<point x="200" y="24" type="curve" smooth="yes"/>
			<point x="187" y="24"/>
			<point x="176" y="13"/>
		</contour>
		<contour>
			<point x="-24" y="0" type="curve" smooth="yes"/>
			<point x="-24" y="-13"/>
			<point x="-13" y="-24"/>
			<point x="0" y="-24" type="curve" smooth="yes"/>
			<point x="13" y="-24"/>
			<point x="24" y="-13"/>
			<point x="24" y="0" type="curve" smooth="yes"/>
			<point x="24" y="13"/>
			<point x="13" y="24"/>
			<point x="0" y="24" type="curve" smooth="yes"/>
			<point x="-13" y="24"/>
			<point x="-24" y="13"/>
		</contour>
		<contour>
			<point x="464" y="-100" type="curve" smooth="yes"/>
			<point x="464" y="-120"/>
			<point x="480" y="-136"/>
			<point x="500" y="-136" type="curve" smooth="yes"/>
			<point x="520" y="-136"/>
			<point x="536" y="-120"/>
			<point x="536" y="-100" type="curve" smooth="yes"/>
			<point x="536" y="-80"/>
			<point x="520" y="-64"/>
			<point x="500" y="-64" type="curve" smooth="yes"/>
			<point x="480" y="-64"/>
			<point x="464" y="-80"/>
		</contour>
		<contour>
			<point x="264" y="-100" type="curve" smooth="yes"/>
			<point x="264" y="-120"/>
			<point x="280" y="-136"/>
			<point x="300" y="-136" type="curve" smooth="yes"/>
			<point x="320" y="-136"/>
			<point x="336" y="-120"/>
			<point x="336" y="-100" type="curve" smooth="yes"/>
			<point x="336" y="-80"/>
			<point x="320" y="-64"/>
			<point x="300" y="-64" type="curve" smooth="yes"/>
			<point x="280" y="-64"/>
			<point x="264" y="-80"/>
		</contour>
		<contour>
			<point x="64" y="-100" type="curve" smooth="yes"/>
			<point x="64" y="-120"/>
			<point x="80" y="-136"/>
			<point x="100" y="-136" type="curve" smooth="yes"/>
			<point x="120" y="-136"/>
			<point x="136" y="-120"/>
			<point x="136" y="-100" type="curve" smooth="yes"/>
			<point x="136" y="-80"/>
			<point x="120" y="-64"/>
			<point x="100" y="-64" type="curve" smooth="yes"/>
			<point x="80" y="-64"/>
			<point x="64" y="-80"/>
		</contour>
		<contour>
			<point x="376" y="-200" type="curve" smooth="yes"/>
			<point x="376" y="-213"/>
			<point x="387" y="-224"/>
			<point x="400" y="-224" type="curve" smooth="yes"/>
			<point x="413" y="-224"/>
			<point x="424" y="-213"/>
			<point x="424" y="-200" type="curve" smooth="yes"/>
			<point x="424" y="-187"/>
			<point x="413" y="-176"/>
			<point x="400" y="-176" type="curve" smooth="yes"/>
			<point x="387" y="-176"/>
			<point x="376" y="-187"/>
		</contour>
		<contour>
			<point x="176" y="-200" type="curve" smooth="yes"/>
			<point x="176" y="-213"/>
			<point x="187" y="-224"/>
			<point x="200" y="-224" type="curve" smooth="yes"/>
			<point x="213" y="-224"/>
			<point x="224" y="-213"/>
			<point x="224" y="-200" type="curve" smooth="yes"/>
			<point x="224" y="-187"/>
			<point x="213" y="-176"/>
			<point x="200" y="-176" type="curve" smooth="yes"/>
			<point x="187" y="-176"/>
			<point x="176" y="-187"/>
		</contour>
		<contour>
			<point x="-24" y="-200" type="curve" smooth="yes"/>
			<point x="-24" y="-213"/>
			<point x="-13" y="-224"/>
			<point x="0" y="-224" type="curve" smooth="yes"/>
			<point x="13" y="-224"/>
			<point x="24" y="-213"/>
			<point x="24" y="-200" type="curve" smooth="yes"/>
			<point x="24" y="-187"/>
			<point x="13" y="-176"/>
			<point x="0" y="-176" type="curve" smooth="yes"/>
			<point x="-13" y="-176"/>
			<point x="-24" y="-187"/>
		</contour>
		<contour>
			<point x="464" y="-300" type="curve" smooth="yes"/>
			<point x="464" y="-320"/>
			<point x="480" y="-336"/>
			<point x="500" y="-336" type="curve" smooth="yes"/>
			<point x="520" y="-336"/>
			<point x="536" y="-320"/>
			<point x="536" y="-300" type="curve" smooth="yes"/>
			<point x="536" y="-280"/>
			<point x="520" y="-264"/>
			<point x="500" y="-264" type="curve" smooth="yes"/>
			<point x="480" y="-264"/>
			<point x="464" y="-280"/>
		</contour>
		<contour>
			<point x="264" y="-300" type="curve" smooth="yes"/>
			<point x="264" y="-320"/>
			<point x="280" y="-336"/>
			<point x="300" y="-336" type="curve" smooth="yes"/>
			<point x="320" y="-336"/>
			<point x="336" y="-320"/>
			<point x="336" y="-300" type="curve" smooth="yes"/>
			<point x="336" y="-280"/>
			<point x="320" y="-264"/>
			<point x="300" y="-264" type="curve" smooth="yes"/>
			<point x="280" y="-264"/>
			<point x="264" y="-280"/>
		</contour>
		<contour>
			<point x="64" y="-300" type="curve" smooth="yes"/>
			<point x="64" y="-320"/>
			<point x="80" y="-336"/>
			<point x="100" y="-336" type="curve" smooth="yes"/>
			<point x="120" y="-336"/>
			<point x="136" y="-320"/>
			<point x="136" y="-300" type="curve" smooth="yes"/>
			<point x="136" y="-280"/>
			<point x="120" y="-264"/>
			<point x="100" y="-264" type="curve" smooth="yes"/>
			<point x="80" y="-264"/>
			<point x="64" y="-280"/>
		</contour>
		<contour>
			<point x="376" y="-400" type="curve" smooth="yes"/>
			<point x="376" y="-413"/>
			<point x="387" y="-424"/>
			<point x="400" y="-424" type="curve" smooth="yes"/>
			<point x="413" y="-424"/>
			<point x="424" y="-413"/>
			<point x="424" y="-400" type="curve" smooth="yes"/>
			<point x="424" y="-387"/>
			<point x="413" y="-376"/>
			<point x="400" y="-376" type="curve" smooth="yes"/>
			<point x="387" y="-376"/>
			<point x="376" y="-387"/>
		</contour>
		<contour>
			<point x="176" y="-400" type="curve" smooth="yes"/>
			<point x="176" y="-413"/>
			<point x="187" y="-424"/>
			<point x="200" y="-424" type="curve" smooth="yes"/>
			<point x="213" y="-424"/>
			<point x="224" y="-413"/>
			<point x="224" y="-400" type="curve" smooth="yes"/>
			<point x="224" y="-387"/>
			<point x="213" y="-376"/>
			<point x="200" y="-376" type="curve" smooth="yes"/>
			<point x="187" y="-376"/>
			<point x="176" y="-387"/>
		</contour>
		<contour>
			<point x="-24" y="-400" type="curve" smooth="yes"/>
			<point x="-24" y="-413"/>
			<point x="-13" y="-424"/>
			<point x="0" y="-424" type="curve" smooth="yes"/>
			<point x="13" y="-424"/>
			<point x="24" y="-413"/>
			<point x="24" y="-400" type="curve" smooth="yes"/>
			<point x="24" y="-387"/>
			<point x="13" y="-376"/>
			<point x="0" y="-376" type="curve" smooth="yes"/>
			<point x="-13" y="-376"/>
			<point x="-24" y="-387"/>
		</contour>
	</outline>
</glyph>
<glyph name="bulletsquare" format="1">
  <advance width="600"/>
  <unicode hex="25AA"/>
  <outline>
    <contour>
      <point x="142" y="108" type="line"/>
      <point x="458" y="108" type="line"/>
      <point x="458" y="416" type="line"/>
      <point x="142" y="416" type="line"/>
    </contour>
  </outline>
</glyph>
<glyph name="trianglesmallrightblack" format="1">
  <advance width="600"/>
  <unicode hex="25B8"/>
  <outline>
    <contour>
      <point x="142" y="78" type="line"/>
      <point x="146" y="78" type="line"/>
      <point x="482" y="260" type="line"/>
      <point x="482" y="264" type="line"/>
      <point x="146" y="446" type="line"/>
      <point x="142" y="446" type="line"/>
    </contour>
  </outline>
</glyph>
<glyph name="trianglesmallleftwhite" format="1">
	<unicode hex="25C3"/>
	<advance width="600"/>
	<outline>
		<contour>
			<point x="474" y="42" type="line"/>
			<point x="478" y="42" type="line"/>
			<point x="478" y="482" type="line"/>
			<point x="474" y="482" type="line"/>
			<point x="78" y="264" type="line"/>
			<point x="78" y="260" type="line"/>
		</contour>
		<contour>
			<point x="398" y="180" type="line"/>
			<point x="232" y="262" type="line"/>
			<point x="398" y="344" type="line"/>
		</contour>
	</outline>
</glyph>
<glyph name="invbullet" format="1">
  <advance width="600"/>
  <unicode hex="25D8"/>
  <outline>
    <contour>
      <point x="138" y="104" type="line"/>
      <point x="462" y="104" type="line"/>
      <point x="462" y="420" type="line"/>
      <point x="138" y="420" type="line"/>
    </contour>
    <contour>
      <point x="300" y="116" type="curve" smooth="yes"/>
      <point x="214" y="116"/>
      <point x="150" y="178"/>
      <point x="150" y="262" type="curve" smooth="yes"/>
      <point x="150" y="346"/>
      <point x="214" y="408"/>
      <point x="300" y="408" type="curve" smooth="yes"/>
      <point x="386" y="408"/>
      <point x="450" y="346"/>
      <point x="450" y="262" type="curve" smooth="yes"/>
      <point x="450" y="178"/>
      <point x="386" y="116"/>
    </contour>
  </outline>
</glyph>
<glyph name="invcircle" format="1">
  <advance width="600"/>
  <unicode hex="25D9"/>
  <outline>
    <contour>
      <point x="34" y="68" type="line"/>
      <point x="566" y="68" type="line"/>
      <point x="566" y="592" type="line"/>
      <point x="34" y="592" type="line"/>
    </contour>
    <contour>
      <point x="300" y="72" type="curve" smooth="yes"/>
      <point x="148" y="72"/>
      <point x="38" y="182"/>
      <point x="38" y="330" type="curve" smooth="yes"/>
      <point x="38" y="478"/>
      <point x="148" y="588"/>
      <point x="300" y="588" type="curve" smooth="yes"/>
      <point x="452" y="588"/>
      <point x="562" y="478"/>
      <point x="562" y="330" type="curve" smooth="yes"/>
      <point x="562" y="182"/>
      <point x="452" y="72"/>
    </contour>
    <contour>
      <point x="300" y="158" type="curve" smooth="yes"/>
      <point x="394" y="158"/>
      <point x="462" y="230"/>
      <point x="462" y="330" type="curve" smooth="yes"/>
      <point x="462" y="430"/>
      <point x="394" y="502"/>
      <point x="300" y="502" type="curve" smooth="yes"/>
      <point x="206" y="502"/>
      <point x="138" y="430"/>
      <point x="138" y="330" type="curve" smooth="yes"/>
      <point x="138" y="230"/>
      <point x="206" y="158"/>
    </contour>
  </outline>
</glyph>
<glyph name="smileface" format="1">
  <advance width="600"/>
  <unicode hex="263A"/>
  <outline>
    <contour>
      <point x="300" y="24" type="curve" smooth="yes"/>
      <point x="484" y="24"/>
      <point x="610" y="150"/>
      <point x="610" y="330" type="curve" smooth="yes"/>
      <point x="610" y="510"/>
      <point x="484" y="636"/>
      <point x="300" y="636" type="curve" smooth="yes"/>
      <point x="116" y="636"/>
      <point x="-10" y="510"/>
      <point x="-10" y="330" type="curve" smooth="yes"/>
      <point x="-10" y="150"/>
      <point x="116" y="24"/>
    </contour>
    <contour>
      <point x="300" y="100" type="curve" smooth="yes"/>
      <point x="166" y="100"/>
      <point x="76" y="192"/>
      <point x="76" y="330" type="curve" smooth="yes"/>
      <point x="76" y="468"/>
      <point x="166" y="560"/>
      <point x="300" y="560" type="curve" smooth="yes"/>
      <point x="434" y="560"/>
      <point x="524" y="468"/>
      <point x="524" y="330" type="curve" smooth="yes"/>
      <point x="524" y="192"/>
      <point x="434" y="100"/>
    </contour>
    <contour>
      <point x="212" y="332" type="curve" smooth="yes"/>
      <point x="252" y="332"/>
      <point x="280" y="364"/>
      <point x="280" y="404" type="curve" smooth="yes"/>
      <point x="280" y="444"/>
      <point x="252" y="476"/>
      <point x="212" y="476" type="curve" smooth="yes"/>
      <point x="172" y="476"/>
      <point x="144" y="444"/>
      <point x="144" y="404" type="curve" smooth="yes"/>
      <point x="144" y="364"/>
      <point x="172" y="332"/>
    </contour>
    <contour>
      <point x="388" y="332" type="curve" smooth="yes"/>
      <point x="428" y="332"/>
      <point x="456" y="364"/>
      <point x="456" y="404" type="curve" smooth="yes"/>
      <point x="456" y="444"/>
      <point x="428" y="476"/>
      <point x="388" y="476" type="curve" smooth="yes"/>
      <point x="348" y="476"/>
      <point x="320" y="444"/>
      <point x="320" y="404" type="curve" smooth="yes"/>
      <point x="320" y="364"/>
      <point x="348" y="332"/>
    </contour>
    <contour>
      <point x="300" y="152" type="curve" smooth="yes"/>
      <point x="391" y="152"/>
      <point x="444" y="202"/>
      <point x="464" y="272" type="curve"/>
      <point x="398" y="302" type="line"/>
      <point x="382" y="262"/>
      <point x="350" y="234"/>
      <point x="300" y="234" type="curve" smooth="yes"/>
      <point x="250" y="234"/>
      <point x="218" y="262"/>
      <point x="202" y="302" type="curve"/>
      <point x="136" y="272" type="line"/>
      <point x="156" y="202"/>
      <point x="210" y="152"/>
    </contour>
  </outline>
</glyph>
<glyph name="male" format="1">
  <advance width="600"/>
  <unicode hex="2642"/>
  <outline>
    <contour>
      <point x="234" y="-12" type="curve" smooth="yes"/>
      <point x="388" y="-12"/>
      <point x="494" y="94"/>
      <point x="494" y="234" type="curve" smooth="yes"/>
      <point x="494" y="372"/>
      <point x="388" y="480"/>
      <point x="234" y="480" type="curve" smooth="yes"/>
      <point x="80" y="480"/>
      <point x="-26" y="372"/>
      <point x="-26" y="234" type="curve" smooth="yes"/>
      <point x="-26" y="94"/>
      <point x="80" y="-12"/>
    </contour>
    <contour>
      <point x="234" y="94" type="curve" smooth="yes"/>
      <point x="156" y="94"/>
      <point x="102" y="153"/>
      <point x="102" y="234" type="curve" smooth="yes"/>
      <point x="102" y="314"/>
      <point x="156" y="374"/>
      <point x="234" y="374" type="curve" smooth="yes"/>
      <point x="313" y="374"/>
      <point x="368" y="314"/>
      <point x="368" y="234" type="curve" smooth="yes"/>
      <point x="368" y="153"/>
      <point x="313" y="94"/>
    </contour>
    <contour>
      <point x="410" y="327" type="line"/>
      <point x="530" y="458" type="line"/>
      <point x="522" y="348" type="line"/>
      <point x="634" y="348" type="line"/>
      <point x="636" y="647" type="line"/>
      <point x="633" y="650" type="line"/>
      <point x="334" y="648" type="line"/>
      <point x="334" y="536" type="line"/>
      <point x="444" y="544" type="line"/>
      <point x="313" y="424" type="line"/>
    </contour>
  </outline>
</glyph>
<glyph name="spade" format="1">
  <advance width="600"/>
  <unicode hex="2660"/>
  <outline>
    <contour>
      <point x="92" y="0" type="line"/>
      <point x="508" y="0" type="line"/>
      <point x="508" y="64" type="line"/>
      <point x="408" y="78"/>
      <point x="352" y="128"/>
      <point x="332" y="272" type="curve"/>
      <point x="268" y="272" type="line"/>
      <point x="248" y="128"/>
      <point x="192" y="78"/>
      <point x="92" y="64" type="curve"/>
    </contour>
    <contour>
      <point x="258" y="248" type="curve"/>
      <point x="342" y="248" type="line"/>
      <point x="372" y="180"/>
      <point x="416" y="158"/>
      <point x="468" y="158" type="curve" smooth="yes"/>
      <point x="545" y="158"/>
      <point x="604" y="201"/>
      <point x="604" y="294" type="curve" smooth="yes"/>
      <point x="604" y="414"/>
      <point x="538" y="466"/>
      <point x="302" y="708" type="curve"/>
      <point x="298" y="708" type="line"/>
      <point x="62" y="466"/>
      <point x="-4" y="414"/>
      <point x="-4" y="294" type="curve" smooth="yes"/>
      <point x="-4" y="201"/>
      <point x="55" y="158"/>
      <point x="132" y="158" type="curve" smooth="yes"/>
      <point x="184" y="158"/>
      <point x="228" y="180"/>
    </contour>
  </outline>
</glyph>
<glyph name="club" format="1">
  <advance width="600"/>
  <unicode hex="2663"/>
  <outline>
    <contour>
      <point x="92" y="0" type="line"/>
      <point x="508" y="0" type="line"/>
      <point x="508" y="64" type="line"/>
      <point x="408" y="78"/>
      <point x="352" y="128"/>
      <point x="332" y="272" type="curve"/>
      <point x="268" y="272" type="line"/>
      <point x="248" y="128"/>
      <point x="192" y="78"/>
      <point x="92" y="64" type="curve"/>
    </contour>
    <contour>
      <point x="126" y="158" type="curve" smooth="yes"/>
      <point x="176" y="158"/>
      <point x="230" y="179"/>
      <point x="258" y="248" type="curve"/>
      <point x="342" y="248" type="line"/>
      <point x="370" y="179"/>
      <point x="424" y="158"/>
      <point x="474" y="158" type="curve" smooth="yes"/>
      <point x="550" y="158"/>
      <point x="604" y="214"/>
      <point x="604" y="302" type="curve" smooth="yes"/>
      <point x="604" y="400"/>
      <point x="536" y="444"/>
      <point x="464" y="444" type="curve" smooth="yes"/>
      <point x="436" y="444"/>
      <point x="416" y="440"/>
      <point x="376" y="424" type="curve"/>
      <point x="372" y="428" type="line"/>
      <point x="445" y="483"/>
      <point x="452" y="542"/>
      <point x="452" y="578" type="curve" smooth="yes"/>
      <point x="452" y="650"/>
      <point x="386" y="698"/>
      <point x="300" y="698" type="curve" smooth="yes"/>
      <point x="214" y="698"/>
      <point x="148" y="650"/>
      <point x="148" y="578" type="curve" smooth="yes"/>
      <point x="148" y="542"/>
      <point x="155" y="483"/>
      <point x="228" y="428" type="curve"/>
      <point x="224" y="424" type="line"/>
      <point x="184" y="440"/>
      <point x="164" y="444"/>
      <point x="136" y="444" type="curve" smooth="yes"/>
      <point x="64" y="444"/>
      <point x="-4" y="400"/>
      <point x="-4" y="302" type="curve" smooth="yes"/>
      <point x="-4" y="214"/>
      <point x="50" y="158"/>
    </contour>
  </outline>
</glyph>
<glyph name="heart" format="1">
  <advance width="600"/>
  <unicode hex="2665"/>
  <outline>
    <contour>
      <point x="302" y="-12" type="line"/>
      <point x="548" y="236"/>
      <point x="604" y="354"/>
      <point x="604" y="500" type="curve" smooth="yes"/>
      <point x="604" y="626"/>
      <point x="536" y="698"/>
      <point x="450" y="698" type="curve" smooth="yes"/>
      <point x="382" y="698"/>
      <point x="330" y="668"/>
      <point x="302" y="578" type="curve"/>
      <point x="298" y="578" type="line"/>
      <point x="270" y="668"/>
      <point x="218" y="698"/>
      <point x="150" y="698" type="curve" smooth="yes"/>
      <point x="64" y="698"/>
      <point x="-4" y="626"/>
      <point x="-4" y="500" type="curve" smooth="yes"/>
      <point x="-4" y="354"/>
      <point x="52" y="236"/>
      <point x="298" y="-12" type="curve"/>
    </contour>
  </outline>
</glyph>
<glyph name="musicalnotedbl" format="1">
  <advance width="600"/>
  <unicode hex="266B"/>
  <outline>
    <contour>
      <point x="96" y="-30" type="curve" smooth="yes"/>
      <point x="217" y="-30"/>
      <point x="288" y="44"/>
      <point x="288" y="182" type="curve"/>
      <point x="288" y="508" type="line"/>
      <point x="286" y="674" type="line"/>
      <point x="196" y="674" type="line"/>
      <point x="196" y="186" type="line"/>
      <point x="188" y="192"/>
      <point x="163" y="198"/>
      <point x="136" y="198" type="curve" smooth="yes"/>
      <point x="52" y="198"/>
      <point x="-16" y="136"/>
      <point x="-16" y="60" type="curve" smooth="yes"/>
      <point x="-16" y="-4"/>
      <point x="42" y="-30"/>
    </contour>
    <contour>
      <point x="436" y="10" type="curve" smooth="yes"/>
      <point x="557" y="10"/>
      <point x="628" y="84"/>
      <point x="628" y="222" type="curve"/>
      <point x="628" y="714" type="line"/>
      <point x="536" y="714" type="line"/>
      <point x="536" y="226" type="line"/>
      <point x="528" y="232"/>
      <point x="503" y="238"/>
      <point x="476" y="238" type="curve" smooth="yes"/>
      <point x="393" y="238"/>
      <point x="324" y="176"/>
      <point x="324" y="100" type="curve" smooth="yes"/>
      <point x="324" y="36"/>
      <point x="382" y="10"/>
    </contour>
    <contour>
      <point x="196" y="492" type="line"/>
      <point x="628" y="552" type="line"/>
      <point x="628" y="734" type="line"/>
      <point x="196" y="674" type="line"/>
    </contour>
  </outline>
</glyph>
<glyph name="brackhalfbotleft" format="1">
	<unicode hex="2E24"/>
	<advance width="600"/>
	<outline>
		<contour>
			<point x="190" y="-152" type="line"/>
			<point x="494" y="-152" type="line"/>
			<point x="494" y="-62" type="line"/>
			<point x="320" y="-62" type="line"/>
			<point x="320" y="278" type="line"/>
			<point x="190" y="278" type="line"/>
		</contour>
	</outline>
</glyph>
<glyph name="uniE0A0" format="1">
  <advance width="600"/>
  <unicode hex="E0A0"/>
  <outline>
    <contour>
      <point x="226" y="-280" type="line"/>
      <point x="226" y="-32" type="line" smooth="yes"/>
      <point x="226" y="240"/>
      <point x="520" y="128"/>
      <point x="520" y="476" type="curve" smooth="yes"/>
      <point x="520" y="725" type="line"/>
      <point x="620" y="725" type="line"/>
      <point x="446" y="940" type="line"/>
      <point x="270" y="725" type="line"/>
      <point x="370" y="725" type="line"/>
      <point x="370" y="512" type="line" smooth="yes"/>
      <point x="370" y="236"/>
      <point x="76" y="348"/>
      <point x="76" y="4" type="curve" smooth="yes"/>
      <point x="76" y="-280" type="line"/>
    </contour>
    <contour>
      <point x="226" y="418" type="line"/>
      <point x="226" y="1060" type="line"/>
      <point x="76" y="1060" type="line"/>
      <point x="76" y="320" type="line"/>
    </contour>
  </outline>
</glyph>
<glyph name="uniE0A1" format="1">
  <advance width="600"/>
  <unicode hex="E0A1"/>
  <outline>
    <contour>
      <point x="78" y="360" type="line"/>
      <point x="406" y="360" type="line"/>
      <point x="406" y="480" type="line"/>
      <point x="208" y="480" type="line"/>
      <point x="208" y="840" type="line"/>
      <point x="78" y="840" type="line"/>
    </contour>
    <contour>
      <point x="164" y="-246" type="line"/>
      <point x="294" y="-246" type="line"/>
      <point x="294" y="-134" type="line"/>
      <point x="260" y="88" type="line"/>
      <point x="371" y="-246" type="line"/>
      <point x="522" y="-246" type="line"/>
      <point x="522" y="232" type="line"/>
      <point x="392" y="232" type="line"/>
      <point x="392" y="120" type="line"/>
      <point x="426" y="-102" type="line"/>
      <point x="314" y="232" type="line"/>
      <point x="164" y="232" type="line"/>
    </contour>
  </outline>
</glyph>
<glyph name="uniE0A2" format="1">
  <advance width="600"/>
  <unicode hex="E0A2"/>
  <outline>
    <contour>
      <point x="580" y="-150" type="line"/>
      <point x="580" y="440" type="line"/>
      <point x="494" y="440" type="line"/>
      <point x="494" y="580" type="line" smooth="yes"/>
      <point x="494" y="705"/>
      <point x="423" y="776"/>
      <point x="300" y="776" type="curve" smooth="yes"/>
      <point x="177" y="776"/>
      <point x="106" y="705"/>
      <point x="106" y="580" type="curve"/>
      <point x="106" y="440" type="line"/>
      <point x="20" y="440" type="line"/>
      <point x="20" y="-150" type="line"/>
    </contour>
    <contour>
      <point x="250" y="-22" type="line"/>
      <point x="282" y="158" type="line"/>
      <point x="247" y="170"/>
      <point x="230" y="195"/>
      <point x="230" y="224" type="curve" smooth="yes"/>
      <point x="230" y="259"/>
      <point x="262" y="288"/>
      <point x="300" y="288" type="curve" smooth="yes"/>
      <point x="338" y="288"/>
      <point x="370" y="259"/>
      <point x="370" y="224" type="curve" smooth="yes"/>
      <point x="370" y="195"/>
      <point x="353" y="170"/>
      <point x="318" y="158" type="curve"/>
      <point x="350" y="-22" type="line"/>
    </contour>
    <contour>
      <point x="236" y="440" type="line"/>
      <point x="236" y="560" type="line" smooth="yes"/>
      <point x="236" y="616"/>
      <point x="257" y="650"/>
      <point x="300" y="650" type="curve" smooth="yes"/>
      <point x="343" y="650"/>
      <point x="364" y="616"/>
      <point x="364" y="560" type="curve" smooth="yes"/>
      <point x="364" y="440" type="line"/>
    </contour>
  </outline>
</glyph>
<glyph name="uniE0B1" format="1">
  <advance width="600"/>
  <unicode hex="E0B1"/>
  <outline>
    <contour>
      <point x="74" y="-212" type="line"/>
      <point x="630" y="380" type="line"/>
      <point x="74" y="972" type="line"/>
      <point x="-20" y="880" type="line"/>
      <point x="456" y="380" type="line"/>
      <point x="-20" y="-120" type="line"/>
    </contour>
  </outline>
</glyph>
<glyph name="uniE0B3" format="1">
  <advance width="600"/>
  <unicode hex="E0B3"/>
  <outline>
    <contour>
      <point x="526" y="-292" type="line"/>
      <point x="620" y="-200" type="line"/>
      <point x="144" y="300" type="line"/>
      <point x="620" y="800" type="line"/>
      <point x="526" y="892" type="line"/>
      <point x="-30" y="300" type="line"/>
    </contour>
  </outline>
</glyph>
<glyph name="B" format="1">
  <advance width="600"/>
  <outline>
    <contour>
      <point x="283" y="672" type="move" name="aboveUC"/>
    </contour>
    <contour>
      <point x="314" y="-22" type="move" name="belowLC"/>
    </contour>
    <contour>
      <point x="64" y="0" type="line"/>
      <point x="316" y="0" type="line" smooth="yes"/>
      <point x="456" y="0"/>
      <point x="568" y="58"/>
      <point x="568" y="192" type="curve" smooth="yes"/>
      <point x="568" y="278"/>
      <point x="522" y="326"/>
      <point x="430" y="344" type="curve"/>
      <point x="430" y="348" type="line"/>
      <point x="506" y="368"/>
      <point x="540" y="432"/>
      <point x="540" y="488" type="curve" smooth="yes"/>
      <point x="540" y="616"/>
      <point x="432" y="650"/>
      <point x="296" y="650" type="curve" smooth="yes"/>
      <point x="64" y="650" type="line"/>
    </contour>
    <contour>
      <point x="236" y="394" type="line"/>
      <point x="236" y="518" type="line"/>
      <point x="292" y="518" type="line" smooth="yes"/>
      <point x="348" y="518"/>
      <point x="372" y="502"/>
      <point x="372" y="462" type="curve" smooth="yes"/>
      <point x="372" y="422"/>
      <point x="348" y="394"/>
      <point x="292" y="394" type="curve" smooth="yes"/>
    </contour>
    <contour>
      <point x="236" y="132" type="line"/>
      <point x="236" y="274" type="line"/>
      <point x="304" y="274" type="line" smooth="yes"/>
      <point x="372" y="274"/>
      <point x="400" y="254"/>
      <point x="400" y="206" type="curve" smooth="yes"/>
      <point x="400" y="158"/>
      <point x="372" y="132"/>
      <point x="304" y="132" type="curve" smooth="yes"/>
    </contour>
  </outline>
</glyph>
<glyph name="Bsmall" format="1">
  <advance width="600"/>
  <outline>
    <contour>
      <point x="340" y="522" type="move" name="aboveLC"/>
    </contour>
    <contour>
      <point x="340" y="-22" type="move" name="belowLC"/>
    </contour>
    <component base="ve" xOffset="31"/>
  </outline>
</glyph>
<glyph name="Chedescender" format="1">
  <advance width="600"/>
  <outline>
    <contour>
      <point x="364" y="0" type="line"/>
      <point x="536" y="0" type="line"/>
      <point x="536" y="650" type="line"/>
      <point x="364" y="650" type="line"/>
      <point x="364" y="388" type="line"/>
      <point x="347" y="384"/>
      <point x="329" y="382"/>
      <point x="298" y="382" type="curve" smooth="yes"/>
      <point x="231" y="382"/>
      <point x="204" y="412"/>
      <point x="204" y="494" type="curve" smooth="yes"/>
      <point x="204" y="650" type="line"/>
      <point x="36" y="650" type="line"/>
      <point x="36" y="494" type="line" smooth="yes"/>
      <point x="36" y="312"/>
      <point x="127" y="246"/>
      <point x="280" y="246" type="curve" smooth="yes"/>
      <point x="317" y="246"/>
      <point x="338" y="248"/>
      <point x="364" y="252" type="curve"/>
    </contour>
    <contour>
      <point x="454" y="-188" type="line"/>
      <point x="598" y="-188" type="line"/>
      <point x="612" y="36" type="line"/>
      <point x="612" y="144" type="line"/>
      <point x="426" y="144" type="line"/>
      <point x="426" y="0" type="line"/>
      <point x="454" y="0" type="line"/>
    </contour>
  </outline>
</glyph>
<glyph name="Dzhe" format="1">
  <advance width="600"/>
  <outline>
    <contour>
      <point x="58" y="0" type="line"/>
      <point x="542" y="0" type="line"/>
      <point x="542" y="650" type="line"/>
      <point x="370" y="650" type="line"/>
      <point x="370" y="144" type="line"/>
      <point x="230" y="144" type="line"/>
      <point x="230" y="650" type="line"/>
      <point x="58" y="650" type="line"/>
    </contour>
    <contour>
      <point x="230" y="-188" type="line"/>
      <point x="372" y="-188" type="line"/>
      <point x="386" y="24" type="line"/>
      <point x="230" y="0" type="line"/>
    </contour>
  </outline>
</glyph>
<glyph name="E" format="1">
  <advance width="600"/>
  <outline>
    <contour>
      <point x="318" y="672" type="move" name="aboveUC"/>
    </contour>
    <contour>
      <point x="418" y="0" type="move" name="ogonekUC"/>
    </contour>
    <contour>
      <point x="316" y="-22" type="move" name="belowLC"/>
    </contour>
    <contour>
      <point x="84" y="0" type="line"/>
      <point x="536" y="0" type="line"/>
      <point x="536" y="144" type="line"/>
      <point x="256" y="144" type="line"/>
      <point x="256" y="260" type="line"/>
      <point x="486" y="260" type="line"/>
      <point x="486" y="404" type="line"/>
      <point x="256" y="404" type="line"/>
      <point x="256" y="506" type="line"/>
      <point x="526" y="506" type="line"/>
      <point x="526" y="650" type="line"/>
      <point x="84" y="650" type="line"/>
    </contour>
  </outline>
</glyph>
<glyph name="Ef" format="1">
  <advance width="600"/>
  <outline>
    <contour>
      <point x="296" y="72" type="curve"/>
      <point x="304" y="72" type="line" smooth="yes"/>
      <point x="484" y="72"/>
      <point x="588" y="154"/>
      <point x="588" y="328" type="curve" smooth="yes"/>
      <point x="588" y="502"/>
      <point x="484" y="580"/>
      <point x="304" y="580" type="curve" smooth="yes"/>
      <point x="296" y="580" type="line" smooth="yes"/>
      <point x="116" y="580"/>
      <point x="12" y="502"/>
      <point x="12" y="328" type="curve" smooth="yes"/>
      <point x="12" y="154"/>
      <point x="116" y="72"/>
    </contour>
    <contour>
      <point x="282" y="198" type="line"/>
      <point x="200" y="198"/>
      <point x="162" y="236"/>
      <point x="162" y="328" type="curve" smooth="yes"/>
      <point x="162" y="420"/>
      <point x="200" y="454"/>
      <point x="282" y="454" type="curve" smooth="yes"/>
      <point x="318" y="454" type="line" smooth="yes"/>
      <point x="400" y="454"/>
      <point x="438" y="420"/>
      <point x="438" y="328" type="curve" smooth="yes"/>
      <point x="438" y="236"/>
      <point x="400" y="198"/>
      <point x="318" y="198" type="curve" smooth="yes"/>
    </contour>
    <contour>
      <point x="234" y="-12" type="line"/>
      <point x="366" y="-12" type="line"/>
      <point x="366" y="662" type="line"/>
      <point x="234" y="662" type="line"/>
    </contour>
  </outline>
</glyph>
<glyph name="Eng.a" format="1">
  <advance width="600"/>
  <outline>
    <contour>
      <point x="370" y="-188" type="curve" smooth="yes"/>
      <point x="497" y="-188"/>
      <point x="540" y="-86"/>
      <point x="540" y="26" type="curve"/>
      <point x="540" y="650" type="line"/>
      <point x="376" y="650" type="line"/>
      <point x="376" y="462" type="line" smooth="yes"/>
      <point x="376" y="382"/>
      <point x="392" y="284"/>
      <point x="400" y="214" type="curve"/>
      <point x="396" y="214" type="line"/>
      <point x="343" y="360" type="line"/>
      <point x="234" y="650" type="line"/>
      <point x="60" y="650" type="line"/>
      <point x="60" y="0" type="line"/>
      <point x="224" y="0" type="line"/>
      <point x="224" y="188" type="line" smooth="yes"/>
      <point x="224" y="268"/>
      <point x="208" y="362"/>
      <point x="200" y="436" type="curve"/>
      <point x="204" y="436" type="line"/>
      <point x="257" y="291" type="line"/>
      <point x="366" y="0" type="line"/>
      <point x="376" y="0" type="line"/>
      <point x="376" y="-28"/>
      <point x="366" y="-54"/>
      <point x="338" y="-54" type="curve" smooth="yes"/>
      <point x="327" y="-54"/>
      <point x="319" y="-52"/>
      <point x="306" y="-48" type="curve"/>
      <point x="276" y="-174" type="line"/>
      <point x="298" y="-182"/>
      <point x="324" y="-188"/>
    </contour>
    <contour>
      <point x="310" y="670" type="move" name="aboveUC"/>
    </contour>
  </outline>
</glyph>
<glyph name="Fita" format="1">
  <advance width="600"/>
  <outline>
    <contour>
      <point x="300" y="-12" type="curve" smooth="yes"/>
      <point x="457" y="-12"/>
      <point x="566" y="106"/>
      <point x="566" y="328" type="curve" smooth="yes"/>
      <point x="566" y="549"/>
      <point x="457" y="662"/>
      <point x="300" y="662" type="curve" smooth="yes"/>
      <point x="143" y="662"/>
      <point x="34" y="550"/>
      <point x="34" y="328" type="curve" smooth="yes"/>
      <point x="34" y="106"/>
      <point x="143" y="-12"/>
    </contour>
    <contour>
      <point x="300" y="128" type="curve" smooth="yes"/>
      <point x="240" y="128"/>
      <point x="204" y="196"/>
      <point x="204" y="328" type="curve" smooth="yes"/>
      <point x="204" y="460"/>
      <point x="240" y="522"/>
      <point x="300" y="522" type="curve" smooth="yes"/>
      <point x="360" y="522"/>
      <point x="396" y="460"/>
      <point x="396" y="328" type="curve" smooth="yes"/>
      <point x="396" y="196"/>
      <point x="360" y="128"/>
    </contour>
    <contour>
      <point x="154" y="264" type="line"/>
      <point x="466" y="264" type="line"/>
      <point x="466" y="400" type="line"/>
      <point x="154" y="400" type="line"/>
    </contour>
    <contour>
      <point x="300" y="670" type="move" name="aboveUC"/>
    </contour>
  </outline>
</glyph>
<glyph name="Ghestroke" format="1">
  <advance width="600"/>
  <outline>
    <contour>
      <point x="120" y="0" type="line"/>
      <point x="292" y="0" type="line"/>
      <point x="292" y="506" type="line"/>
      <point x="544" y="506" type="line"/>
      <point x="544" y="650" type="line"/>
      <point x="120" y="650" type="line"/>
    </contour>
    <contour>
      <point x="46" y="274" type="line"/>
      <point x="408" y="274" type="line"/>
      <point x="408" y="354" type="line"/>
      <point x="122" y="354" type="line"/>
      <point x="46" y="348" type="line"/>
    </contour>
  </outline>
</glyph>
<glyph name="Gheup" format="1">
  <advance width="600"/>
  <outline>
    <contour>
      <point x="107" y="0" type="line"/>
      <point x="279" y="0" type="line"/>
      <point x="279" y="506" type="line"/>
      <point x="531" y="506" type="line"/>
      <point x="521" y="650" type="line"/>
      <point x="107" y="650" type="line"/>
    </contour>
    <contour>
      <point x="337" y="506" type="line"/>
      <point x="531" y="506" type="line"/>
      <point x="541" y="822" type="line"/>
      <point x="394" y="822" type="line"/>
      <point x="372" y="650" type="line"/>
      <point x="337" y="650" type="line"/>
    </contour>
  </outline>
</glyph>
<glyph name="Ghook" format="1">
  <advance width="600"/>
  <outline>
    <contour>
      <point x="402" y="572" type="curve"/>
      <point x="540" y="578" type="line"/>
      <point x="526" y="594"/>
      <point x="510" y="614"/>
      <point x="510" y="644" type="curve" smooth="yes"/>
      <point x="510" y="676"/>
      <point x="532" y="690"/>
      <point x="560" y="690" type="curve" smooth="yes"/>
      <point x="570" y="690"/>
      <point x="576" y="688"/>
      <point x="586" y="684" type="curve"/>
      <point x="616" y="810" type="line"/>
      <point x="594" y="817"/>
      <point x="568" y="824"/>
      <point x="522" y="824" type="curve" smooth="yes"/>
      <point x="425" y="824"/>
      <point x="370" y="757"/>
      <point x="370" y="680" type="curve" smooth="yes"/>
      <point x="370" y="649"/>
      <point x="384" y="604"/>
    </contour>
    <component base="G"/>
  </outline>
</glyph>
<glyph name="Gsmall" format="1">
  <advance width="600"/>
  <outline>
    <contour>
      <point x="330" y="-22" type="move" name="belowLC"/>
    </contour>
    <contour>
      <point x="329" y="-12" type="curve" smooth="yes"/>
      <point x="411" y="-12"/>
      <point x="488" y="15"/>
      <point x="532" y="55" type="curve"/>
      <point x="532" y="310" type="line"/>
      <point x="312" y="310" type="line"/>
      <point x="312" y="198" type="line"/>
      <point x="386" y="198" type="line"/>
      <point x="386" y="126" type="line"/>
      <point x="374" y="119"/>
      <point x="359" y="118"/>
      <point x="342" y="118" type="curve" smooth="yes"/>
      <point x="279" y="118"/>
      <point x="236" y="164"/>
      <point x="236" y="247" type="curve" smooth="yes"/>
      <point x="236" y="344"/>
      <point x="297" y="382"/>
      <point x="352" y="382" type="curve" smooth="yes"/>
      <point x="402" y="382"/>
      <point x="421" y="369"/>
      <point x="458" y="346" type="curve"/>
      <point x="534" y="448" type="line"/>
      <point x="485" y="486"/>
      <point x="433" y="512"/>
      <point x="340" y="512" type="curve" smooth="yes"/>
      <point x="203" y="512"/>
      <point x="62" y="418"/>
      <point x="62" y="247" type="curve" smooth="yes"/>
      <point x="62" y="67"/>
      <point x="194" y="-12"/>
    </contour>
  </outline>
</glyph>
<glyph name="Icyr" format="1">
  <advance width="600"/>
  <outline>
    <contour>
      <point x="58" y="0" type="line"/>
      <point x="232" y="0" type="line"/>
      <point x="354" y="291" type="line"/>
      <point x="406" y="436" type="line"/>
      <point x="410" y="436" type="line"/>
      <point x="402" y="362"/>
      <point x="388" y="268"/>
      <point x="388" y="188" type="curve" smooth="yes"/>
      <point x="388" y="0" type="line"/>
      <point x="542" y="0" type="line"/>
      <point x="542" y="650" type="line"/>
      <point x="368" y="650" type="line"/>
      <point x="246" y="360" type="line"/>
      <point x="194" y="214" type="line"/>
      <point x="190" y="214" type="line"/>
      <point x="198" y="284"/>
      <point x="212" y="382"/>
      <point x="212" y="462" type="curve" smooth="yes"/>
      <point x="212" y="650" type="line"/>
      <point x="58" y="650" type="line"/>
    </contour>
  </outline>
</glyph>
<glyph name="Ieukran" format="1">
  <advance width="600"/>
  <outline>
    <contour>
      <point x="361" y="-12" type="curve" smooth="yes"/>
      <point x="445" y="-12"/>
      <point x="520" y="20"/>
      <point x="575" y="84" type="curve"/>
      <point x="485" y="192" type="line"/>
      <point x="457" y="162"/>
      <point x="417" y="136"/>
      <point x="367" y="136" type="curve" smooth="yes"/>
      <point x="275" y="136"/>
      <point x="221" y="186"/>
      <point x="221" y="326" type="curve" smooth="yes"/>
      <point x="221" y="462"/>
      <point x="285" y="514"/>
      <point x="369" y="514" type="curve" smooth="yes"/>
      <point x="413" y="514"/>
      <point x="445" y="494"/>
      <point x="477" y="466" type="curve"/>
      <point x="567" y="576" type="line"/>
      <point x="521" y="622"/>
      <point x="451" y="662"/>
      <point x="365" y="662" type="curve" smooth="yes"/>
      <point x="197" y="662"/>
      <point x="51" y="554"/>
      <point x="51" y="320" type="curve" smooth="yes"/>
      <point x="51" y="86"/>
      <point x="191" y="-12"/>
    </contour>
    <contour>
      <point x="151" y="260" type="line"/>
      <point x="433" y="260" type="line"/>
      <point x="433" y="404" type="line"/>
      <point x="151" y="404" type="line"/>
    </contour>
  </outline>
</glyph>
<glyph name="K" format="1">
  <advance width="600"/>
  <outline>
    <contour>
      <point x="56" y="0" type="line"/>
      <point x="230" y="0" type="line"/>
      <point x="230" y="162" type="line"/>
      <point x="292" y="250" type="line"/>
      <point x="410" y="0" type="line"/>
      <point x="600" y="0" type="line"/>
      <point x="392" y="386" type="line"/>
      <point x="584" y="650" type="line"/>
      <point x="394" y="650" type="line"/>
      <point x="234" y="408" type="line"/>
      <point x="230" y="408" type="line"/>
      <point x="230" y="650" type="line"/>
      <point x="56" y="650" type="line"/>
    </contour>
    <contour>
      <point x="320" y="670" type="move" name="aboveUC"/>
    </contour>
    <contour>
      <point x="320" y="-20" type="move" name="belowLC"/>
    </contour>
  </outline>
</glyph>
<glyph name="Ka" format="1">
  <advance width="600"/>
  <outline>
    <contour>
      <point x="56" y="0" type="line"/>
      <point x="228" y="0" type="line"/>
      <point x="228" y="264" type="line"/>
      <point x="270" y="264" type="line"/>
      <point x="416" y="0" type="line"/>
      <point x="600" y="0" type="line"/>
      <point x="370" y="402" type="line"/>
      <point x="228" y="402" type="line"/>
      <point x="228" y="650" type="line"/>
      <point x="56" y="650" type="line"/>
    </contour>
    <contour>
      <point x="400" y="340" type="line"/>
      <point x="454" y="452" type="line" smooth="yes"/>
      <point x="472" y="490"/>
      <point x="492" y="502"/>
      <point x="522" y="502" type="curve" smooth="yes"/>
      <point x="528" y="502"/>
      <point x="540" y="502"/>
      <point x="552" y="498" type="curve"/>
      <point x="580" y="652" type="line"/>
      <point x="564" y="660"/>
      <point x="540" y="662"/>
      <point x="520" y="662" type="curve" smooth="yes"/>
      <point x="440" y="662"/>
      <point x="381" y="633"/>
      <point x="338" y="546" type="curve" smooth="yes"/>
      <point x="252" y="374" type="line"/>
    </contour>
  </outline>
</glyph>
<glyph name="Kabashkir" format="1">
  <advance width="600"/>
  <outline>
    <contour>
      <point x="162" y="0" type="line"/>
      <point x="314" y="0" type="line"/>
      <point x="314" y="264" type="line"/>
      <point x="358" y="264" type="line"/>
      <point x="446" y="0" type="line"/>
      <point x="600" y="0" type="line"/>
      <point x="448" y="402" type="line"/>
      <point x="314" y="402" type="line"/>
      <point x="314" y="650" type="line"/>
      <point x="162" y="650" type="line"/>
    </contour>
    <contour>
      <point x="28" y="506" type="line"/>
      <point x="162" y="506" type="line"/>
      <point x="314" y="650" type="line"/>
      <point x="28" y="650" type="line"/>
    </contour>
    <contour>
      <point x="474" y="330" type="line"/>
      <point x="509" y="452" type="line" smooth="yes"/>
      <point x="520" y="491"/>
      <point x="526" y="502"/>
      <point x="540" y="502" type="curve" smooth="yes"/>
      <point x="546" y="502"/>
      <point x="548" y="502"/>
      <point x="560" y="498" type="curve"/>
      <point x="588" y="652" type="line"/>
      <point x="574" y="659"/>
      <point x="555" y="662"/>
      <point x="538" y="662" type="curve" smooth="yes"/>
      <point x="458" y="662"/>
      <point x="422" y="640"/>
      <point x="396" y="546" type="curve" smooth="yes"/>
      <point x="348" y="374" type="line"/>
    </contour>
  </outline>
</glyph>
<glyph name="Lje" format="1">
  <advance width="600"/>
  <outline>
    <contour>
      <point x="46" y="-12" type="curve" smooth="yes"/>
      <point x="144" y="-12"/>
      <point x="180" y="50"/>
      <point x="196" y="228" type="curve" smooth="yes"/>
      <point x="209" y="366"/>
      <point x="210" y="424"/>
      <point x="214" y="506" type="curve"/>
      <point x="356" y="506" type="line"/>
      <point x="358" y="650" type="line"/>
      <point x="84" y="650" type="line"/>
      <point x="82" y="538"/>
      <point x="78" y="401"/>
      <point x="60" y="262" type="curve" smooth="yes"/>
      <point x="46" y="156"/>
      <point x="42" y="148"/>
      <point x="30" y="148" type="curve" smooth="yes"/>
      <point x="22" y="148"/>
      <point x="18" y="150"/>
      <point x="12" y="152" type="curve"/>
      <point x="-18" y="-4" type="line"/>
      <point x="4" y="-10"/>
      <point x="24" y="-12"/>
    </contour>
    <contour>
      <point x="248" y="0" type="line"/>
      <point x="384" y="0" type="line" smooth="yes"/>
      <point x="492" y="0"/>
      <point x="584" y="54"/>
      <point x="584" y="218" type="curve" smooth="yes"/>
      <point x="584" y="366"/>
      <point x="504" y="424"/>
      <point x="398" y="424" type="curve" smooth="yes"/>
      <point x="390" y="424" type="line"/>
      <point x="390" y="650" type="line"/>
      <point x="248" y="650" type="line"/>
    </contour>
    <contour>
      <point x="390" y="136" type="line"/>
      <point x="390" y="288" type="line"/>
      <point x="396" y="288" type="line" smooth="yes"/>
      <point x="433" y="288"/>
      <point x="450" y="264"/>
      <point x="450" y="216" type="curve" smooth="yes"/>
      <point x="450" y="158"/>
      <point x="429" y="136"/>
      <point x="396" y="136" type="curve" smooth="yes"/>
    </contour>
  </outline>
</glyph>
<glyph name="Lslash" format="1">
  <advance width="600"/>
  <outline>
    <contour>
      <point x="44" y="166" type="line"/>
      <point x="115" y="210" type="line"/>
      <point x="251" y="268" type="line"/>
      <point x="494" y="402" type="line"/>
      <point x="436" y="504" type="line"/>
      <point x="251" y="400" type="line"/>
      <point x="115" y="342" type="line"/>
      <point x="-14" y="268" type="line"/>
    </contour>
    <component base="L"/>
  </outline>
</glyph>
<glyph name="Lsmall" format="1">
  <advance width="600"/>
  <outline>
    <contour>
      <point x="110" y="0" type="line"/>
      <point x="538" y="0" type="line"/>
      <point x="538" y="134" type="line"/>
      <point x="282" y="134" type="line"/>
      <point x="282" y="500" type="line"/>
      <point x="110" y="500" type="line"/>
    </contour>
  </outline>
</glyph>
<glyph name="OE" format="1">
  <advance width="600"/>
  <outline>
    <contour>
      <point x="388" y="672" type="move" name="aboveUC"/>
    </contour>
    <contour>
      <point x="284" y="0" type="curve" smooth="yes"/>
      <point x="596" y="0" type="line"/>
      <point x="596" y="144" type="line"/>
      <point x="440" y="144" type="line"/>
      <point x="440" y="260" type="line"/>
      <point x="550" y="260" type="line"/>
      <point x="550" y="404" type="line"/>
      <point x="440" y="404" type="line"/>
      <point x="440" y="506" type="line"/>
      <point x="586" y="506" type="line"/>
      <point x="586" y="650" type="line"/>
      <point x="294" y="650" type="line" smooth="yes"/>
      <point x="138" y="650"/>
      <point x="14" y="558"/>
      <point x="14" y="328" type="curve" smooth="yes"/>
      <point x="14" y="98"/>
      <point x="133" y="0"/>
    </contour>
    <contour>
      <point x="274" y="138" type="line"/>
      <point x="227" y="138"/>
      <point x="190" y="174"/>
      <point x="190" y="328" type="curve" smooth="yes"/>
      <point x="190" y="482"/>
      <point x="227" y="512"/>
      <point x="274" y="512" type="curve" smooth="yes"/>
      <point x="288" y="512" type="line"/>
      <point x="288" y="138" type="line"/>
    </contour>
  </outline>
</glyph>
<glyph name="OEsmall" format="1">
  <advance width="600"/>
  <outline>
    <contour>
      <point x="242" y="-12" type="curve" smooth="yes"/>
      <point x="280" y="-12"/>
      <point x="307" y="-9"/>
      <point x="350" y="0" type="curve"/>
      <point x="596" y="0" type="line"/>
      <point x="596" y="122" type="line"/>
      <point x="440" y="122" type="line"/>
      <point x="440" y="198" type="line"/>
      <point x="558" y="198" type="line"/>
      <point x="558" y="310" type="line"/>
      <point x="440" y="310" type="line"/>
      <point x="440" y="376" type="line"/>
      <point x="586" y="376" type="line"/>
      <point x="586" y="500" type="line"/>
      <point x="350" y="500" type="line"/>
      <point x="303" y="509"/>
      <point x="280" y="512"/>
      <point x="242" y="512" type="curve" smooth="yes"/>
      <point x="130" y="512"/>
      <point x="14" y="426"/>
      <point x="14" y="249" type="curve" smooth="yes"/>
      <point x="14" y="68"/>
      <point x="130" y="-12"/>
    </contour>
    <contour>
      <point x="258" y="122" type="curve" smooth="yes"/>
      <point x="224" y="122"/>
      <point x="190" y="146"/>
      <point x="190" y="249" type="curve" smooth="yes"/>
      <point x="190" y="342"/>
      <point x="224" y="374"/>
      <point x="258" y="374" type="curve" smooth="yes"/>
      <point x="270" y="374"/>
      <point x="280" y="372"/>
      <point x="288" y="370" type="curve"/>
      <point x="288" y="128" type="line"/>
      <point x="278" y="124"/>
      <point x="268" y="122"/>
    </contour>
  </outline>
</glyph>
<glyph name="Rsmallinverted" format="1">
  <advance width="600"/>
  <outline>
    <contour>
      <point x="277" y="0" type="curve" smooth="yes"/>
      <point x="534" y="0" type="line"/>
      <point x="534" y="500" type="line"/>
      <point x="362" y="500" type="line"/>
      <point x="362" y="350" type="line"/>
      <point x="280" y="350" type="line"/>
      <point x="184" y="350"/>
      <point x="64" y="302"/>
      <point x="64" y="172" type="curve" smooth="yes"/>
      <point x="64" y="42"/>
      <point x="160" y="0"/>
    </contour>
    <contour>
      <point x="298" y="124" type="line"/>
      <point x="253" y="124"/>
      <point x="233" y="142"/>
      <point x="233" y="177" type="curve" smooth="yes"/>
      <point x="233" y="211"/>
      <point x="253" y="236"/>
      <point x="298" y="236" type="curve" smooth="yes"/>
      <point x="362" y="236" type="line"/>
      <point x="362" y="124" type="line"/>
    </contour>
    <contour>
      <point x="188" y="258" type="line"/>
      <point x="348" y="304" type="line"/>
      <point x="216" y="500" type="line"/>
      <point x="14" y="500" type="line"/>
    </contour>
  </outline>
</glyph>
<glyph name="Sha" format="1">
  <advance width="600"/>
  <outline>
    <contour>
      <point x="26" y="0" type="line"/>
      <point x="574" y="0" type="line"/>
      <point x="574" y="650" type="line"/>
      <point x="412" y="650" type="line"/>
      <point x="412" y="144" type="line"/>
      <point x="362" y="144" type="line"/>
      <point x="362" y="650" type="line"/>
      <point x="238" y="650" type="line"/>
      <point x="238" y="144" type="line"/>
      <point x="188" y="144" type="line"/>
      <point x="188" y="650" type="line"/>
      <point x="26" y="650" type="line"/>
    </contour>
  </outline>
</glyph>
<glyph name="Shcha" format="1">
  <advance width="600"/>
  <outline>
    <contour>
      <point x="26" y="0" type="line"/>
      <point x="554" y="0" type="line"/>
      <point x="554" y="650" type="line"/>
      <point x="402" y="650" type="line"/>
      <point x="402" y="144" type="line"/>
      <point x="352" y="144" type="line"/>
      <point x="352" y="650" type="line"/>
      <point x="228" y="650" type="line"/>
      <point x="228" y="144" type="line"/>
      <point x="178" y="144" type="line"/>
      <point x="178" y="650" type="line"/>
      <point x="26" y="650" type="line"/>
    </contour>
    <contour>
      <point x="464" y="-188" type="line"/>
      <point x="598" y="-188" type="line"/>
      <point x="612" y="36" type="line"/>
      <point x="612" y="144" type="line"/>
      <point x="454" y="144" type="line"/>
      <point x="454" y="0" type="line"/>
      <point x="464" y="0" type="line"/>
    </contour>
  </outline>
</glyph>
<glyph name="Tse" format="1">
  <advance width="600"/>
  <outline>
    <contour>
      <point x="58" y="0" type="line"/>
      <point x="536" y="0" type="line"/>
      <point x="536" y="650" type="line"/>
      <point x="364" y="650" type="line"/>
      <point x="364" y="144" type="line"/>
      <point x="230" y="144" type="line"/>
      <point x="230" y="650" type="line"/>
      <point x="58" y="650" type="line"/>
    </contour>
    <contour>
      <point x="456" y="-188" type="line"/>
      <point x="598" y="-188" type="line"/>
      <point x="612" y="36" type="line"/>
      <point x="612" y="144" type="line"/>
      <point x="432" y="144" type="line"/>
      <point x="432" y="0" type="line"/>
      <point x="456" y="0" type="line"/>
    </contour>
  </outline>
</glyph>
<glyph name="Tshe" format="1">
  <advance width="600"/>
  <outline>
    <contour>
      <point x="152" y="0" type="line"/>
      <point x="324" y="0" type="line"/>
      <point x="324" y="268" type="line"/>
      <point x="334" y="272"/>
      <point x="344" y="274"/>
      <point x="354" y="274" type="curve" smooth="yes"/>
      <point x="387" y="274"/>
      <point x="400" y="257"/>
      <point x="400" y="222" type="curve" smooth="yes"/>
      <point x="400" y="0" type="line"/>
      <point x="568" y="0" type="line"/>
      <point x="568" y="222" type="line" smooth="yes"/>
      <point x="568" y="356"/>
      <point x="494" y="410"/>
      <point x="383" y="410" type="curve" smooth="yes"/>
      <point x="364" y="410"/>
      <point x="347" y="407"/>
      <point x="324" y="404" type="curve"/>
      <point x="324" y="650" type="line"/>
      <point x="152" y="650" type="line"/>
    </contour>
    <contour>
      <point x="28" y="506" type="line"/>
      <point x="468" y="506" type="line"/>
      <point x="468" y="650" type="line"/>
      <point x="28" y="650" type="line"/>
    </contour>
  </outline>
</glyph>
<glyph name="Uhorn" format="1">
  <advance width="600"/>
  <outline>
    <contour>
      <point x="300" y="672" type="move" name="aboveUC"/>
    </contour>
    <contour>
      <point x="300" y="-22" type="move" name="belowLC"/>
    </contour>
    <contour>
      <point x="542" y="589" type="line"/>
      <point x="626" y="604"/>
      <point x="672" y="648"/>
      <point x="672" y="732" type="curve" smooth="yes"/>
      <point x="672" y="776"/>
      <point x="656" y="816"/>
      <point x="640" y="838" type="curve"/>
      <point x="514" y="788" type="line"/>
      <point x="521" y="773"/>
      <point x="530" y="748"/>
      <point x="530" y="720" type="curve" smooth="yes"/>
      <point x="530" y="657"/>
      <point x="492" y="650"/>
      <point x="460" y="650" type="curve"/>
    </contour>
    <component base="U"/>
  </outline>
</glyph>
<glyph name="Upsilontonos" format="1">
  <advance width="600"/>
  <outline>
    <contour>
      <point x="344" y="0" type="line"/>
      <point x="496" y="0" type="line"/>
      <point x="496" y="215" type="line"/>
      <point x="632" y="650" type="line"/>
      <point x="482" y="650" type="line"/>
      <point x="454" y="508" type="line" smooth="yes"/>
      <point x="444" y="455"/>
      <point x="432" y="412"/>
      <point x="423" y="360" type="curve"/>
      <point x="419" y="360" type="line"/>
      <point x="410" y="412"/>
      <point x="400" y="455"/>
      <point x="390" y="508" type="curve" smooth="yes"/>
      <point x="363" y="650" type="line"/>
      <point x="208" y="650" type="line"/>
      <point x="344" y="215" type="line"/>
    </contour>
    <component base="tonos.cap" xOffset="-200"/>
  </outline>
</glyph>
<glyph name="Zhe" format="1">
  <advance width="600"/>
  <outline>
    <contour>
      <point x="0" y="0" type="line"/>
      <point x="154" y="0" type="line"/>
      <point x="204" y="264" type="line"/>
      <point x="238" y="264" type="line"/>
      <point x="238" y="0" type="line"/>
      <point x="362" y="0" type="line"/>
      <point x="362" y="264" type="line"/>
      <point x="396" y="264" type="line"/>
      <point x="446" y="0" type="line"/>
      <point x="600" y="0" type="line"/>
      <point x="478" y="402" type="line"/>
      <point x="362" y="402" type="line"/>
      <point x="362" y="650" type="line"/>
      <point x="238" y="650" type="line"/>
      <point x="238" y="402" type="line"/>
      <point x="122" y="402" type="line"/>
    </contour>
    <contour>
      <point x="114" y="320" type="line"/>
      <point x="234" y="342" type="line"/>
      <point x="184" y="552" type="line" smooth="yes"/>
      <point x="163" y="640"/>
      <point x="116" y="662"/>
      <point x="46" y="662" type="curve" smooth="yes"/>
      <point x="30" y="662"/>
      <point x="16" y="662"/>
      <point x="2" y="656" type="curve"/>
      <point x="28" y="496" type="line"/>
      <point x="35" y="498"/>
      <point x="42" y="500"/>
      <point x="50" y="500" type="curve" smooth="yes"/>
      <point x="64" y="500"/>
      <point x="80" y="495"/>
      <point x="86" y="462" type="curve" smooth="yes"/>
    </contour>
    <contour>
      <point x="486" y="320" type="line"/>
      <point x="514" y="462" type="line" smooth="yes"/>
      <point x="520" y="495"/>
      <point x="536" y="500"/>
      <point x="550" y="500" type="curve" smooth="yes"/>
      <point x="558" y="500"/>
      <point x="565" y="498"/>
      <point x="572" y="496" type="curve"/>
      <point x="598" y="656" type="line"/>
      <point x="584" y="662"/>
      <point x="570" y="662"/>
      <point x="554" y="662" type="curve" smooth="yes"/>
      <point x="484" y="662"/>
      <point x="437" y="640"/>
      <point x="416" y="552" type="curve" smooth="yes"/>
      <point x="366" y="342" type="line"/>
    </contour>
  </outline>
</glyph>
<glyph name="a.a" format="1">
	<advance width="600"/>
	<outline>
		<component base="alphalatin"/>
		<contour>
			<point name="ogonekLC" x="430" y="0" type="move"/>
		</contour>
		<contour>
			<point name="aboveLC" x="310" y="520" type="move"/>
		</contour>
		<contour>
			<point name="baseLC" x="468" y="0" type="move"/>
		</contour>
		<contour>
			<point name="belowLC" x="310" y="-20" type="move"/>
		</contour>
	</outline>
</glyph>
<glyph name="a.supa" format="1">
  <advance width="600"/>
  <outline>
    <contour>
      <point x="264" y="360" type="curve" smooth="yes"/>
      <point x="293" y="360"/>
      <point x="328" y="376"/>
      <point x="350" y="398" type="curve"/>
      <point x="353" y="398" type="line"/>
      <point x="361" y="368" type="line"/>
      <point x="458" y="368" type="line"/>
      <point x="458" y="699" type="line"/>
      <point x="366" y="699" type="line"/>
      <point x="356" y="666" type="line"/>
      <point x="353" y="666" type="line"/>
      <point x="328" y="695"/>
      <point x="298" y="707"/>
      <point x="267" y="707" type="curve" smooth="yes"/>
      <point x="193" y="707"/>
      <point x="125" y="642"/>
      <point x="125" y="533" type="curve" smooth="yes"/>
      <point x="125" y="426"/>
      <point x="181" y="360"/>
    </contour>
    <contour>
      <point x="296" y="456" type="curve" smooth="yes"/>
      <point x="268" y="456"/>
      <point x="247" y="477"/>
      <point x="247" y="535" type="curve" smooth="yes"/>
      <point x="247" y="592"/>
      <point x="271" y="611"/>
      <point x="293" y="611" type="curve" smooth="yes"/>
      <point x="307" y="611"/>
      <point x="327" y="607"/>
      <point x="339" y="596" type="curve"/>
      <point x="339" y="478" type="line"/>
      <point x="328" y="460"/>
      <point x="313" y="456"/>
    </contour>
  </outline>
</glyph>
<glyph name="acutecmb.cap" format="1">
  <advance width="600"/>
  <outline>
    <contour>
      <point x="300" y="672" type="move" name="_aboveUC"/>
    </contour>
    <contour>
      <point x="292" y="674" type="line"/>
      <point x="488" y="794" type="line"/>
      <point x="398" y="904" type="line"/>
      <point x="216" y="760" type="line"/>
    </contour>
  </outline>
</glyph>
<glyph name="acutecmb" format="1">
  <advance width="600"/>
  <outline>
    <contour>
      <point x="300" y="522" type="move" name="_aboveLC"/>
    </contour>
    <contour>
      <point x="320" y="558" type="line"/>
      <point x="510" y="716" type="line"/>
      <point x="394" y="830" type="line"/>
      <point x="236" y="642" type="line"/>
    </contour>
  </outline>
</glyph>
<glyph name="acyr.a" format="1">
  <advance width="600"/>
  <outline>
    <contour>
      <point x="316" y="522" type="move" name="aboveLC"/>
    </contour>
    <contour>
      <point x="318" y="-22" type="move" name="belowLC"/>
    </contour>
    <component base="alphalatin"/>
  </outline>
</glyph>
<glyph name="aogonek" format="1">
  <advance width="600"/>
  <outline>
    <contour>
      <point x="442" y="-228" type="curve" smooth="yes"/>
      <point x="479" y="-228"/>
      <point x="532" y="-215"/>
      <point x="562" y="-192" type="curve"/>
      <point x="528" y="-116" type="line"/>
      <point x="518" y="-123"/>
      <point x="500" y="-128"/>
      <point x="484" y="-128" type="curve" smooth="yes"/>
      <point x="459" y="-128"/>
      <point x="434" y="-116"/>
      <point x="434" y="-86" type="curve" smooth="yes"/>
      <point x="434" y="-55"/>
      <point x="466" y="-18"/>
      <point x="542" y="0" type="curve"/>
      <point x="542" y="278" type="line" smooth="yes"/>
      <point x="542" y="442"/>
      <point x="450" y="512"/>
      <point x="308" y="512" type="curve" smooth="yes"/>
      <point x="224" y="512"/>
      <point x="146" y="488"/>
      <point x="70" y="446" type="curve"/>
      <point x="130" y="334" type="line"/>
      <point x="190" y="362"/>
      <point x="232" y="376"/>
      <point x="274" y="376" type="curve" smooth="yes"/>
      <point x="330" y="376"/>
      <point x="364" y="360"/>
      <point x="370" y="324" type="curve"/>
      <point x="142" y="312"/>
      <point x="54" y="254"/>
      <point x="54" y="142" type="curve" smooth="yes"/>
      <point x="54" y="60"/>
      <point x="112" y="-12"/>
      <point x="216" y="-12" type="curve" smooth="yes"/>
      <point x="278" y="-12"/>
      <point x="337" y="16"/>
      <point x="386" y="52" type="curve"/>
      <point x="390" y="52" type="line"/>
      <point x="404" y="-4" type="line"/>
      <point x="371" y="-22"/>
      <point x="320" y="-62"/>
      <point x="320" y="-126" type="curve" smooth="yes"/>
      <point x="320" y="-193"/>
      <point x="375" y="-228"/>
    </contour>
    <contour>
      <point x="272" y="120" type="curve" smooth="yes"/>
      <point x="236" y="120"/>
      <point x="218" y="133"/>
      <point x="218" y="156" type="curve" smooth="yes"/>
      <point x="218" y="190"/>
      <point x="248" y="218"/>
      <point x="370" y="222" type="curve"/>
      <point x="370" y="158" type="line"/>
      <point x="343" y="138"/>
      <point x="312" y="120"/>
    </contour>
    <contour>
      <point x="306" y="520" type="move" name="aboveLC"/>
    </contour>
  </outline>
</glyph>
<glyph name="arrowdblup" format="1">
  <advance width="600"/>
  <outline>
    <contour>
      <point x="122" y="170" type="line"/>
      <point x="298" y="378" type="line"/>
      <point x="302" y="378" type="line"/>
      <point x="478" y="170" type="line"/>
      <point x="570" y="250" type="line"/>
      <point x="302" y="530" type="line"/>
      <point x="298" y="530" type="line"/>
      <point x="30" y="250" type="line"/>
    </contour>
    <contour>
      <point x="326" y="-26" type="line"/>
      <point x="424" y="-26" type="line"/>
      <point x="424" y="380" type="line"/>
      <point x="326" y="380" type="line"/>
    </contour>
    <contour>
      <point x="176" y="-26" type="line"/>
      <point x="274" y="-26" type="line"/>
      <point x="274" y="380" type="line"/>
      <point x="176" y="380" type="line"/>
    </contour>
  </outline>
</glyph>
<glyph name="arrowupright" format="1">
  <advance width="600"/>
  <outline>
    <contour>
      <point x="55" y="104" type="line"/>
      <point x="152" y="7" type="line"/>
      <point x="382" y="238" type="line"/>
      <point x="368" y="68" type="line"/>
      <point x="490" y="60" type="line"/>
      <point x="498" y="447" type="line"/>
      <point x="495" y="450" type="line"/>
      <point x="108" y="442" type="line"/>
      <point x="116" y="320" type="line"/>
      <point x="286" y="334" type="line"/>
    </contour>
  </outline>
</glyph>
<glyph name="asperacute.cap" format="1">
  <advance width="600"/>
  <outline>
    <contour>
      <point x="243" y="426" type="curve"/>
      <point x="255" y="492" type="line"/>
      <point x="239" y="500"/>
      <point x="225" y="509"/>
      <point x="225" y="532" type="curve" smooth="yes"/>
      <point x="225" y="553"/>
      <point x="243" y="573"/>
      <point x="293" y="578" type="curve"/>
      <point x="273" y="662" type="line"/>
      <point x="161" y="658"/>
      <point x="113" y="614"/>
      <point x="113" y="550" type="curve" smooth="yes"/>
      <point x="113" y="474"/>
      <point x="181" y="436"/>
    </contour>
    <contour>
      <point x="325" y="450" type="line"/>
      <point x="433" y="430" type="line"/>
      <point x="497" y="650" type="line"/>
      <point x="353" y="670" type="line"/>
    </contour>
  </outline>
</glyph>
<glyph name="aspercmb" format="1">
  <advance width="600"/>
  <outline>
    <contour>
      <point x="300" y="522" type="move" name="_aboveLC"/>
    </contour>
    <contour>
      <point x="348" y="566" type="curve"/>
      <point x="360" y="632" type="line"/>
      <point x="338" y="635"/>
      <point x="320" y="642"/>
      <point x="320" y="662" type="curve" smooth="yes"/>
      <point x="320" y="684"/>
      <point x="340" y="698"/>
      <point x="398" y="702" type="curve"/>
      <point x="388" y="806" type="line"/>
      <point x="242" y="802"/>
      <point x="196" y="750"/>
      <point x="196" y="674" type="curve" smooth="yes"/>
      <point x="196" y="602"/>
      <point x="266" y="570"/>
    </contour>
  </outline>
</glyph>
<glyph name="bar" format="1">
  <advance width="600"/>
  <outline>
    <contour>
      <point x="224" y="-250" type="line"/>
      <point x="376" y="-250" type="line"/>
      <point x="376" y="750" type="line"/>
      <point x="224" y="750" type="line"/>
    </contour>
  </outline>
</glyph>
<glyph name="bhook" format="1">
  <advance width="600"/>
  <outline>
    <contour>
      <point x="346" y="-12" type="curve" smooth="yes"/>
      <point x="453" y="-12"/>
      <point x="556" y="82"/>
      <point x="556" y="249" type="curve" smooth="yes"/>
      <point x="556" y="396"/>
      <point x="478" y="492"/>
      <point x="359" y="492" type="curve" smooth="yes"/>
      <point x="314" y="492"/>
      <point x="270" y="475"/>
      <point x="234" y="442" type="curve"/>
      <point x="230" y="442" type="line"/>
      <point x="236" y="501" type="line"/>
      <point x="236" y="500" type="line"/>
      <point x="241" y="556"/>
      <point x="268" y="574"/>
      <point x="320" y="574" type="curve" smooth="yes"/>
      <point x="340" y="574"/>
      <point x="363" y="567"/>
      <point x="384" y="560" type="curve"/>
      <point x="414" y="686" type="line"/>
      <point x="389" y="695"/>
      <point x="347" y="708"/>
      <point x="294" y="708" type="curve" smooth="yes"/>
      <point x="124" y="708"/>
      <point x="64" y="603"/>
      <point x="64" y="486" type="curve"/>
      <point x="64" y="0" type="line"/>
      <point x="198" y="0" type="line"/>
      <point x="212" y="54" type="line"/>
      <point x="216" y="54" type="line"/>
      <point x="255" y="9"/>
      <point x="301" y="-12"/>
    </contour>
    <contour>
      <point x="304" y="128" type="curve" smooth="yes"/>
      <point x="281" y="128"/>
      <point x="257" y="133"/>
      <point x="236" y="152" type="curve"/>
      <point x="236" y="316" type="line"/>
      <point x="259" y="343"/>
      <point x="281" y="352"/>
      <point x="308" y="352" type="curve" smooth="yes"/>
      <point x="355" y="352"/>
      <point x="380" y="321"/>
      <point x="380" y="246" type="curve" smooth="yes"/>
      <point x="380" y="157"/>
      <point x="345" y="128"/>
    </contour>
    <contour>
      <point x="300" y="730" type="move" name="aboveUC"/>
    </contour>
    <contour>
      <point x="307" y="-20" type="move" name="belowLC"/>
    </contour>
  </outline>
</glyph>
<glyph name="breveacute.cap" format="1">
  <advance width="600"/>
  <outline>
    <contour>
      <point x="300" y="672" type="move" name="_aboveUC"/>
    </contour>
    <contour>
      <point x="300" y="694" type="curve" smooth="yes"/>
      <point x="402" y="694"/>
      <point x="460" y="738"/>
      <point x="470" y="834" type="curve"/>
      <point x="388" y="850" type="line"/>
      <point x="377" y="804"/>
      <point x="345" y="782"/>
      <point x="300" y="782" type="curve" smooth="yes"/>
      <point x="255" y="782"/>
      <point x="223" y="804"/>
      <point x="212" y="850" type="curve"/>
      <point x="130" y="834" type="line"/>
      <point x="140" y="738"/>
      <point x="198" y="694"/>
    </contour>
    <contour>
      <point x="322" y="806" type="line"/>
      <point x="440" y="940" type="line"/>
      <point x="334" y="1004" type="line"/>
      <point x="238" y="860" type="line"/>
    </contour>
  </outline>
</glyph>
<glyph name="brevecmb.cyr" format="1">
  <advance width="600"/>
  <outline>
    <contour>
      <point x="300" y="572" type="curve" smooth="yes"/>
      <point x="416" y="572"/>
      <point x="476" y="626"/>
      <point x="478" y="734" type="curve"/>
      <point x="346" y="740" type="line"/>
      <point x="344" y="685"/>
      <point x="334" y="662"/>
      <point x="300" y="662" type="curve" smooth="yes"/>
      <point x="266" y="662"/>
      <point x="256" y="685"/>
      <point x="254" y="740" type="curve"/>
      <point x="122" y="734" type="line"/>
      <point x="124" y="626"/>
      <point x="184" y="572"/>
    </contour>
    <contour>
      <point x="300" y="520" type="move" name="_aboveLC"/>
    </contour>
    <contour>
      <point x="300" y="740" type="move" name="aboveLC"/>
    </contour>
  </outline>
</glyph>
<glyph name="brevecmb" format="1">
  <advance width="600"/>
  <outline>
    <contour>
      <point x="300" y="572" type="curve" smooth="yes"/>
      <point x="418" y="572"/>
      <point x="472" y="638"/>
      <point x="474" y="732" type="curve"/>
      <point x="378" y="748" type="line"/>
      <point x="372" y="708"/>
      <point x="348" y="678"/>
      <point x="300" y="678" type="curve" smooth="yes"/>
      <point x="252" y="678"/>
      <point x="228" y="708"/>
      <point x="222" y="748" type="curve"/>
      <point x="126" y="732" type="line"/>
      <point x="128" y="638"/>
      <point x="183" y="572"/>
    </contour>
    <contour>
      <point x="300" y="520" type="move" name="_aboveLC"/>
    </contour>
    <contour>
      <point x="300" y="740" type="move" name="aboveLC"/>
    </contour>
  </outline>
</glyph>
<glyph name="brevegrave.cap" format="1">
  <advance width="600"/>
  <outline>
    <contour>
      <point x="300" y="672" type="move" name="_aboveUC"/>
    </contour>
    <contour>
      <point x="300" y="694" type="curve" smooth="yes"/>
      <point x="402" y="694"/>
      <point x="460" y="738"/>
      <point x="470" y="834" type="curve"/>
      <point x="388" y="850" type="line"/>
      <point x="377" y="804"/>
      <point x="345" y="782"/>
      <point x="300" y="782" type="curve" smooth="yes"/>
      <point x="255" y="782"/>
      <point x="223" y="804"/>
      <point x="212" y="850" type="curve"/>
      <point x="130" y="834" type="line"/>
      <point x="140" y="738"/>
      <point x="198" y="694"/>
    </contour>
    <contour>
      <point x="278" y="806" type="line"/>
      <point x="362" y="860" type="line"/>
      <point x="266" y="1004" type="line"/>
      <point x="160" y="940" type="line"/>
    </contour>
  </outline>
</glyph>
